<svg width="226" height="25" viewBox="0 0 226 25" fill="none" xmlns="http://www.w3.org/2000/svg">
<path d="M211.38 24.8208H210.262V15.3594H211.38V24.8208Z" fill="#999999"/>
<path d="M209.175 24.8208H207.972L207.371 22.6788H204.057L203.456 24.8208H202.254L205.05 15.3594H206.378L209.175 24.8208ZM207.133 21.6859L205.707 16.6077L204.295 21.6859H207.133Z" fill="#999999"/>
<path d="M201.516 24.8208H200.258L198.468 21.0334H197.126V24.8208H196.008V15.3594H198.86C200.356 15.3594 201.418 16.4516 201.418 18.1822C201.418 19.8702 200.482 20.6929 199.559 20.8631L201.516 24.8208ZM198.734 20.0404C199.699 20.0404 200.272 19.2744 200.272 18.1964C200.272 17.1183 199.699 16.3523 198.734 16.3523H197.126V20.0404H198.734Z" fill="#999999"/>
<path d="M194.403 24.8208H193.145L191.355 21.0334H190.013V24.8208H188.895V15.3594H191.747C193.243 15.3594 194.305 16.4516 194.305 18.1822C194.305 19.8702 193.368 20.6929 192.446 20.8631L194.403 24.8208ZM191.621 20.0404C192.586 20.0404 193.159 19.2744 193.159 18.1964C193.159 17.1183 192.586 16.3523 191.621 16.3523H190.013V20.0404H191.621Z" fill="#999999"/>
<path d="M187.245 24.8208H182.449V15.3594H187.245V16.3523H183.568V19.4872H187.147V20.4802H183.568V23.8136H187.245V24.8208Z" fill="#999999"/>
<path d="M178.894 24.8208H177.789V16.3523H175.58V15.3594H181.117V16.3523H178.894V24.8208Z" fill="#999999"/>
<path d="M168.017 24.8208H166.898V15.3594H171.694V16.3523H168.017V19.4872H171.596V20.4802H168.017V24.8208Z" fill="#999999"/>
<path d="M161.73 24.9829C159.465 24.9829 158.207 22.8268 158.207 20.0891C158.207 17.3514 159.465 15.1953 161.73 15.1953C163.995 15.1953 165.267 17.3514 165.267 20.0891C165.267 22.8268 163.995 24.9829 161.73 24.9829ZM161.73 23.9758C163.282 23.9758 164.121 22.2452 164.121 20.0891C164.121 17.9046 163.282 16.2024 161.73 16.2024C160.192 16.2024 159.353 17.9046 159.353 20.0891C159.353 22.2452 160.192 23.9758 161.73 23.9758Z" fill="#999999"/>
<path d="M153.876 24.8208H149.08V15.3594H153.876V16.3523H150.199V19.4872H153.778V20.4802H150.199V23.8136H153.876V24.8208Z" fill="#999999"/>
<path d="M144.529 24.9971C142.348 24.9971 140.908 23.0112 140.908 20.0891C140.908 17.167 142.348 15.1953 144.529 15.1953C145.899 15.1953 146.752 15.9755 147.298 16.9826L146.403 17.4507C146.011 16.7131 145.382 16.2024 144.529 16.2024C143.033 16.2024 142.055 17.777 142.055 20.0891C142.055 22.3871 143.033 23.9758 144.529 23.9758C145.312 23.9758 145.941 23.5928 146.277 23.1815V20.9686H144.054V19.9756H147.339V23.607C146.654 24.4723 145.704 24.9971 144.529 24.9971Z" fill="#999999"/>
<path d="M139.268 24.8208H138.192L134.347 17.7708V24.8208H133.229V15.3594H134.347L138.15 22.2675V15.3594H139.268V24.8208Z" fill="#999999"/>
<path d="M132.141 24.8208H130.939L130.338 22.6788H127.024L126.423 24.8208H125.221L128.017 15.3594H129.345L132.141 24.8208ZM130.1 21.6859L128.674 16.6077L127.262 21.6859H130.1Z" fill="#999999"/>
<path d="M124.483 24.8208H123.225L121.435 21.0334H120.093V24.8208H118.975V15.3594H121.827C123.323 15.3594 124.385 16.4516 124.385 18.1822C124.385 19.8702 123.449 20.6929 122.526 20.8631L124.483 24.8208ZM121.701 20.0404C122.666 20.0404 123.239 19.2744 123.239 18.1964C123.239 17.1183 122.666 16.3523 121.701 16.3523H120.093V20.0404H121.701Z" fill="#999999"/>
<path d="M114.323 24.8208H109.527V15.3594H114.323V16.3523H110.646V19.4872H114.225V20.4802H110.646V23.8136H114.323V24.8208Z" fill="#999999"/>
<path d="M104.123 24.8208H101.635V15.3594H104.123C106.542 15.3594 107.87 17.3878 107.87 20.0972C107.87 22.8207 106.542 24.8208 104.123 24.8208ZM104.123 23.8136C105.843 23.8136 106.724 22.2249 106.724 20.0972C106.724 17.9552 105.857 16.3523 104.123 16.3523H102.753V23.8136H104.123Z" fill="#999999"/>
<path d="M99.6829 24.8208H98.5645V15.3594H99.6829V24.8208Z" fill="#999999"/>
<path d="M95.2943 24.8208H94.1059L92.582 17.3595L91.072 24.8208H89.8836L87.8145 15.3594H89.0028L90.5268 23.076L92.1206 15.3594H93.0573L94.6512 23.076L96.1751 15.3594H97.3635L95.2943 24.8208Z" fill="#999999"/>
<path d="M84.4792 24.8208H83.2768L82.6757 22.6788H79.3621L78.761 24.8208H77.5586L80.3548 15.3594H81.683L84.4792 24.8208ZM82.438 21.6859L81.0119 16.6077L79.5998 21.6859H82.438Z" fill="#999999"/>
<path d="M71.0635 24.9829C69.8471 24.9829 68.9104 24.5148 68.2812 23.7914L68.8964 22.9261C69.3718 23.5077 70.1547 23.9758 71.0635 23.9758C72.2379 23.9758 72.7692 23.2382 72.7692 22.4296C72.7692 20.1317 68.5609 20.7275 68.5609 17.6777C68.5609 16.2308 69.6794 15.1953 71.2313 15.1953C72.2658 15.1953 73.1047 15.5499 73.7199 16.1883L73.1327 17.0394C72.6294 16.472 71.9443 16.2024 71.2033 16.2024C70.3504 16.2024 69.6933 16.7698 69.6933 17.6209C69.6933 19.621 73.9016 19.1813 73.9016 22.3587C73.9016 23.7489 72.9929 24.9829 71.0635 24.9829Z" fill="#999999"/>
<path d="M64.4951 24.9829C63.2788 24.9829 62.342 24.5148 61.7129 23.7914L62.3281 22.9261C62.8034 23.5077 63.5864 23.9758 64.4951 23.9758C65.6695 23.9758 66.2008 23.2382 66.2008 22.4296C66.2008 20.1317 61.9925 20.7275 61.9925 17.6777C61.9925 16.2308 63.111 15.1953 64.6629 15.1953C65.6975 15.1953 66.5363 15.5499 67.1515 16.1883L66.5643 17.0394C66.061 16.472 65.3759 16.2024 64.6349 16.2024C63.7821 16.2024 63.125 16.7698 63.125 17.6209C63.125 19.621 67.3333 19.1813 67.3333 22.3587C67.3333 23.7489 66.4245 24.9829 64.4951 24.9829Z" fill="#999999"/>
<path d="M57.1189 24.9829C54.854 24.9829 53.5957 22.8268 53.5957 20.0891C53.5957 17.3514 54.854 15.1953 57.1189 15.1953C59.3839 15.1953 60.6561 17.3514 60.6561 20.0891C60.6561 22.8268 59.3839 24.9829 57.1189 24.9829ZM57.1189 23.9758C58.6708 23.9758 59.5097 22.2452 59.5097 20.0891C59.5097 17.9046 58.6708 16.2024 57.1189 16.2024C55.581 16.2024 54.7421 17.9046 54.7421 20.0891C54.7421 22.2452 55.581 23.9758 57.1189 23.9758Z" fill="#999999"/>
<path d="M52.3132 24.8208H51.0549L49.2654 21.0334H47.9232V24.8208H46.8047V15.3594H49.6568C51.1528 15.3594 52.2153 16.4516 52.2153 18.1822C52.2153 19.8702 51.2786 20.6929 50.3559 20.8631L52.3132 24.8208ZM49.531 20.0404C50.4957 20.0404 51.0689 19.2744 51.0689 18.1964C51.0689 17.1183 50.4957 16.3523 49.531 16.3523H47.9232V20.0404H49.531Z" fill="#999999"/>
<path d="M42.6484 24.9829C40.4254 24.9829 39.0273 22.9119 39.0273 20.0891C39.0273 17.2521 40.4254 15.1953 42.6484 15.1953C44.0605 15.1953 44.8714 16.0606 45.3747 17.0394L44.452 17.4791C44.0745 16.7131 43.4593 16.2024 42.6484 16.2024C41.1385 16.2024 40.1738 17.8479 40.1738 20.0891C40.1738 22.3304 41.1385 23.9758 42.6484 23.9758C43.5013 23.9758 44.1164 23.38 44.466 22.5715L45.4027 23.0112C44.8854 24.0609 44.0885 24.9829 42.6484 24.9829Z" fill="#999999"/>
<path d="M38.5339 24.8208H37.3315L36.7303 22.6788H33.4168L32.8157 24.8208H31.6133L34.4095 15.3594H35.7377L38.5339 24.8208ZM36.4927 21.6859L35.0666 16.6077L33.6545 21.6859H36.4927Z" fill="#999999"/>
<path d="M25.1182 24.9829C23.9018 24.9829 22.9651 24.5148 22.3359 23.7914L22.9511 22.9261C23.4265 23.5077 24.2094 23.9758 25.1182 23.9758C26.2926 23.9758 26.8239 23.2382 26.8239 22.4296C26.8239 20.1317 22.6156 20.7275 22.6156 17.6777C22.6156 16.2308 23.734 15.1953 25.2859 15.1953C26.3205 15.1953 27.1594 15.5499 27.7746 16.1883L27.1874 17.0394C26.684 16.472 25.999 16.2024 25.258 16.2024C24.4051 16.2024 23.748 16.7698 23.748 17.6209C23.748 19.621 27.9563 19.1813 27.9563 22.3587C27.9563 23.7489 27.0475 24.9829 25.1182 24.9829Z" fill="#999999"/>
<path d="M17.2161 24.8208H16.0977V15.3594H18.9358C20.6415 15.3594 21.5083 16.6644 21.5083 18.1964C21.5083 19.7283 20.6275 21.0334 18.9358 21.0334H17.2161V24.8208ZM18.824 20.0404C19.7887 20.0404 20.3619 19.2744 20.3619 18.1964C20.3619 17.1183 19.7887 16.3523 18.824 16.3523H17.2161V20.0404H18.824Z" fill="#999999"/>
<path d="M14.1439 24.8208H13.0254V15.3594H14.1439V24.8208Z" fill="#999999"/>
<path d="M11.6285 24.8208H7.14062V15.3594H8.25911V23.8136H11.6285V24.8208Z" fill="#999999"/>
<path d="M2.78223 24.9829C1.56588 24.9829 0.629147 24.5148 0 23.7914L0.615166 22.9261C1.09052 23.5077 1.87346 23.9758 2.78223 23.9758C3.95663 23.9758 4.48791 23.2382 4.48791 22.4296C4.48791 20.1317 0.279621 20.7275 0.279621 17.6777C0.279621 16.2308 1.3981 15.1953 2.95 15.1953C3.9846 15.1953 4.82346 15.5499 5.43862 16.1883L4.85142 17.0394C4.3481 16.472 3.66303 16.2024 2.92204 16.2024C2.06919 16.2024 1.41209 16.7698 1.41209 17.6209C1.41209 19.621 5.62038 19.1813 5.62038 22.3587C5.62038 23.7489 4.71161 24.9829 2.78223 24.9829Z" fill="#999999"/>
<path d="M222.252 9.61763H219.764V0.15625H222.252C224.671 0.15625 225.999 2.1847 225.999 4.89403C225.999 7.61755 224.671 9.61763 222.252 9.61763ZM222.252 8.61049C223.972 8.61049 224.853 7.02178 224.853 4.89403C224.853 2.7521 223.986 1.1492 222.252 1.1492H220.882V8.61049H222.252Z" fill="#999999"/>
<path d="M217.803 9.61763H216.727L212.882 2.5677V9.61763H211.764V0.15625H212.882L216.685 7.06433V0.15625H217.803V9.61763Z" fill="#999999"/>
<path d="M210.676 9.61763H209.474L208.873 7.4757H205.559L204.958 9.61763H203.756L206.552 0.15625H207.88L210.676 9.61763ZM208.635 6.48275L207.209 1.40453L205.797 6.48275H208.635Z" fill="#999999"/>
<path d="M197.261 9.78763C196.044 9.78763 195.108 9.31953 194.479 8.59609L195.094 7.73081C195.569 8.31239 196.352 8.7805 197.261 8.7805C198.435 8.7805 198.966 8.04288 198.966 7.23434C198.966 4.93637 194.758 5.53214 194.758 2.48237C194.758 1.0355 195.877 0 197.429 0C198.463 0 199.302 0.354624 199.917 0.992948L199.33 1.84405C198.827 1.27665 198.142 1.00713 197.401 1.00713C196.548 1.00713 195.891 1.57453 195.891 2.42563C195.891 4.42571 200.099 3.98598 200.099 7.16341C200.099 8.55354 199.19 9.78763 197.261 9.78763Z" fill="#999999"/>
<path d="M189.357 9.61763H188.238V0.15625H191.076C192.782 0.15625 193.649 1.46127 193.649 2.99325C193.649 4.52522 192.768 5.83024 191.076 5.83024H189.357V9.61763ZM190.965 4.83729C191.929 4.83729 192.503 4.0713 192.503 2.99325C192.503 1.91519 191.929 1.1492 190.965 1.1492H189.357V4.83729H190.965Z" fill="#999999"/>
<path d="M186.59 9.61763H181.795V0.15625H186.59V1.1492H182.913V4.28408H186.493V5.27703H182.913V8.61049H186.59V9.61763Z" fill="#999999"/>
<path d="M178.239 9.61763H177.135V1.1492H174.926V0.15625H180.462V1.1492H178.239V9.61763Z" fill="#999999"/>
<path d="M171.278 9.78763C170.062 9.78763 169.125 9.31953 168.496 8.59609L169.111 7.73081C169.587 8.31239 170.37 8.7805 171.278 8.7805C172.453 8.7805 172.984 8.04288 172.984 7.23434C172.984 4.93637 168.776 5.53214 168.776 2.48237C168.776 1.0355 169.894 0 171.446 0C172.481 0 173.32 0.354624 173.935 0.992948L173.348 1.84405C172.844 1.27665 172.159 1.00713 171.418 1.00713C170.565 1.00713 169.908 1.57453 169.908 2.42563C169.908 4.42571 174.116 3.98598 174.116 7.16341C174.116 8.55354 173.208 9.78763 171.278 9.78763Z" fill="#999999"/>
<path d="M164.417 9.61763H159.621V0.15625H164.417V1.1492H160.74V4.28408H164.319V5.27703H160.74V8.61049H164.417V9.61763Z" fill="#999999"/>
<path d="M158.224 9.61763H153.736V0.15625H154.855V8.61049H158.224V9.61763Z" fill="#999999"/>
<path d="M149.701 9.61763H146.527V0.15625H149.617C151.085 0.15625 151.924 1.13501 151.924 2.5677C151.924 3.75923 151.309 4.51104 150.498 4.738C151.407 4.87985 152.078 5.92953 152.078 7.06433C152.078 8.59631 151.267 9.61763 149.701 9.61763ZM149.407 4.28408C150.358 4.28408 150.778 3.6032 150.778 2.72373C150.778 1.84426 150.358 1.1492 149.407 1.1492H147.646V4.28408H149.407ZM149.477 8.61049C150.442 8.61049 150.931 7.98636 150.931 6.95085C150.931 6.0572 150.47 5.27703 149.477 5.27703H147.646V8.61049H149.477Z" fill="#999999"/>
<path d="M145.44 9.61763H144.238L143.637 7.4757H140.323L139.722 9.61763H138.52L141.316 0.15625H142.644L145.44 9.61763ZM143.399 6.48275L141.973 1.40453L140.561 6.48275H143.399Z" fill="#999999"/>
<path d="M136.474 9.61763H135.369V1.1492H133.16V0.15625H138.697V1.1492H136.474V9.61763Z" fill="#999999"/>
<path d="M129.513 9.78763C128.296 9.78763 127.36 9.31953 126.73 8.59609L127.346 7.73081C127.821 8.31239 128.604 8.7805 129.513 8.7805C130.687 8.7805 131.218 8.04288 131.218 7.23434C131.218 4.93637 127.01 5.53214 127.01 2.48237C127.01 1.0355 128.129 0 129.68 0C130.715 0 131.554 0.354624 132.169 0.992948L131.582 1.84405C131.079 1.27665 130.394 1.00713 129.653 1.00713C128.8 1.00713 128.143 1.57453 128.143 2.42563C128.143 4.42571 132.351 3.98598 132.351 7.16341C132.351 8.55354 131.442 9.78763 129.513 9.78763Z" fill="#999999"/>
<path d="M122.651 9.61763H117.855V0.15625H122.651V1.1492H118.974V4.28408H122.553V5.27703H118.974V8.61049H122.651V9.61763Z" fill="#999999"/>
<path d="M116.319 9.61763H110.979V8.66724L114.893 1.1492H110.979V0.15625H116.221V1.09246L112.293 8.61049H116.319V9.61763Z" fill="#999999"/>
<path d="M109.445 9.61763H108.326V0.15625H109.445V9.61763Z" fill="#999999"/>
<path d="M106.373 9.61763H105.282V2.1847L102.794 9.61763H102.36L99.8997 2.1847V9.61763H98.7812V0.15625H100.333L102.584 6.87993L104.849 0.15625H106.373V9.61763Z" fill="#999999"/>
<path d="M96.8294 9.61763H95.7109V0.15625H96.8294V9.61763Z" fill="#999999"/>
<path d="M93.7488 9.61763H92.6722L88.8275 2.5677V9.61763H87.709V0.15625H88.8275L92.6303 7.06433V0.15625H93.7488V9.61763Z" fill="#999999"/>
<path d="M85.7552 9.61763H84.6367V0.15625H85.7552V9.61763Z" fill="#999999"/>
<path d="M82.6855 9.61763H81.5949V2.1847L79.1063 9.61763H78.6729L76.2122 2.1847V9.61763H75.0938V0.15625H76.6456L78.8966 6.87993L81.1615 0.15625H82.6855V9.61763Z" fill="#999999"/>
<path d="M66.9217 9.78763C64.6567 9.78763 63.3984 7.63152 63.3984 4.89382C63.3984 2.15612 64.6567 0 66.9217 0C69.1866 0 70.4589 2.15612 70.4589 4.89382C70.4589 7.63152 69.1866 9.78763 66.9217 9.78763ZM66.9217 8.7805C68.4736 8.7805 69.3124 7.04993 69.3124 4.89382C69.3124 2.70933 68.4736 1.00713 66.9217 1.00713C65.3837 1.00713 64.5449 2.70933 64.5449 4.89382C64.5449 7.04993 65.3837 8.7805 66.9217 8.7805Z" fill="#999999"/>
<path d="M60.4229 9.61763H59.3184V1.1492H57.1094V0.15625H62.6459V1.1492H60.4229V9.61763Z" fill="#999999"/>
<path d="M49.3324 9.61763H46.8438V0.15625H49.3324C51.7511 0.15625 53.0793 2.1847 53.0793 4.89403C53.0793 7.61755 51.7511 9.61763 49.3324 9.61763ZM49.3324 8.61049C51.052 8.61049 51.9328 7.02178 51.9328 4.89403C51.9328 2.7521 51.066 1.1492 49.3324 1.1492H47.9622V8.61049H49.3324Z" fill="#999999"/>
<path d="M45.1959 9.61763H40.4004V0.15625H45.1959V1.1492H41.5189V4.28408H45.098V5.27703H41.5189V8.61049H45.1959V9.61763Z" fill="#999999"/>
<path d="M38.4402 9.61763H37.3637L33.5189 2.5677V9.61763H32.4004V0.15625H33.5189L37.3217 7.06433V0.15625H38.4402V9.61763Z" fill="#999999"/>
<path d="M27.8477 9.80182C25.6666 9.80182 24.2266 7.81592 24.2266 4.89382C24.2266 1.97171 25.6666 0 27.8477 0C29.2178 0 30.0706 0.780174 30.6159 1.78731L29.7211 2.25541C29.3296 1.51779 28.7005 1.00713 27.8477 1.00713C26.3517 1.00713 25.373 2.58167 25.373 4.89382C25.373 7.19178 26.3517 8.7805 27.8477 8.7805C28.6306 8.7805 29.2597 8.3975 29.5953 7.98614V5.77328H27.3723V4.78034H30.6578V8.41169C29.9728 9.27697 29.0221 9.80182 27.8477 9.80182Z" fill="#999999"/>
<path d="M22.595 9.61763H21.4766V0.15625H22.595V9.61763Z" fill="#999999"/>
<path d="M17.1182 9.78763C15.9018 9.78763 14.9651 9.31953 14.3359 8.59609L14.9511 7.73081C15.4265 8.31239 16.2094 8.7805 17.1182 8.7805C18.2926 8.7805 18.8239 8.04288 18.8239 7.23434C18.8239 4.93637 14.6156 5.53214 14.6156 2.48237C14.6156 1.0355 15.734 0 17.2859 0C18.3205 0 19.1594 0.354624 19.7746 0.992948L19.1874 1.84405C18.684 1.27665 17.999 1.00713 17.258 1.00713C16.4051 1.00713 15.748 1.57453 15.748 2.42563C15.748 4.42571 19.9563 3.98598 19.9563 7.16341C19.9563 8.55354 19.0475 9.78763 17.1182 9.78763Z" fill="#999999"/>
<path d="M13.2603 9.61763H8.46484V0.15625H13.2603V1.1492H9.58333V4.28408H13.1625V5.27703H9.58333V8.61049H13.2603V9.61763Z" fill="#999999"/>
<path d="M3.06284 9.61763H0.574219V0.15625H3.06284C5.48156 0.15625 6.80976 2.1847 6.80976 4.89403C6.80976 7.61755 5.48156 9.61763 3.06284 9.61763ZM3.06284 8.61049C4.78251 8.61049 5.66332 7.02178 5.66332 4.89403C5.66332 2.7521 4.79649 1.1492 3.06284 1.1492H1.6927V8.61049H3.06284Z" fill="#999999"/>
</svg>
