<svg width="198" height="10" viewBox="0 0 198 10" fill="none" xmlns="http://www.w3.org/2000/svg">
<path d="M187.168 10V0H190.019L196.015 8.28571H196.309V0H198V10H195.149L189.167 1.71429H188.873V10H187.168Z" fill="white"/>
<path d="M175.003 10L172.445 7.8V2.2L175.003 0H181.74L184.298 2.2V7.8L181.74 10H175.003ZM175.786 8.42857H180.957L182.537 7.07143V2.92857L180.957 1.57143H175.786L174.206 2.92857V7.07143L175.786 8.42857Z" fill="white"/>
<path d="M163.473 10V8.5H165.961V1.48571H163.473V0H170.21V1.48571H167.722V8.5H170.21V10H163.473Z" fill="white"/>
<path d="M155.678 10V1.57143H150.828V0H162.289V1.57143H157.439V10H155.678Z" fill="white"/>
<path d="M142.027 10L139.469 7.8V2.2L142.027 0H149.882V1.57143H142.809L141.23 2.92857V7.07143L142.809 8.42857H149.882V10H142.027Z" fill="white"/>
<path d="M132.91 0L138.11 9.41428V10H136.419L135.119 7.58571H128.256L126.942 10H125.293V9.41428L130.478 0H132.91ZM129.109 6.01429H134.266L131.848 1.51429H131.541L129.109 6.01429Z" fill="white"/>
<path d="M112.766 10V0H121.25L123.556 1.97143V4.61429L121.375 6.47143L123.905 9.41428V10H122.13L119.251 6.6H114.527V10H112.766ZM114.527 5.02857H120.453L121.795 3.9V2.68571L120.453 1.57143H114.527V5.02857Z" fill="white"/>
<path d="M104.342 10V1.57143H99.4922V0H110.953V1.57143H106.103V10H104.342Z" fill="white"/>
<path d="M81.6445 10V0H90.3661L92.9239 2.2V7.8L90.3661 10H81.6445ZM83.4056 8.42857H89.5834L91.1628 7.07143V2.92857L89.5834 1.57143H83.4056V8.42857Z" fill="white"/>
<path d="M67.5996 10V0H70.4509L76.447 8.28571H76.7405V0H78.4317V10H75.5804L69.5983 1.71429H69.3048V10H67.5996Z" fill="white"/>
<path d="M60.4182 0L65.6176 9.41428V10H63.9264L62.6266 7.58571H55.7639L54.4501 10H52.8008V9.41428L57.9862 0H60.4182ZM56.6165 6.01429H61.774L59.356 1.51429H59.0485L56.6165 6.01429Z" fill="white"/>
<path d="M36.6426 10V0H44.9728L47.293 1.95714V4.98571L44.9728 6.94286H38.4037V10H36.6426ZM38.4037 5.37143H44.2041L45.5319 4.24286V2.7L44.2041 1.57143H38.4037V5.37143Z" fill="white"/>
<path d="M27.3203 10V8.5H29.8082V1.48571H27.3203V0H34.0572V1.48571H31.5693V8.5H34.0572V10H27.3203Z" fill="white"/>
<path d="M14.4629 10V0H22.9469L25.2531 1.97143V4.61429L23.0727 6.47143L25.6025 9.41428V10H23.8274L20.9482 6.6H16.224V10H14.4629ZM16.224 5.02857H22.1502L23.492 3.9V2.68571L22.1502 1.57143H16.224V5.02857Z" fill="white"/>
<path d="M2.55778 10L0 7.8V2.2L2.55778 0H10.8741V1.57143H3.34049L1.7611 2.92857V7.07143L3.34049 8.42857H8.58185L10.1333 7.08571V5.61429H5.3951V4.11429H11.8944V7.8L9.3366 10H2.55778Z" fill="white"/>
</svg>
