<svg width="689" height="104" viewBox="0 0 689 104" fill="none" xmlns="http://www.w3.org/2000/svg">
<path d="M612.816 103.998V22.5984L563.828 22.5984V0.398438L688.148 0.398437V22.5984L639.16 22.5984V103.998H612.816Z" fill="#BBBBBB"/>
<path d="M434.785 103.998V0.398438L528.913 0.398437L552.889 20.9704V51.1624L531.429 69.5144L556.293 96.1544V103.998H529.209L500.941 72.3264L461.129 72.3264V103.998H434.785ZM461.129 50.4224L516.481 50.4224L526.545 41.9864V30.7384L516.481 22.3024L461.129 22.3024V50.4224Z" fill="#BBBBBB"/>
<path d="M305.703 103.998L278.027 80.9104V23.4864L305.703 0.398437L379.703 0.398437L407.379 23.4864V80.9104L379.703 103.998L305.703 103.998ZM317.543 81.7984L367.863 81.7984L381.035 70.6984V33.6984L367.863 22.5984L317.543 22.5984L304.371 33.6984V70.6984L317.543 81.7984Z" fill="#BBBBBB"/>
<path d="M141.965 103.998L141.965 0.398438L233.873 0.398437L258.293 20.6744V55.4544L233.873 75.7304L168.309 75.7304L168.309 103.998H141.965ZM168.309 53.6784L221.737 53.6784L231.949 45.2424V30.8864L221.737 22.3024L168.309 22.3024V53.6784Z" fill="#BBBBBB"/>
<path d="M2.98714 103.998L2.98714 82.5384L85.1271 82.5384L92.2311 76.6184V68.4784L85.1271 62.5584L22.3751 62.5584L0.619141 44.2064L0.619141 18.7504L22.3751 0.398437L112.359 0.398437V21.8584L34.0671 21.8584L26.9631 27.7784L26.9631 34.8824L34.0671 40.8024L96.8191 40.8024L118.575 59.1544V85.6464L96.8191 103.998L2.98714 103.998Z" fill="#BBBBBB"/>
</svg>
