<svg width="24" height="24" viewBox="0 0 24 24" fill="none" xmlns="http://www.w3.org/2000/svg">
<path fill-rule="evenodd" clip-rule="evenodd" d="M12 23C18.0751 23 23 18.0751 23 12C23 5.92487 18.0751 1 12 1C5.92487 1 1 5.92487 1 12C1 18.0751 5.92487 23 12 23ZM12 24C18.6274 24 24 18.6274 24 12C24 5.37258 18.6274 0 12 0C5.37258 0 0 5.37258 0 12C0 18.6274 5.37258 24 12 24Z" fill="url(#paint0_radial_479_39)"/>
<path d="M16 12C16 14.2091 14.2091 16 12 16C9.79086 16 8 14.2091 8 12C8 9.79086 9.79086 8 12 8C14.2091 8 16 9.79086 16 12Z" fill="white"/>
<defs>
<radialGradient id="paint0_radial_479_39" cx="0" cy="0" r="1" gradientUnits="userSpaceOnUse" gradientTransform="translate(20 24) rotate(-111.161) scale(33.2415)">
<stop offset="0.458333" stop-color="#C4F56A"/>
<stop offset="1" stop-color="white"/>
</radialGradient>
</defs>
</svg>
