<svg width="532" height="84" viewBox="0 0 532 84" fill="none" xmlns="http://www.w3.org/2000/svg">
<path d="M419.592 84L439.027 0H532.001L526.843 22.2H461.46L459.181 31.8H507.768L503.209 51.6H454.622L452.343 61.8H518.925L513.766 84H419.592Z" fill="#404040"/>
<path d="M325.398 84L344.833 0H372.426L358.509 60H412.495L406.976 84H325.398Z" fill="#404040"/>
<path d="M246.947 84L252.945 57.84L226.312 7.8L228.112 0H252.105L268.181 33H272.26L303.931 0H332.244L330.444 7.8L280.538 57.84L274.539 84H246.947Z" fill="#404040"/>
<path d="M137.305 84L151.462 22.8H113.672L118.95 0H222.122L216.844 22.8H179.054L164.898 84H137.305Z" fill="#404040"/>
<path d="M0 84L5.03863 62.4H70.7808L74.6197 59.64L75.5794 55.2L73.42 52.8H24.9532L8.75762 35.64L13.5563 15.12L34.6706 0H111.21L106.171 21.6H42.8284L38.9894 24.36L38.0297 28.2L40.309 30.6H88.7759L104.971 47.76L100.053 68.88L78.9385 84H0Z" fill="#404040"/>
</svg>
