<svg width="201" height="12" viewBox="0 0 201 12" fill="none" xmlns="http://www.w3.org/2000/svg">
<path d="M186.889 9.89399V0H189.843L193.469 6.12014H193.833L197.487 0H200.399V9.89399H198.663V1.72438H198.383L194.715 7.87279H192.559L188.905 1.72438H188.625V9.89399H186.889Z" fill="white"/>
<path d="M173.928 9.89399V0H184.33V1.55477H175.692V4.18375H182.37V5.66784H175.692V8.33922H184.526V9.89399H173.928Z" fill="white"/>
<path d="M165.491 9.89399V1.55477H160.633V0H172.113V1.55477H167.255V9.89399H165.491Z" fill="white"/>
<path d="M149.393 9.89399V8.35336H157.275L158.227 7.5477V6.44523L157.275 5.65371H151.171L149.225 4.01413V1.63958L151.171 0H159.375V1.54064H151.955L150.989 2.33216V3.30742L151.955 4.11307H158.045L159.991 5.75265V8.25442L158.045 9.89399H149.393Z" fill="white"/>
<path d="M141.583 9.89399V6.24735L136.627 0.579505V0H138.391L142.311 4.56537H142.703L146.623 0H148.303V0.579505L143.347 6.24735V9.89399H141.583Z" fill="white"/>
<path d="M125.303 9.89399V8.35336H133.185L134.137 7.5477V6.44523L133.185 5.65371H127.081L125.135 4.01413V1.63958L127.081 0H135.285V1.54064H127.865L126.899 2.33216V3.30742L127.865 4.11307H133.955L135.901 5.75265V8.25442L133.955 9.89399H125.303Z" fill="white"/>
<path d="M106.785 9.89399V0H117.187V1.55477H108.549V4.18375H115.227V5.66784H108.549V8.33922H117.383V9.89399H106.785Z" fill="white"/>
<path d="M96.5698 9.89399L94.0078 7.71731V2.17668L96.5698 0H104.438V1.55477H97.3538L95.7718 2.89753V6.99647L97.3538 8.33922H104.438V9.89399H96.5698Z" fill="white"/>
<path d="M87.4386 0L92.6466 9.31449V9.89399H90.9526L89.6506 7.5053H82.7766L81.4606 9.89399H79.8086V9.31449L85.0026 0H87.4386ZM83.6306 5.95053H88.7966L86.3746 1.49823H86.0666L83.6306 5.95053Z" fill="white"/>
<path d="M67.2598 9.89399V0H75.7578L78.0678 1.95053V4.56537L75.8838 6.40283L78.4178 9.31449V9.89399H76.6398L73.7558 6.53004H69.0238V9.89399H67.2598ZM69.0238 4.97526H74.9598L76.3038 3.85866V2.65724L74.9598 1.55477H69.0238V4.97526Z" fill="white"/>
<path d="M49.418 9.89399V0H51.182V4.12721H54.206L57.986 0H59.722V0.579505L55.76 4.83392L60.072 9.31449V9.89399H58.252L54.304 5.71025H51.182V9.89399H49.418Z" fill="white"/>
<path d="M39.2026 9.89399L36.6406 7.71731V2.17668L39.2026 0H47.0706V1.55477H39.9866L38.4046 2.89753V6.99647L39.9866 8.33922H47.0706V9.89399H39.2026Z" fill="white"/>
<path d="M27.6523 9.89399V8.40989H30.1443V1.46996H27.6523V0H34.4003V1.46996H31.9083V8.40989H34.4003V9.89399H27.6523Z" fill="white"/>
<path d="M17.1411 9.89399L14.5371 7.67491V0H16.3011V6.95406L17.8971 8.31095H21.9291L23.5111 6.95406V0H25.2751V7.67491L22.6851 9.89399H17.1411Z" fill="white"/>
<path d="M9.31 0L11.872 2.17668V7.71731L9.31 9.89399H6.72V12H5.152V9.89399H2.562L0 7.71731V2.17668L2.562 0H9.31ZM10.108 6.99647V2.89753L8.526 1.55477H3.346L1.764 2.89753V6.99647L3.346 8.33922H5.152V6.20495H6.72V8.33922H8.526L10.108 6.99647Z" fill="white"/>
</svg>
