<svg width="202" height="25" viewBox="0 0 202 25" fill="none" xmlns="http://www.w3.org/2000/svg">
<path d="M170.56 24.8339H168.072V15.3672H170.56C172.978 15.3672 174.306 17.3968 174.306 20.1077C174.306 22.8327 172.978 24.8339 170.56 24.8339ZM170.56 23.8262C172.279 23.8262 173.16 22.2366 173.16 20.1077C173.16 17.9645 172.293 16.3607 170.56 16.3607H169.19V23.8262H170.56Z" fill="#999999"/>
<path d="M166.11 24.8339H165.034L161.19 17.78V24.8339H160.072V15.3672H161.19L164.992 22.2792V15.3672H166.11V24.8339Z" fill="#999999"/>
<path d="M158.987 24.8339H157.785L157.184 22.6908H153.871L153.27 24.8339H152.068L154.864 15.3672H156.192L158.987 24.8339ZM156.946 21.6973L155.521 16.6162L154.109 21.6973H156.946Z" fill="#999999"/>
<path d="M150.974 24.8339H149.856V20.4625H146.026V24.8339H144.908V15.3672H146.026V19.469H149.856V15.3672H150.974V24.8339Z" fill="#999999"/>
<path d="M140.257 24.8339H135.463V15.3672H140.257V16.3607H136.581V19.4974H140.159V20.4909H136.581V23.8262H140.257V24.8339Z" fill="#999999"/>
<path d="M133.503 24.8339H132.427L128.583 17.78V24.8339H127.465V15.3672H128.583L132.385 22.2792V15.3672H133.503V24.8339Z" fill="#999999"/>
<path d="M122.298 24.9963C120.033 24.9963 118.775 22.839 118.775 20.0997C118.775 17.3605 120.033 15.2031 122.298 15.2031C124.562 15.2031 125.834 17.3605 125.834 20.0997C125.834 22.839 124.562 24.9963 122.298 24.9963ZM122.298 23.9886C123.849 23.9886 124.688 22.2571 124.688 20.0997C124.688 17.914 123.849 16.2108 122.298 16.2108C120.76 16.2108 119.922 17.914 119.922 20.0997C119.922 22.2571 120.76 23.9886 122.298 23.9886Z" fill="#999999"/>
<path d="M114.134 24.8339H113.016V20.4625H109.187V24.8339H108.068V15.3672H109.187V19.469H113.016V15.3672H114.134V24.8339Z" fill="#999999"/>
<path d="M104.516 24.8339H103.411V16.3607H101.203V15.3672H106.738V16.3607H104.516V24.8339Z" fill="#999999"/>
<path d="M99.8779 24.8339H98.7598V15.3672H99.8779V24.8339Z" fill="#999999"/>
<path d="M95.4914 24.8339H94.3033L92.7798 17.3684L91.2703 24.8339H90.0823L88.0137 15.3672H89.2017L90.7252 23.0882L92.3186 15.3672H93.2551L94.8484 23.0882L96.3719 15.3672H97.56L95.4914 24.8339Z" fill="#999999"/>
<path d="M81.4084 24.9963C80.1924 24.9963 79.2559 24.5279 78.627 23.8041L79.2419 22.9383C79.7172 23.5202 80.4999 23.9886 81.4084 23.9886C82.5825 23.9886 83.1136 23.2506 83.1136 22.4416C83.1136 20.1423 78.9065 20.7384 78.9065 17.6869C78.9065 16.2392 80.0247 15.2031 81.5761 15.2031C82.6104 15.2031 83.449 15.5579 84.064 16.1966L83.477 17.0482C82.9738 16.4805 82.2889 16.2108 81.5482 16.2108C80.6956 16.2108 80.0386 16.7786 80.0386 17.6301C80.0386 19.6313 84.2457 19.1914 84.2457 22.3706C84.2457 23.7615 83.3372 24.9963 81.4084 24.9963Z" fill="#999999"/>
<path d="M77.5519 24.8339H72.7578V15.3672H77.5519V16.3607H73.876V19.4974H77.4541V20.4909H73.876V23.8262H77.5519V24.8339Z" fill="#999999"/>
<path d="M67.5906 24.9963C65.3263 24.9963 64.0684 22.839 64.0684 20.0997C64.0684 17.3605 65.3263 15.2031 67.5906 15.2031C69.8549 15.2031 71.1268 17.3605 71.1268 20.0997C71.1268 22.839 69.8549 24.9963 67.5906 24.9963ZM67.5906 23.9886C69.142 23.9886 69.9807 22.2571 69.9807 20.0997C69.9807 17.914 69.142 16.2108 67.5906 16.2108C66.0531 16.2108 65.2145 17.914 65.2145 20.0997C65.2145 22.2571 66.0531 23.9886 67.5906 23.9886Z" fill="#999999"/>
<path d="M62.4313 24.8339H61.3131V20.4625H57.4834V24.8339H56.3652V15.3672H57.4834V19.469H61.3131V15.3672H62.4313V24.8339Z" fill="#999999"/>
<path d="M52.008 24.9963C50.792 24.9963 49.8555 24.5279 49.2266 23.8041L49.8416 22.9383C50.3168 23.5202 51.0995 23.9886 52.008 23.9886C53.1821 23.9886 53.7132 23.2506 53.7132 22.4416C53.7132 20.1423 49.5061 20.7384 49.5061 17.6869C49.5061 16.2392 50.6243 15.2031 52.1757 15.2031C53.21 15.2031 54.0486 15.5579 54.6636 16.1966L54.0766 17.0482C53.5734 16.4805 52.8885 16.2108 52.1478 16.2108C51.2952 16.2108 50.6382 16.7786 50.6382 17.6301C50.6382 19.6313 54.8453 19.1914 54.8453 22.3706C54.8453 23.7615 53.9368 24.9963 52.008 24.9963Z" fill="#999999"/>
<path d="M45.1476 24.8339H40.3535V15.3672H45.1476V16.3607H41.4717V19.4974H45.0498V20.4909H41.4717V23.8262H45.1476V24.8339Z" fill="#999999"/>
<path d="M35.9982 24.9963C34.7822 24.9963 33.8458 24.5279 33.2168 23.8041L33.8318 22.9383C34.307 23.5202 35.0897 23.9886 35.9982 23.9886C37.1723 23.9886 37.7034 23.2506 37.7034 22.4416C37.7034 20.1423 33.4963 20.7384 33.4963 17.6869C33.4963 16.2392 34.6145 15.2031 36.166 15.2031C37.2003 15.2031 38.0389 15.5579 38.6539 16.1966L38.0668 17.0482C37.5637 16.4805 36.8788 16.2108 36.138 16.2108C35.2854 16.2108 34.6285 16.7786 34.6285 17.6301C34.6285 19.6313 38.8356 19.1914 38.8356 22.3706C38.8356 23.7615 37.9271 24.9963 35.9982 24.9963Z" fill="#999999"/>
<path d="M32.7975 24.8339H31.5955L30.9945 22.6908H27.6819L27.0809 24.8339H25.8789L28.6743 15.3672H30.0021L32.7975 24.8339ZM30.7569 21.6973L29.3312 16.6162L27.9196 21.6973H30.7569Z" fill="#999999"/>
<path d="M25.0969 24.8339H20.3027V15.3672H25.0969V16.3607H21.4209V19.4974H24.999V20.4909H21.4209V23.8262H25.0969V24.8339Z" fill="#999999"/>
<path d="M18.9066 24.8339H14.4199V15.3672H15.5381V23.8262H18.9066V24.8339Z" fill="#999999"/>
<path d="M12.7707 24.8339H7.97656V15.3672H12.7707V16.3607H9.09473V19.4974H12.6728V20.4909H9.09473V23.8262H12.7707V24.8339Z" fill="#999999"/>
<path d="M6.37219 24.8339H5.11425L3.32519 21.0444H1.9834V24.8339H0.865234V15.3672H3.71655C5.21209 15.3672 6.27435 16.4601 6.27435 18.1916C6.27435 19.8806 5.33789 20.7038 4.4154 20.8741L6.37219 24.8339ZM3.59076 20.0509C4.55517 20.0509 5.12823 19.2845 5.12823 18.2058C5.12823 17.1271 4.55517 16.3607 3.59076 16.3607H1.9834V20.0509H3.59076Z" fill="#999999"/>
<path d="M198.254 9.623H195.766V0.15625H198.254C200.672 0.15625 201.999 2.18585 201.999 4.89672C201.999 7.62178 200.672 9.623 198.254 9.623ZM198.254 8.61529C199.973 8.61529 200.853 7.02567 200.853 4.89672C200.853 2.75357 199.987 1.14976 198.254 1.14976H196.884V8.61529H198.254Z" fill="#999999"/>
<path d="M193.806 9.623H192.729L188.886 2.56906V9.623H187.768V0.15625H188.886L192.688 7.06825V0.15625H193.806V9.623Z" fill="#999999"/>
<path d="M186.682 9.623H185.48L184.879 7.47985H181.567L180.966 9.623H179.764L182.559 0.15625H183.887L186.682 9.623ZM184.642 6.48634L183.216 1.40524L181.804 6.48634H184.642Z" fill="#999999"/>
<path d="M176.47 9.623H175.128L172.403 5.45025L171.634 6.58569V9.623H170.516V0.15625H171.634V5.06704L174.89 0.15625H176.204L173.087 4.65544L176.47 9.623Z" fill="#999999"/>
<path d="M166.362 9.79319C164.14 9.79319 162.742 7.72101 162.742 4.89659C162.742 2.05799 164.14 0 166.362 0C167.774 0 168.585 0.865775 169.088 1.84509L168.165 2.28508C167.788 1.51865 167.173 1.0077 166.362 1.0077C164.853 1.0077 163.888 2.6541 163.888 4.89659C163.888 7.13909 164.853 8.78548 166.362 8.78548C167.215 8.78548 167.83 8.18938 168.179 7.38037L169.116 7.82036C168.599 8.87064 167.802 9.79319 166.362 9.79319Z" fill="#999999"/>
<path d="M157.895 9.79319C155.631 9.79319 154.373 7.63585 154.373 4.89659C154.373 2.15734 155.631 0 157.895 0C160.16 0 161.431 2.15734 161.431 4.89659C161.431 7.63585 160.16 9.79319 157.895 9.79319ZM157.895 8.78548C159.447 8.78548 160.285 7.05393 160.285 4.89659C160.285 2.71087 159.447 1.0077 157.895 1.0077C156.358 1.0077 155.519 2.71087 155.519 4.89659C155.519 7.05393 156.358 8.78548 157.895 8.78548Z" fill="#999999"/>
<path d="M153.735 9.623H149.248V0.15625H150.366V8.61529H153.735V9.623Z" fill="#999999"/>
<path d="M142.333 9.623H141.229V5.62057L138.35 0.15625H139.594L141.788 4.5277L143.982 0.15625H145.212L142.333 5.62057V9.623Z" fill="#999999"/>
<path d="M139.2 9.623H134.713V0.15625H135.831V8.61529H139.2V9.623Z" fill="#999999"/>
<path d="M132.759 9.623H131.641V0.15625H132.759V9.623Z" fill="#999999"/>
<path d="M127.285 9.79319C126.069 9.79319 125.133 9.32482 124.504 8.60097L125.119 7.7352C125.594 8.31711 126.377 8.78548 127.285 8.78548C128.459 8.78548 128.991 8.04745 128.991 7.23844C128.991 4.93917 124.783 5.53528 124.783 2.48378C124.783 1.03609 125.902 0 127.453 0C128.487 0 129.326 0.354825 129.941 0.993512L129.354 1.84509C128.851 1.27737 128.166 1.0077 127.425 1.0077C126.573 1.0077 125.916 1.57543 125.916 2.42701C125.916 4.42822 130.123 3.98824 130.123 7.16748C130.123 8.55839 129.214 9.79319 127.285 9.79319Z" fill="#999999"/>
<path d="M124.085 9.623H122.883L122.282 7.47985H118.969L118.368 9.623H117.166L119.961 0.15625H121.289L124.085 9.623ZM122.044 6.48634L120.618 1.40524L119.207 6.48634H122.044Z" fill="#999999"/>
<path d="M116.384 9.623H111.59V0.15625H116.384V1.14976H112.708V4.28642H116.286V5.27993H112.708V8.61529H116.384V9.623Z" fill="#999999"/>
<path d="M106.626 9.623H105.55L101.706 2.56906V9.623H100.588V0.15625H101.706L105.508 7.06825V0.15625H106.626V9.623Z" fill="#999999"/>
<path d="M99.5026 9.623H98.3006L97.6996 7.47985H94.387L93.786 9.623H92.584L95.3794 0.15625H96.7072L99.5026 9.623ZM97.462 6.48634L96.0363 1.40524L94.6246 6.48634H97.462Z" fill="#999999"/>
<path d="M89.3251 9.79319C87.1028 9.79319 85.7051 7.72101 85.7051 4.89659C85.7051 2.05799 87.1028 0 89.3251 0C90.7368 0 91.5475 0.865775 92.0507 1.84509L91.1282 2.28508C90.7508 1.51865 90.1358 1.0077 89.3251 1.0077C87.8156 1.0077 86.8512 2.6541 86.8512 4.89659C86.8512 7.13909 87.8156 8.78548 89.3251 8.78548C90.1777 8.78548 90.7927 8.18938 91.1422 7.38037L92.0786 7.82036C91.5615 8.87064 90.7648 9.79319 89.3251 9.79319Z" fill="#999999"/>
<path d="M79.4688 9.623H78.3646V1.14976H76.1562V0.15625H81.6912V1.14976H79.4688V9.623Z" fill="#999999"/>
<path d="M76.3405 9.623H75.1385L74.5375 7.47985H71.2249L70.6239 9.623H69.4219L72.2173 0.15625H73.5451L76.3405 9.623ZM74.2999 6.48634L72.8742 1.40524L71.4625 6.48634H74.2999Z" fill="#999999"/>
<path d="M68.3278 9.623H67.2096V5.25155H63.3799V9.623H62.2617V0.15625H63.3799V4.25803H67.2096V0.15625H68.3278V9.623Z" fill="#999999"/>
<path d="M58.7071 9.623H57.6029V1.14976H55.3945V0.15625H60.9294V1.14976H58.7071V9.623Z" fill="#999999"/>
<path d="M51.068 9.623H49.9778V2.18585L47.4899 9.623H47.0566L44.5967 2.18585V9.623H43.4785V0.15625H45.03L47.2803 6.88375L49.5445 0.15625H51.068V9.623Z" fill="#999999"/>
<path d="M41.8312 9.623H37.0371V0.15625H41.8312V1.14976H38.1553V4.28642H41.7334V5.27993H38.1553V8.61529H41.8312V9.623Z" fill="#999999"/>
<path d="M33.4844 9.623H32.3802V1.14976H30.1719V0.15625H35.7068V1.14976H33.4844V9.623Z" fill="#999999"/>
<path d="M26.5256 9.79319C25.3096 9.79319 24.3731 9.32482 23.7441 8.60097L24.3591 7.7352C24.8343 8.31711 25.6171 8.78548 26.5256 8.78548C27.6996 8.78548 28.2308 8.04745 28.2308 7.23844C28.2308 4.93917 24.0237 5.53528 24.0237 2.48378C24.0237 1.03609 25.1418 0 26.6933 0C27.7276 0 28.5662 0.354825 29.1812 0.993512L28.5942 1.84509C28.091 1.27737 27.4061 1.0077 26.6653 1.0077C25.8127 1.0077 25.1558 1.57543 25.1558 2.42701C25.1558 4.42822 29.3629 3.98824 29.3629 7.16748C29.3629 8.55839 28.4544 9.79319 26.5256 9.79319Z" fill="#999999"/>
<path d="M20.5518 9.623H19.4476V5.62057L16.5684 0.15625H17.8123L20.0067 4.5277L22.2011 0.15625H23.4311L20.5518 5.62057V9.623Z" fill="#999999"/>
<path d="M13.215 9.79319C11.999 9.79319 11.0626 9.32482 10.4336 8.60097L11.0486 7.7352C11.5238 8.31711 12.3065 8.78548 13.215 8.78548C14.3891 8.78548 14.9202 8.04745 14.9202 7.23844C14.9202 4.93917 10.7131 5.53528 10.7131 2.48378C10.7131 1.03609 11.8313 0 13.3827 0C14.417 0 15.2557 0.354825 15.8707 0.993512L15.2836 1.84509C14.7805 1.27737 14.0956 1.0077 13.3548 1.0077C12.5022 1.0077 11.8453 1.57543 11.8453 2.42701C11.8453 4.42822 16.0524 3.98824 16.0524 7.16748C16.0524 8.55839 15.1439 9.79319 13.215 9.79319Z" fill="#999999"/>
<path d="M6.91863 9.623H5.71661L5.11559 7.47985H1.80304L1.20203 9.623H0L2.79541 0.15625H4.12323L6.91863 9.623ZM4.87799 6.48634L3.45233 1.40524L2.04065 6.48634H4.87799Z" fill="#999999"/>
</svg>
