<svg width="780" height="86" viewBox="0 0 780 86" fill="none" xmlns="http://www.w3.org/2000/svg">
<path fill-rule="evenodd" clip-rule="evenodd" d="M698.316 86V0H721.676V65.28H779.996V86H698.316ZM720.676 66.28V1H699.316V85H778.996V66.28H720.676Z" fill="white"/>
<path fill-rule="evenodd" clip-rule="evenodd" d="M586.988 86V0H680.068V19.76H610.348V33.6H663.268V51.8H610.348V66.24H681.508V86H586.988ZM609.348 67.24V50.8H662.268V34.6H609.348V18.76H679.068V1H587.988V85H680.508V67.24H609.348Z" fill="white"/>
<path fill-rule="evenodd" clip-rule="evenodd" d="M467.926 86V0H545.616L565.686 17.2204V42.6206L548.729 57.1212L568.446 78.2458V86H545.038L522.118 60.32H491.286V86H467.926ZM490.286 59.32H522.566L545.486 85H567.446V78.64L547.286 57.04L564.686 42.16V17.68L545.246 1H468.926V85H490.286V59.32ZM534.802 40.56L542.326 34.2534V26.0666L534.802 19.76H491.286V40.56H534.802ZM490.286 18.76H535.166L543.326 25.6V34.72L535.166 41.56H490.286V18.76Z" fill="white"/>
<path fill-rule="evenodd" clip-rule="evenodd" d="M410.839 0L454.813 78.3786V86H432.457L423.457 69.32H368.37L359.37 86H337.613V78.3793L381.467 0H410.839ZM367.773 68.32H424.053L433.053 85H453.813V78.64L410.253 1H382.053L338.613 78.64V85H358.773L367.773 68.32ZM414.453 50.32L397.533 18.76H394.413L377.373 50.32H414.453ZM379.05 49.32H412.783L396.935 19.76H395.01L379.05 49.32Z" fill="white"/>
<path fill-rule="evenodd" clip-rule="evenodd" d="M243.98 86V0H319.861L340.3 16.9705V46.1095L319.861 63.08H267.34V86H243.98ZM266.34 62.08H319.5L339.3 45.64V17.44L319.5 1H244.98V85H266.34V62.08ZM309.301 43.2L316.94 36.889V26.1858L309.296 19.76H267.34V43.2H309.301ZM266.34 18.76H309.66L317.94 25.72V37.36L309.66 44.2H266.34V18.76Z" fill="white"/>
<path fill-rule="evenodd" clip-rule="evenodd" d="M130.66 86V0H206.541L226.98 16.9705V46.1095L206.541 63.08H154.02V86H130.66ZM153.02 62.08H206.18L225.98 45.64V17.44L206.18 1H131.66V85H153.02V62.08ZM195.981 43.2L203.62 36.889V26.1858L195.976 19.76H154.02V43.2H195.981ZM153.02 18.76H196.34L204.62 25.72V37.36L196.34 44.2H153.02V18.76Z" fill="white"/>
<path fill-rule="evenodd" clip-rule="evenodd" d="M73.5732 0L117.548 78.3786V86H95.191L86.191 69.32H31.1044L22.1044 86H0.347656V78.3793L44.2013 0H73.5732ZM30.5077 68.32H86.7877L95.7877 85H116.548V78.64L72.9877 1H44.7877L1.34766 78.64V85H21.5077L30.5077 68.32ZM77.1877 50.32L60.2677 18.76H57.1477L40.1077 50.32H77.1877ZM41.784 49.32H75.5169L59.6691 19.76H57.7442L41.784 49.32Z" fill="white"/>
</svg>
