<svg width="1640" height="1081" viewBox="0 0 1640 1081" fill="none" xmlns="http://www.w3.org/2000/svg">
<path fill-rule="evenodd" clip-rule="evenodd" d="M410 1080L410 1L411 1L411 1080L410 1080Z" fill="#404040" fill-opacity="0.8"/>
<path fill-rule="evenodd" clip-rule="evenodd" d="M1639 1081L1639 2L1640 2L1640 1081L1639 1081Z" fill="#404040" fill-opacity="0.8"/>
<path fill-rule="evenodd" clip-rule="evenodd" d="M1229 1081L1229 2L1230 2L1230 1081L1229 1081Z" fill="#404040" fill-opacity="0.8"/>
<path fill-rule="evenodd" clip-rule="evenodd" d="M-4.72083e-05 1080L0 -4.37114e-08L1 0L0.999953 1080L-4.72083e-05 1080Z" fill="#404040" fill-opacity="0.8"/>
<path fill-rule="evenodd" clip-rule="evenodd" d="M820 1080L820 1L821 1L821 1080L820 1080Z" fill="#404040" fill-opacity="0.8"/>
<path fill-rule="evenodd" clip-rule="evenodd" d="M820 125L411.236 833H1228.76L820 125ZM820 127L412.968 832H1227.03L820 127Z" fill="#404040" fill-opacity="0.8"/>
</svg>
