<svg width="1273" height="84" viewBox="0 0 1273 84" fill="none" xmlns="http://www.w3.org/2000/svg">
<path d="M1174.55 84V0H1206.47L1249.07 62.4H1251.83V0H1272.35V84H1240.43L1197.83 21.6H1195.07V84H1174.55Z" fill="white"/>
<path d="M1069.89 84L1047.45 65.28V18.72L1069.89 0H1129.89L1152.33 18.72V65.28L1129.89 84H1069.89ZM1079.49 66H1120.29L1130.97 57V27L1120.29 18H1079.49L1068.81 27V57L1079.49 66Z" fill="white"/>
<path d="M966.305 84V66.84H987.785V17.16H966.305V0H1030.62V17.16H1009.14V66.84H1030.62V84H966.305Z" fill="white"/>
<path d="M896.212 84V18H856.492V0H957.292V18H917.572V84H896.212Z" fill="white"/>
<path d="M780.674 84L758.234 65.28V18.72L780.674 0H848.834V18H790.274L779.594 27V57L790.274 66H848.834V84H780.674Z" fill="white"/>
<path d="M652.25 84V0H743.33V17.76H673.61V33.6H726.53V49.8H673.61V66.24H744.77V84H652.25Z" fill="white"/>
<path d="M539.568 84V66.6H606.168L611.928 61.8V55.2L606.168 50.4H555.288L537.648 35.52V14.88L555.288 0H628.248V17.4H564.768L559.008 22.2V27.96L564.768 32.76H615.648L633.288 47.64V69.12L615.648 84H539.568Z" fill="white"/>
<path d="M423.383 84V0H499.703L519.143 16.68V41.16L501.743 56.04L521.903 77.64V84H499.943L477.023 58.32H444.743V84H423.383ZM444.743 40.56H489.623L497.783 33.72V24.6L489.623 17.76H444.743V40.56Z" fill="white"/>
<path d="M312.055 84V0H403.135V17.76H333.415V33.6H386.335V49.8H333.415V66.24H404.575V84H312.055Z" fill="white"/>
<path d="M236.564 84V18H196.844V0H297.644V18H257.924V84H236.564Z" fill="white"/>
<path d="M84.5938 84V0H116.514L159.114 62.4H161.874V0H182.394V84H150.474L107.874 21.6H105.114V84H84.5938Z" fill="white"/>
<path d="M0.445312 84V66.84H21.9253V17.16H0.445312V0H64.7653V17.16H43.2853V66.84H64.7653V84H0.445312Z" fill="white"/>
</svg>
