<svg width="904" height="84" viewBox="0 0 904 84" fill="none" xmlns="http://www.w3.org/2000/svg">
<path d="M809.912 84V66.6H876.512L882.272 61.8V55.2L876.512 50.4H825.632L807.992 35.52V14.88L825.632 0H898.592V17.4H835.112L829.352 22.2V27.96L835.112 32.76H885.992L903.632 47.64V69.12L885.992 84H809.912Z" fill="white"/>
<path d="M693.727 84V0H770.047L789.487 16.68V41.16L772.087 56.04L792.247 77.64V84H770.287L747.367 58.32H715.087V84H693.727ZM715.087 40.56H759.967L768.127 33.72V24.6L759.967 17.76H715.087V40.56Z" fill="white"/>
<path d="M582.398 84V0H673.478V17.76H603.758V33.6H656.678V49.8H603.758V66.24H674.918V84H582.398Z" fill="white"/>
<path d="M470.016 84V0H491.376V32.16H511.656L541.776 0H563.376V6.36L529.896 40.92L566.376 77.64V84H543.576L512.136 50.88H491.376V84H470.016Z" fill="white"/>
<path d="M411.343 0L454.903 77.64V84H434.143L425.143 67.32H368.863L359.863 84H339.703V77.64L383.143 0H411.343ZM378.463 49.32H415.543L398.623 17.76H395.503L378.463 49.32Z" fill="white"/>
<path d="M238.453 84V0H329.533V17.76H259.813V33.6H312.733V49.8H259.813V66.24H330.973V84H238.453Z" fill="white"/>
<path d="M115.406 84V0H147.326L189.926 62.4H192.686V0H213.206V84H181.286L138.686 21.6H135.926V84H115.406Z" fill="white"/>
<path d="M2.72469 84V66.6H69.3247L75.0847 61.8V55.2L69.3247 50.4H18.4447L0.804688 35.52V14.88L18.4447 0H91.4047V17.4H27.9247L22.1647 22.2V27.96L27.9247 32.76H78.8047L96.4447 47.64V69.12L78.8047 84H2.72469Z" fill="white"/>
</svg>
