<svg width="906" height="86" viewBox="0 0 906 86" fill="none" xmlns="http://www.w3.org/2000/svg">
<path fill-rule="evenodd" clip-rule="evenodd" d="M809.916 86V66.6H877.154L882.276 62.3316V56.6684L877.154 52.4H826.271L807.996 36.9847V15.4153L826.271 0H900.596V19.4H836.478L831.356 23.6684V28.4916L836.478 32.76H887.362L905.636 48.1753V70.5847L887.362 86H809.916ZM836.116 33.76L830.356 28.96V23.2L836.116 18.4H899.596V1H826.636L808.996 15.88V36.52L826.636 51.4H877.516L883.276 56.2V62.8L877.516 67.6H810.916V85H886.996L904.636 70.12V48.64L886.996 33.76H836.116Z" fill="white"/>
<path fill-rule="evenodd" clip-rule="evenodd" d="M693.734 86V0H771.425L791.494 17.2204V42.6206L774.538 57.1212L794.254 78.2458V86H770.847L747.927 60.32H717.094V86H693.734ZM716.094 59.32H748.374L771.294 85H793.254V78.64L773.094 57.04L790.494 42.16V17.68L771.054 1H694.734V85H716.094V59.32ZM760.611 40.56L768.134 34.2534V26.0666L760.611 19.76H717.094V40.56H760.611ZM716.094 18.76H760.974L769.134 25.6V34.72L760.974 41.56H716.094V18.76Z" fill="white"/>
<path fill-rule="evenodd" clip-rule="evenodd" d="M582.406 86V0H675.486V19.76H605.766V33.6H658.686V51.8H605.766V66.24H676.926V86H582.406ZM604.766 67.24V50.8H657.686V34.6H604.766V18.76H674.486V1H583.406V85H675.926V67.24H604.766Z" fill="white"/>
<path fill-rule="evenodd" clip-rule="evenodd" d="M470.023 86V0H493.383V32.16H512.23L542.35 0H565.383V7.76495L532.304 41.9112L568.383 78.2277V86H544.154L512.714 52.88H493.383V86H470.023ZM492.383 51.88H513.143L544.583 85H567.383V78.64L530.903 41.92L564.383 7.36V1H542.783L512.663 33.16H492.383V1H471.023V85H492.383V51.88Z" fill="white"/>
<path fill-rule="evenodd" clip-rule="evenodd" d="M412.933 0L456.907 78.3786V86H434.55L425.55 69.32H370.464L361.464 86H339.707V78.3793L383.561 0H412.933ZM369.867 68.32H426.147L435.147 85H455.907V78.64L412.347 1H384.147L340.707 78.64V85H360.867L369.867 68.32ZM416.547 50.32L399.627 18.76H396.507L379.467 50.32H416.547ZM381.143 49.32H414.876L399.029 19.76H397.104L381.143 49.32Z" fill="white"/>
<path fill-rule="evenodd" clip-rule="evenodd" d="M238.461 86V0H331.541V19.76H261.821V33.6H314.741V51.8H261.821V66.24H332.981V86H238.461ZM260.821 67.24V50.8H313.741V34.6H260.821V18.76H330.541V1H239.461V85H331.981V67.24H260.821Z" fill="white"/>
<path fill-rule="evenodd" clip-rule="evenodd" d="M115.414 86V0H148.862L191.462 62.4H192.694V0H215.214V86H181.766L139.166 23.6H137.934V86H115.414ZM136.934 22.6H139.694L182.294 85H214.214V1H193.694V63.4H190.934L148.334 1H116.414V85H136.934V22.6Z" fill="white"/>
<path fill-rule="evenodd" clip-rule="evenodd" d="M2.72859 86V66.6H69.9666L75.0886 62.3316V56.6684L69.9665 52.4H19.0832L0.808594 36.9847V15.4153L19.0832 0H93.4086V19.4H29.2906L24.1686 23.6684V28.4916L29.2906 32.76H80.174L98.4486 48.1753V70.5847L80.174 86H2.72859ZM28.9286 33.76L23.1686 28.96V23.2L28.9286 18.4H92.4086V1H19.4486L1.80859 15.88V36.52L19.4486 51.4H70.3286L76.0886 56.2V62.8L70.3286 67.6H3.72859V85H79.8086L97.4486 70.12V48.64L79.8086 33.76H28.9286Z" fill="white"/>
</svg>
