<svg width="914" height="84" viewBox="0 0 914 84" fill="none" xmlns="http://www.w3.org/2000/svg">
<path d="M813.727 84V0H891.007L913.447 18.72V65.28L891.007 84H813.727ZM835.087 66H881.407L892.087 57V27L881.407 18H835.087V66Z" fill="white"/>
<path d="M702.398 84V0H793.478V17.76H723.758V33.6H776.678V49.8H723.758V66.24H794.918V84H702.398Z" fill="white"/>
<path d="M615.784 84L593.344 65.28V18.72L615.784 0H683.944V18H625.384L614.704 27V57L625.384 66H683.944V84H615.784Z" fill="white"/>
<path d="M473.297 84V0H505.217L547.817 62.4H550.577V0H571.097V84H539.177L496.577 21.6H493.817V84H473.297Z" fill="white"/>
<path d="M361.969 84V0H453.049V17.76H383.329V33.6H436.249V49.8H383.329V66.24H454.489V84H361.969Z" fill="white"/>
<path d="M277.777 84L239.977 6.36V0H260.737L291.217 64.92H295.657L326.737 0H346.897V6.36L308.497 84H277.777Z" fill="white"/>
<path d="M130.523 84V0H207.803L230.243 18.72V65.28L207.803 84H130.523ZM151.883 66H198.203L208.883 57V27L198.203 18H151.883V66Z" fill="white"/>
<path d="M71.8509 0L115.411 77.64V84H94.6509L85.6509 67.32H29.3709L20.3709 84H0.210938V77.64L43.6509 0H71.8509ZM38.9709 49.32H76.0509L59.1309 17.76H56.0109L38.9709 49.32Z" fill="white"/>
</svg>
