<svg width="153" height="41" viewBox="0 0 153 41" fill="none" xmlns="http://www.w3.org/2000/svg">
<path fill-rule="evenodd" clip-rule="evenodd" d="M152 1H1V40H152V1ZM0 0V41H153V0H0Z" fill="white"/>
<path d="M112.463 25.9982H110.375L108.647 17.3762L106.937 25.9982H104.849L102.131 13.9922H104.273L106.001 22.9562L107.855 13.9922H109.457L111.329 22.9562L113.039 13.9922H115.181L112.463 25.9982Z" fill="white"/>
<path d="M96.6497 26.2169C93.6077 26.2169 91.8438 23.5349 91.8438 20.0069C91.8438 16.4789 93.6077 13.7969 96.6497 13.7969C99.6917 13.7969 101.456 16.4789 101.456 20.0069C101.456 23.5349 99.6917 26.2169 96.6497 26.2169ZM96.6497 24.4349C98.4317 24.4349 99.4217 22.4909 99.4217 20.0069C99.4217 17.4869 98.4317 15.5609 96.6497 15.5609C94.8497 15.5609 93.8778 17.4869 93.8778 20.0069C93.8778 22.4909 94.8497 24.4349 96.6497 24.4349Z" fill="white"/>
<path d="M89.9926 25.9982H88.0846L83.6386 18.2402V25.9982H81.6406V13.9922H83.6566L87.9946 21.5342V13.9922H89.9926V25.9982Z" fill="white"/>
<path d="M70.5957 25.9982H68.5977V13.9922H72.6837C75.0417 13.9922 76.2297 15.7202 76.2297 17.7182C76.2297 19.7342 75.0417 21.4622 72.6837 21.4622H70.5957V25.9982ZM72.4497 19.6982C73.5117 19.6982 74.1957 18.9062 74.1957 17.7182C74.1957 16.5302 73.5117 15.7382 72.4497 15.7382H70.5957V19.6982H72.4497Z" fill="white"/>
<path d="M61.933 26.2169C58.891 26.2169 57.127 23.5349 57.127 20.0069C57.127 16.4789 58.891 13.7969 61.933 13.7969C64.975 13.7969 66.739 16.4789 66.739 20.0069C66.739 23.5349 64.975 26.2169 61.933 26.2169ZM61.933 24.4349C63.715 24.4349 64.705 22.4909 64.705 20.0069C64.705 17.4869 63.715 15.5609 61.933 15.5609C60.133 15.5609 59.161 17.4869 59.161 20.0069C59.161 22.4909 60.133 24.4349 61.933 24.4349Z" fill="white"/>
<path d="M55.2943 25.9982H53.2962V20.7062H48.9043V25.9982H46.9062V13.9922H48.9043V18.9422H53.2962V13.9922H55.2943V25.9982Z" fill="white"/>
<path d="M41.2665 26.2169C39.5565 26.2169 38.2785 25.6229 37.3965 24.6869L38.4045 23.1389C39.0525 23.8769 40.0785 24.4349 41.2665 24.4349C42.5085 24.4349 43.1385 23.6969 43.1385 22.8509C43.1385 20.3849 37.7565 21.1409 37.7565 17.1449C37.7565 15.2729 39.2145 13.7969 41.4825 13.7969C42.8865 13.7969 44.0745 14.2649 44.9385 15.0929L43.9665 16.6049C43.2645 15.9029 42.3645 15.5789 41.4285 15.5789C40.4565 15.5789 39.7905 16.1549 39.7905 17.0369C39.7905 19.1789 45.1725 18.6569 45.1725 22.6889C45.1725 24.6509 43.8405 26.2169 41.2665 26.2169Z" fill="white"/>
</svg>
