<svg width="794" height="104" viewBox="0 0 794 104" fill="none" xmlns="http://www.w3.org/2000/svg">
<path d="M704.32 94V10H725.68V75.28H784V94H704.32Z" fill="white"/>
<path d="M592.992 94V10H684.072V27.76H614.352V43.6H667.272V59.8H614.352V76.24H685.512V94H592.992Z" fill="white"/>
<path d="M473.93 94V10H550.25L569.69 26.68V51.16L552.29 66.04L572.45 87.64V94H550.49L527.57 68.32H495.29V94H473.93ZM495.29 50.56H540.17L548.33 43.72V34.6L540.17 27.76H495.29V50.56Z" fill="white"/>
<path d="M415.255 10L458.815 87.64V94H438.055L429.055 77.32H372.775L363.775 94H343.615V87.64L387.055 10H415.255ZM382.375 59.32H419.455L402.535 27.76H399.415L382.375 59.32Z" fill="white"/>
<path d="M249.984 94V10H324.504L344.304 26.44V54.64L324.504 71.08H271.344V94H249.984ZM271.344 53.2H314.664L322.944 46.36V34.72L314.664 27.76H271.344V53.2Z" fill="white"/>
<path d="M136.664 94V10H211.184L230.984 26.44V54.64L211.184 71.08H158.024V94H136.664ZM158.024 53.2H201.344L209.624 46.36V34.72L201.344 27.76H158.024V53.2Z" fill="white"/>
<path d="M77.9896 10L121.55 87.64V94H100.79L91.7896 77.32H35.5096L26.5096 94H6.34961V87.64L49.7896 10H77.9896ZM45.1096 59.32H82.1896L65.2696 27.76H62.1496L45.1096 59.32Z" fill="white"/>
</svg>
