<svg width="154" height="42" viewBox="0 0 154 42" fill="none" xmlns="http://www.w3.org/2000/svg">
<path d="M0.09375 0.8125H153.094V41.8125H0.09375V0.8125Z" fill="#C4F56A"/>
<path d="M124.71 27.8127H121.926L119.622 16.3167L117.342 27.8127H114.558L110.934 11.8047H113.79L116.094 23.7567L118.566 11.8047H120.702L123.198 23.7567L125.478 11.8047H128.334L124.71 27.8127Z" fill="black"/>
<path d="M103.623 28.0991C99.5668 28.0991 97.2148 24.5231 97.2148 19.8191C97.2148 15.1151 99.5668 11.5391 103.623 11.5391C107.679 11.5391 110.031 15.1151 110.031 19.8191C110.031 24.5231 107.679 28.0991 103.623 28.0991ZM103.623 25.7231C105.999 25.7231 107.319 23.1311 107.319 19.8191C107.319 16.4591 105.999 13.8911 103.623 13.8911C101.223 13.8911 99.9268 16.4591 99.9268 19.8191C99.9268 23.1311 101.223 25.7231 103.623 25.7231Z" fill="black"/>
<path d="M94.7493 27.8127H92.2053L86.2773 17.4687V27.8127H83.6133V11.8047H86.3013L92.0853 21.8607V11.8047H94.7493V27.8127Z" fill="black"/>
<path d="M68.8867 27.8127H66.2227V11.8047H71.6707C74.8147 11.8047 76.3987 14.1087 76.3987 16.7727C76.3987 19.4607 74.8147 21.7647 71.6707 21.7647H68.8867V27.8127ZM71.3587 19.4127C72.7747 19.4127 73.6867 18.3567 73.6867 16.7727C73.6867 15.1887 72.7747 14.1327 71.3587 14.1327H68.8867V19.4127H71.3587Z" fill="black"/>
<path d="M57.3338 28.0991C53.2778 28.0991 50.9258 24.5231 50.9258 19.8191C50.9258 15.1151 53.2778 11.5391 57.3338 11.5391C61.3898 11.5391 63.7418 15.1151 63.7418 19.8191C63.7418 24.5231 61.3898 28.0991 57.3338 28.0991ZM57.3338 25.7231C59.7098 25.7231 61.0298 23.1311 61.0298 19.8191C61.0298 16.4591 59.7098 13.8911 57.3338 13.8911C54.9338 13.8911 53.6378 16.4591 53.6378 19.8191C53.6378 23.1311 54.9338 25.7231 57.3338 25.7231Z" fill="black"/>
<path d="M48.4848 27.8127H45.8208V20.7567H39.9648V27.8127H37.3008V11.8047H39.9648V18.4047H45.8208V11.8047H48.4848V27.8127Z" fill="black"/>
<path d="M29.7811 28.0991C27.5011 28.0991 25.7971 27.3071 24.6211 26.0591L25.9651 23.9951C26.8291 24.9791 28.1971 25.7231 29.7811 25.7231C31.4371 25.7231 32.2771 24.7391 32.2771 23.6111C32.2771 20.3231 25.1011 21.3311 25.1011 16.0031C25.1011 13.5071 27.0451 11.5391 30.0691 11.5391C31.9411 11.5391 33.5251 12.1631 34.6771 13.2671L33.3811 15.2831C32.4451 14.3471 31.2451 13.9151 29.9971 13.9151C28.7011 13.9151 27.8131 14.6831 27.8131 15.8591C27.8131 18.7151 34.9891 18.0191 34.9891 23.3951C34.9891 26.0111 33.2131 28.0991 29.7811 28.0991Z" fill="black"/>
</svg>
