<svg width="916" height="86" viewBox="0 0 916 86" fill="none" xmlns="http://www.w3.org/2000/svg">
<path fill-rule="evenodd" clip-rule="evenodd" d="M813.727 86V0H892.369L915.447 19.2519V66.7481L892.369 86H813.727ZM882.041 66L892.087 57.535V28.465L882.041 20H837.087V66H882.041ZM836.087 19H882.407L893.087 28V58L882.407 67H836.087V19ZM814.727 85H892.007L914.447 66.28V19.72L892.007 1H814.727V85Z" fill="white"/>
<path fill-rule="evenodd" clip-rule="evenodd" d="M702.398 86V0H795.478V19.76H725.758V33.6H778.678V51.8H725.758V66.24H796.918V86H702.398ZM724.758 67.24V50.8H777.678V34.6H724.758V18.76H794.478V1H703.398V85H795.918V67.24H724.758Z" fill="white"/>
<path fill-rule="evenodd" clip-rule="evenodd" d="M616.421 86L593.344 66.7481V19.2519L616.421 0H685.944V20H626.749L616.704 28.465V57.535L626.749 66H685.944V86H616.421ZM626.384 67L615.704 58V28L626.384 19H684.944V1H616.784L594.344 19.72V66.28L616.784 85H684.944V67H626.384Z" fill="white"/>
<path fill-rule="evenodd" clip-rule="evenodd" d="M473.297 86V0H506.745L549.345 62.4H550.577V0H573.097V86H539.649L497.049 23.6H495.817V86H473.297ZM494.817 22.6H497.577L540.177 85H572.097V1H551.577V63.4H548.817L506.217 1H474.297V85H494.817V22.6Z" fill="white"/>
<path fill-rule="evenodd" clip-rule="evenodd" d="M361.969 86V0H455.049V19.76H385.329V33.6H438.249V51.8H385.329V66.24H456.489V86H361.969ZM384.329 67.24V50.8H437.249V34.6H384.329V18.76H454.049V1H362.969V85H455.489V67.24H384.329Z" fill="white"/>
<path fill-rule="evenodd" clip-rule="evenodd" d="M278.147 86L239.973 7.5905V0H262.368L292.848 64.92H296.023L327.103 0H348.893V7.59378L310.114 86H278.147ZM296.653 65.92H292.213L261.733 1H240.973V7.36L278.773 85H309.493L347.893 7.36V1H327.733L296.653 65.92Z" fill="white"/>
<path fill-rule="evenodd" clip-rule="evenodd" d="M130.523 86V0H209.166L232.243 19.2519V66.7481L209.166 86H130.523ZM198.838 66L208.883 57.535V28.465L198.838 20H153.883V66H198.838ZM152.883 19H199.203L209.883 28V58L199.203 67H152.883V19ZM131.523 85H208.803L231.243 66.28V19.72L208.803 1H131.523V85Z" fill="white"/>
<path fill-rule="evenodd" clip-rule="evenodd" d="M73.4326 0L117.407 78.3786V86H95.0503L86.0503 69.32H30.9637L21.9637 86H0.207031V78.3793L44.0607 0H73.4326ZM30.367 68.32H86.647L95.647 85H116.407V78.64L72.847 1H44.647L1.20703 78.64V85H21.367L30.367 68.32ZM77.047 50.32L60.127 18.76H57.007L39.967 50.32H77.047ZM41.6434 49.32H75.3763L59.5285 19.76H57.6036L41.6434 49.32Z" fill="white"/>
</svg>
