<svg width="1275" height="86" viewBox="0 0 1275 86" fill="none" xmlns="http://www.w3.org/2000/svg">
<path fill-rule="evenodd" clip-rule="evenodd" d="M1174.55 86V0H1208L1250.6 62.4H1251.83V0H1274.35V86H1240.9L1198.3 23.6H1197.07V86H1174.55ZM1196.07 22.6H1198.83L1241.43 85H1273.35V1H1252.83V63.4H1250.07L1207.47 1H1175.55V85H1196.07V22.6Z" fill="white"/>
<path fill-rule="evenodd" clip-rule="evenodd" d="M1070.53 86L1047.45 66.7481V19.2519L1070.53 0H1131.25L1154.33 19.2519V66.7481L1131.25 86H1070.53ZM1070.89 85H1130.89L1153.33 66.28V19.72L1130.89 1H1070.89L1048.45 19.72V66.28L1070.89 85ZM1120.93 66L1130.97 57.535V28.465L1120.93 20H1080.86L1070.81 28.465V57.535L1080.86 66H1120.93ZM1080.49 19H1121.29L1131.97 28V58L1121.29 67H1080.49L1069.81 58V28L1080.49 19Z" fill="white"/>
<path fill-rule="evenodd" clip-rule="evenodd" d="M966.301 86V66.84H987.781V19.16H966.301V0H1032.62V19.16H1011.14V66.84H1032.62V86H966.301ZM1010.14 67.84V18.16H1031.62V1H967.301V18.16H988.781V67.84H967.301V85H1031.62V67.84H1010.14Z" fill="white"/>
<path fill-rule="evenodd" clip-rule="evenodd" d="M896.208 86V20H856.488V0H959.288V20H919.568V86H896.208ZM918.568 19H958.288V1H857.488V19H897.208V85H918.568V19Z" fill="white"/>
<path fill-rule="evenodd" clip-rule="evenodd" d="M781.31 86L758.232 66.7481V19.2519L781.31 0H850.832V20H791.638L781.592 28.465V57.535L791.638 66H850.832V86H781.31ZM791.272 67L780.592 58V28L791.272 19H849.832V1H781.672L759.232 19.72V66.28L781.672 85H849.832V67H791.272Z" fill="white"/>
<path fill-rule="evenodd" clip-rule="evenodd" d="M652.248 86V0H745.328V19.76H675.608V33.6H728.528V51.8H675.608V66.24H746.768V86H652.248ZM674.608 67.24V50.8H727.528V34.6H674.608V18.76H744.328V1H653.248V85H745.768V67.24H674.608Z" fill="white"/>
<path fill-rule="evenodd" clip-rule="evenodd" d="M539.565 86V66.6H606.803L611.925 62.3316V56.6684L606.802 52.4H555.919L537.645 36.9847V15.4153L555.919 0H630.245V19.4H566.127L561.005 23.6684V28.4916L566.127 32.76H617.01L635.285 48.1753V70.5847L617.01 86H539.565ZM565.765 33.76L560.005 28.96V23.2L565.765 18.4H629.245V1H556.285L538.645 15.88V36.52L556.285 51.4H607.165L612.925 56.2V62.8L607.165 67.6H540.565V85H616.645L634.285 70.12V48.64L616.645 33.76H565.765Z" fill="white"/>
<path fill-rule="evenodd" clip-rule="evenodd" d="M423.381 86V0H501.071L521.141 17.2204V42.6206L504.185 57.1212L523.901 78.2458V86H500.493L477.573 60.32H446.741V86H423.381ZM445.741 59.32H478.021L500.941 85H522.901V78.64L502.741 57.04L520.141 42.16V17.68L500.701 1H424.381V85H445.741V59.32ZM490.257 40.56L497.781 34.2534V26.0666L490.257 19.76H446.741V40.56H490.257ZM445.741 18.76H490.621L498.781 25.6V34.72L490.621 41.56H445.741V18.76Z" fill="white"/>
<path fill-rule="evenodd" clip-rule="evenodd" d="M312.053 86V0H405.133V19.76H335.413V33.6H388.333V51.8H335.413V66.24H406.573V86H312.053ZM334.413 67.24V50.8H387.333V34.6H334.413V18.76H404.133V1H313.053V85H405.573V67.24H334.413Z" fill="white"/>
<path fill-rule="evenodd" clip-rule="evenodd" d="M236.56 86V20H196.84V0H299.64V20H259.92V86H236.56ZM258.92 19H298.64V1H197.84V19H237.56V85H258.92V19Z" fill="white"/>
<path fill-rule="evenodd" clip-rule="evenodd" d="M84.5918 86V0H118.04L160.64 62.4H161.872V0H184.392V86H150.944L108.344 23.6H107.112V86H84.5918ZM106.112 22.6H108.872L151.472 85H183.392V1H162.872V63.4H160.112L117.512 1H85.5918V85H106.112V22.6Z" fill="white"/>
<path fill-rule="evenodd" clip-rule="evenodd" d="M0.441406 86V66.84H21.9214V19.16H0.441406V0H66.7614V19.16H45.2814V66.84H66.7614V86H0.441406ZM44.2814 67.84V18.16H65.7614V1H1.44141V18.16H22.9214V67.84H1.44141V85H65.7614V67.84H44.2814Z" fill="white"/>
</svg>
