<svg width="1558" height="370" viewBox="0 0 1558 370" fill="none" xmlns="http://www.w3.org/2000/svg">
<g clip-path="url(#clip0_506_518)">
<path d="M1274 360V225.5L1457.5 110.5V86.5L1163.5 86.5V10L1548 10V142.5L1363 258V360L1274 360Z" fill="#BBBBBB" fill-opacity="0.2"/>
<path d="M1002.23 360V301L724.734 301V202.5L984.734 10L1087.23 10V230.5H1143.23V301H1087.23V360H1002.23ZM824.234 230.5L1002.23 230.5V93H987.734L824.234 215.5V230.5Z" fill="#BBBBBB" fill-opacity="0.2"/>
<path d="M308.668 360V286.5L548.668 286.5L587.168 254.5V233L359.168 233L277.168 165V78L359.168 10L593.168 10L675.168 78V286L586.168 360L308.668 360ZM398.168 162.5L587.168 162.5V109.5L555.168 83.5L398.168 83.5L366.168 109.5V136.5L398.168 162.5Z" fill="#BBBBBB" fill-opacity="0.2"/>
<path d="M-61.875 360L-61.875 285H63.625L63.625 85L-48.375 85L-48.375 10L152.625 10L152.625 285H268.125V360L-61.875 360Z" fill="#BBBBBB" fill-opacity="0.2"/>
</g>
<defs>
<clipPath id="clip0_506_518">
<rect width="1558" height="370" fill="white"/>
</clipPath>
</defs>
</svg>
