<svg width="819" height="84" viewBox="0 0 819 84" fill="none" xmlns="http://www.w3.org/2000/svg">
<path d="M720.211 84V0H752.131L794.731 62.4H797.491V0H818.011V84H786.091L743.491 21.6H740.731V84H720.211Z" fill="#C4F56A"/>
<path d="M615.549 84L593.109 65.28V18.72L615.549 0H675.549L697.989 18.72V65.28L675.549 84H615.549ZM625.149 66H665.949L676.629 57V27L665.949 18H625.149L614.469 27V57L625.149 66Z" fill="#C4F56A"/>
<path d="M450.328 84V0H483.328L509.128 47.88H512.488L538.408 0H570.928V84H550.288V22.32H547.648L521.248 70.92H500.008L473.608 22.32H470.968V84H450.328Z" fill="#C4F56A"/>
<path d="M345.667 84L323.227 65.28V18.72L345.667 0H405.667L428.107 18.72V65.28L405.667 84H345.667ZM355.267 66H396.067L406.747 57V27L396.067 18H355.267L344.587 27V57L355.267 66Z" fill="#C4F56A"/>
<path d="M235.641 84V0H257.001V65.28H315.321V84H235.641Z" fill="#C4F56A"/>
<path d="M176.966 0L220.526 77.64V84H199.766L190.766 67.32H134.486L125.486 84H105.326V77.64L148.766 0H176.966ZM144.086 49.32H181.166L164.246 17.76H161.126L144.086 49.32Z" fill="#C4F56A"/>
<path d="M2.72078 84V66.6H69.3208L75.0808 61.8V55.2L69.3208 50.4H18.4408L0.800781 35.52V14.88L18.4408 0H91.4008V17.4H27.9208L22.1608 22.2V27.96L27.9208 32.76H78.8008L96.4408 47.64V69.12L78.8008 84H2.72078Z" fill="#C4F56A"/>
</svg>
