<svg width="486" height="18" viewBox="0 0 486 18" fill="none" xmlns="http://www.w3.org/2000/svg">
<path d="M480.326 17.0002H477.47L482.366 3.32019H475.67V0.992188H485.366V2.81619L480.326 17.0002Z" fill="white"/>
<path d="M472.906 17.0002H470.266V13.2802H463.834V11.0482L469.498 0.992188H472.906V10.9522H474.586V13.2802H472.906V17.0002ZM470.266 10.9522V3.75219L466.234 10.9522H470.266Z" fill="white"/>
<path d="M456.399 17.2626C454.719 17.2626 453.327 16.5426 452.463 15.4146L453.807 13.4706C454.431 14.3826 455.175 14.8866 456.375 14.8866C458.655 14.8866 459.687 12.1506 459.687 9.43856C459.687 9.27056 459.687 9.22256 459.687 9.05456C459.087 10.1826 457.791 11.2386 456.231 11.2386C453.855 11.2386 451.863 9.48656 451.863 6.07856C451.863 3.15056 453.783 0.726562 456.831 0.726562C460.887 0.726562 462.375 4.61456 462.375 9.00656C462.375 13.5666 460.407 17.2626 456.399 17.2626ZM456.999 8.93456C458.175 8.93456 459.111 8.04656 459.663 6.96656C459.567 5.33456 458.991 3.07856 456.999 3.07856C455.343 3.07856 454.575 4.59056 454.575 5.98256C454.575 8.14256 455.727 8.93456 456.999 8.93456Z" fill="white"/>
<path d="M449.523 17.0002H446.883V4.44819L444.435 7.01619L442.875 5.38419L447.219 0.992188H449.523V17.0002Z" fill="white"/>
<path d="M436.5 17.0002H427.74V0.992188H436.5V3.32019H430.404V7.66419H436.332V10.0162H430.404V14.6482H436.5V17.0002Z" fill="white"/>
<path d="M420.544 17.2866C416.536 17.2866 414.016 13.8066 414.016 9.00656C414.016 4.18256 416.536 0.726562 420.544 0.726562C423.328 0.726562 424.768 2.47856 425.608 4.25456L423.4 5.23856C422.848 3.96656 421.864 3.07856 420.544 3.07856C418.192 3.07856 416.728 5.57456 416.728 9.00656C416.728 12.4146 418.192 14.9106 420.544 14.9106C421.936 14.9106 422.92 13.9026 423.424 12.5586L425.632 13.5426C424.816 15.4146 423.376 17.2866 420.544 17.2866Z" fill="white"/>
<path d="M411.548 17.0002H409.004L403.076 6.65619V17.0002H400.412V0.992188H403.1L408.884 11.0482V0.992188H411.548V17.0002Z" fill="white"/>
<path d="M397.334 17.0002H394.67V0.992188H397.334V17.0002Z" fill="white"/>
<path d="M387.15 17.2866C384.87 17.2866 383.166 16.4946 381.99 15.2466L383.334 13.1826C384.198 14.1666 385.566 14.9106 387.15 14.9106C388.806 14.9106 389.646 13.9266 389.646 12.7986C389.646 9.51056 382.47 10.5186 382.47 5.19056C382.47 2.69456 384.414 0.726562 387.438 0.726562C389.31 0.726562 390.894 1.35056 392.046 2.45456L390.75 4.47056C389.814 3.53456 388.614 3.10256 387.366 3.10256C386.07 3.10256 385.182 3.87056 385.182 5.04656C385.182 7.90256 392.358 7.20656 392.358 12.5826C392.358 15.1986 390.582 17.2866 387.15 17.2866Z" fill="white"/>
<path d="M370.392 17.2866C368.112 17.2866 366.408 16.4946 365.232 15.2466L366.576 13.1826C367.44 14.1666 368.808 14.9106 370.392 14.9106C372.048 14.9106 372.888 13.9266 372.888 12.7986C372.888 9.51056 365.712 10.5186 365.712 5.19056C365.712 2.69456 367.656 0.726562 370.68 0.726562C372.552 0.726562 374.136 1.35056 375.288 2.45456L373.992 4.47056C373.056 3.53456 371.856 3.10256 370.608 3.10256C369.312 3.10256 368.424 3.87056 368.424 5.04656C368.424 7.90256 375.6 7.20656 375.6 12.5826C375.6 15.1986 373.824 17.2866 370.392 17.2866Z" fill="white"/>
<path d="M356.6 17.0002H353.936V0.992188H359.384C362.528 0.992188 364.112 3.29619 364.112 5.96019C364.112 8.64819 362.528 10.9522 359.384 10.9522H356.6V17.0002ZM359.072 8.60019C360.488 8.60019 361.4 7.54419 361.4 5.96019C361.4 4.37619 360.488 3.32019 359.072 3.32019H356.6V8.60019H359.072Z" fill="white"/>
<path d="M351.737 17.0002H343.529V0.992188H346.193V14.6482H351.737V17.0002Z" fill="white"/>
<path d="M341.918 17.0002H339.038L338.174 13.8322H332.918L332.054 17.0002H329.174L333.95 0.992188H337.142L341.918 17.0002ZM337.646 11.4802L335.558 3.82419L333.47 11.4802H337.646Z" fill="white"/>
<path d="M322.534 17.0002H319.87V9.94419H314.014V17.0002H311.35V0.992188H314.014V7.59219H319.87V0.992188H322.534V17.0002Z" fill="white"/>
<path d="M304.153 17.2866C300.145 17.2866 297.625 13.8066 297.625 9.00656C297.625 4.18256 300.145 0.726562 304.153 0.726562C306.937 0.726562 308.377 2.47856 309.217 4.25456L307.009 5.23856C306.457 3.96656 305.473 3.07856 304.153 3.07856C301.801 3.07856 300.337 5.57456 300.337 9.00656C300.337 12.4146 301.801 14.9106 304.153 14.9106C305.545 14.9106 306.529 13.9026 307.033 12.5586L309.241 13.5426C308.425 15.4146 306.985 17.2866 304.153 17.2866Z" fill="white"/>
<path d="M295.157 17.0002H292.613L286.685 6.65619V17.0002H284.021V0.992188H286.709L292.493 11.0482V0.992188H295.157V17.0002Z" fill="white"/>
<path d="M281.461 17.0002H272.701V0.992188H281.461V3.32019H275.365V7.66419H281.293V10.0162H275.365V14.6482H281.461V17.0002Z" fill="white"/>
<path d="M270.224 17.0002H267.248L264.536 10.9522H262.568V17.0002H259.904V0.992188H265.424C268.184 0.992188 270.08 2.98419 270.08 5.93619C270.08 8.74419 268.544 10.1122 267.128 10.4962L270.224 17.0002ZM265.04 8.60019C266.456 8.60019 267.368 7.54419 267.368 5.96019C267.368 4.37619 266.456 3.32019 265.04 3.32019H262.568V8.60019H265.04Z" fill="white"/>
<path d="M251.435 17.0002H248.771V0.992188H257.531V3.32019H251.435V7.66419H257.363V10.0162H251.435V17.0002Z" fill="white"/>
<path d="M241.125 17.0002H232.365V0.992188H241.125V3.32019H235.029V7.66419H240.957V10.0162H235.029V14.6482H241.125V17.0002Z" fill="white"/>
<path d="M229.323 17.0002H226.659V9.94419H220.803V17.0002H218.139V0.992188H220.803V7.59219H226.659V0.992188H229.323V17.0002Z" fill="white"/>
<path d="M212.38 17.0002H209.74V3.32019H206.068V0.992188H216.052V3.32019H212.38V17.0002Z" fill="white"/>
<path d="M198.9 17.0002H196.356L190.428 6.65619V17.0002H187.764V0.992188H190.452L196.236 11.0482V0.992188H198.9V17.0002Z" fill="white"/>
<path d="M184.685 17.0002H182.021V0.992188H184.685V17.0002Z" fill="white"/>
<path d="M169.036 17.3106C165.1 17.3106 162.508 13.9506 162.508 9.00656C162.508 4.03856 165.1 0.726562 169.036 0.726562C171.628 0.726562 173.212 2.26256 174.124 4.13456L171.964 5.14256C171.388 3.96656 170.428 3.07856 169.036 3.07856C166.756 3.07856 165.22 5.35856 165.22 9.00656C165.22 12.6306 166.756 14.9346 169.036 14.9346C170.212 14.9346 171.172 14.3826 171.7 13.7826V10.8066H168.34V8.47856H174.22V14.8386C172.948 16.3506 171.244 17.3106 169.036 17.3106Z" fill="white"/>
<path d="M160.04 17.0002H157.496L151.568 6.65619V17.0002H148.904V0.992188H151.592L157.376 11.0482V0.992188H160.04V17.0002Z" fill="white"/>
<path d="M145.826 17.0002H143.162V0.992188H145.826V17.0002Z" fill="white"/>
<path d="M136.694 17.0002H134.054V10.3282L129.086 0.992188H132.038L135.374 7.83219L138.71 0.992188H141.638L136.694 10.3282V17.0002Z" fill="white"/>
<path d="M130.09 17.0002H127.21L126.346 13.8322H121.09L120.226 17.0002H117.346L122.122 0.992188H125.314L130.09 17.0002ZM125.818 11.4802L123.73 3.82419L121.642 11.4802H125.818Z" fill="white"/>
<path d="M116.636 17.0002H108.428V0.992188H111.092V14.6482H116.636V17.0002Z" fill="white"/>
<path d="M98.787 17.0002H96.123V0.992188H101.571C104.715 0.992188 106.299 3.29619 106.299 5.96019C106.299 8.64819 104.715 10.9522 101.571 10.9522H98.787V17.0002ZM101.259 8.60019C102.675 8.60019 103.587 7.54419 103.587 5.96019C103.587 4.37619 102.675 3.32019 101.259 3.32019H98.787V8.60019H101.259Z" fill="white"/>
<path d="M88.7734 12.2203H72.5254V10.1562H88.7734V12.2203Z" fill="white"/>
<path d="M60.5727 17.286C58.1247 17.286 56.3247 16.11 55.3887 14.67L57.0207 13.014C57.8127 14.142 59.0367 14.91 60.4527 14.91C62.2527 14.91 63.0927 13.902 63.0927 12.39C63.0927 10.59 61.8927 9.99 60.3087 9.99C59.8047 9.99 59.1327 9.99 58.9167 10.038V7.638C59.1567 7.662 59.8527 7.662 60.2607 7.662C61.7727 7.662 62.8767 6.942 62.8767 5.454C62.8767 3.87 61.8447 3.102 60.3807 3.102C59.0367 3.102 57.9807 3.75 57.1647 4.83L55.6047 3.294C56.6607 1.734 58.3887 0.75 60.5727 0.75C63.4767 0.75 65.5167 2.214 65.5167 5.046C65.5167 6.942 64.1487 8.382 62.5647 8.718C64.1007 8.958 65.7327 10.398 65.7327 12.63C65.7327 15.342 63.7887 17.286 60.5727 17.286Z" fill="white"/>
<path d="M53.6417 16.998H43.8017V14.838C49.3937 9.006 50.8577 7.446 50.8577 5.406C50.8577 3.966 49.8017 3.102 48.5537 3.102C47.0897 3.102 45.9617 3.798 45.1457 4.998L43.5137 3.342C44.7137 1.662 46.4417 0.75 48.5777 0.75C51.3857 0.75 53.5697 2.502 53.5697 5.382C53.5697 7.926 51.7697 10.134 47.6897 14.646H53.6417V16.998Z" fill="white"/>
<path d="M36.3291 17.286C32.4651 17.286 30.9531 12.99 30.9531 9.006C30.9531 4.998 32.4651 0.75 36.3291 0.75C40.2171 0.75 41.7291 4.998 41.7291 9.006C41.7291 12.99 40.2171 17.286 36.3291 17.286ZM36.3291 14.91C38.4651 14.91 39.0171 12.102 39.0171 9.006C39.0171 5.886 38.4651 3.102 36.3291 3.102C34.2171 3.102 33.6651 5.886 33.6651 9.006C33.6651 12.102 34.2171 14.91 36.3291 14.91Z" fill="white"/>
<path d="M28.8448 16.998H19.0048V14.838C24.5968 9.006 26.0608 7.446 26.0608 5.406C26.0608 3.966 25.0048 3.102 23.7568 3.102C22.2928 3.102 21.1648 3.798 20.3488 4.998L18.7168 3.342C19.9168 1.662 21.6448 0.75 23.7808 0.75C26.5888 0.75 28.7728 2.502 28.7728 5.382C28.7728 7.926 26.9728 10.134 22.8928 14.646H28.8448V16.998Z" fill="white"/>
<path d="M16.7885 8.98312C16.7885 13.5431 13.0925 17.2631 8.50852 17.2631C3.94852 17.2631 0.228516 13.5431 0.228516 8.98312C0.228516 4.39912 3.94852 0.703125 8.50852 0.703125C13.0925 0.703125 16.7885 4.39912 16.7885 8.98312ZM15.9965 8.98312C15.9965 4.87913 12.6125 1.49512 8.50852 1.49512C4.40452 1.49512 1.04452 4.87913 1.04452 8.98312C1.04452 13.0871 4.40452 16.4471 8.50852 16.4471C12.6125 16.4471 15.9965 13.0871 15.9965 8.98312ZM11.4605 11.8151L12.1565 12.4631C11.2925 13.4711 10.0925 14.0711 8.60452 14.0711C5.84452 14.0711 3.61252 11.8631 3.61252 8.95913C3.61252 6.00712 5.84452 3.87112 8.60452 3.87112C10.0925 3.87112 11.2925 4.47113 12.1325 5.45512L11.4605 6.12713C10.8365 5.28713 9.73252 4.73512 8.60452 4.73512C6.46852 4.73512 4.59652 6.43913 4.59652 8.95913C4.59652 11.4071 6.46852 13.2071 8.60452 13.2071C9.75652 13.2071 10.8365 12.6551 11.4605 11.8151Z" fill="white"/>
</svg>
