<svg width="1165" height="57" viewBox="0 0 1165 57" fill="none" xmlns="http://www.w3.org/2000/svg">
<path d="M1123.39 53.3356C1120.96 53.3356 1119.08 52.4116 1117.82 50.9836L1119.05 49.2756C1120 50.4236 1121.57 51.3476 1123.39 51.3476C1125.74 51.3476 1126.81 49.8916 1126.81 48.2956C1126.81 43.7596 1118.38 44.9356 1118.38 38.9156C1118.38 36.0596 1120.62 34.0156 1123.73 34.0156C1125.8 34.0156 1127.48 34.7156 1128.71 35.9756L1127.54 37.6556C1126.53 36.5356 1125.16 36.0036 1123.67 36.0036C1121.96 36.0036 1120.65 37.1236 1120.65 38.8036C1120.65 42.7516 1129.08 41.8836 1129.08 48.1556C1129.08 50.8996 1127.26 53.3356 1123.39 53.3356Z" fill="white"/>
<path d="M1111.93 52.9963H1109.72V36.2803H1105.29V34.3203H1116.38V36.2803H1111.93V52.9963Z" fill="white"/>
<path d="M1103.61 52.9963H1101.09L1097.51 45.5203H1094.82V52.9963H1092.58V34.3203H1098.29C1101.29 34.3203 1103.42 36.4763 1103.42 39.8923C1103.42 43.2243 1101.54 44.8483 1099.69 45.1843L1103.61 52.9963ZM1098.04 43.5603C1099.97 43.5603 1101.12 42.0483 1101.12 39.9203C1101.12 37.7923 1099.97 36.2803 1098.04 36.2803H1094.82V43.5603H1098.04Z" fill="white"/>
<path d="M1082.23 53.3356C1077.7 53.3356 1075.18 49.0796 1075.18 43.6756C1075.18 38.2716 1077.7 34.0156 1082.23 34.0156C1086.77 34.0156 1089.32 38.2716 1089.32 43.6756C1089.32 49.0796 1086.77 53.3356 1082.23 53.3356ZM1082.23 51.3476C1085.34 51.3476 1087.02 47.9316 1087.02 43.6756C1087.02 39.3636 1085.34 36.0036 1082.23 36.0036C1079.15 36.0036 1077.47 39.3636 1077.47 43.6756C1077.47 47.9316 1079.15 51.3476 1082.23 51.3476Z" fill="white"/>
<path d="M1064.42 52.9963H1062.18V34.3203H1067.86C1071.28 34.3203 1073.01 36.8963 1073.01 39.9203C1073.01 42.9443 1071.25 45.5203 1067.86 45.5203H1064.42V52.9963ZM1067.64 43.5603C1069.57 43.5603 1070.72 42.0483 1070.72 39.9203C1070.72 37.7923 1069.57 36.2803 1067.64 36.2803H1064.42V43.5603H1067.64Z" fill="white"/>
<path d="M1053.45 53.3356C1051.01 53.3356 1049.13 52.4116 1047.88 50.9836L1049.11 49.2756C1050.06 50.4236 1051.63 51.3476 1053.45 51.3476C1055.8 51.3476 1056.86 49.8916 1056.86 48.2956C1056.86 43.7596 1048.43 44.9356 1048.43 38.9156C1048.43 36.0596 1050.67 34.0156 1053.78 34.0156C1055.85 34.0156 1057.53 34.7156 1058.77 35.9756L1057.59 37.6556C1056.58 36.5356 1055.21 36.0036 1053.73 36.0036C1052.02 36.0036 1050.7 37.1236 1050.7 38.8036C1050.7 42.7516 1059.13 41.8836 1059.13 48.1556C1059.13 50.8996 1057.31 53.3356 1053.45 53.3356Z" fill="white"/>
<path d="M1039.79 52.9963H1037.27L1033.69 45.5203H1031V52.9963H1028.76V34.3203H1034.47C1037.47 34.3203 1039.6 36.4763 1039.6 39.8923C1039.6 43.2243 1037.72 44.8483 1035.87 45.1843L1039.79 52.9963ZM1034.22 43.5603C1036.15 43.5603 1037.3 42.0483 1037.3 39.9203C1037.3 37.7923 1036.15 36.2803 1034.22 36.2803H1031V43.5603H1034.22Z" fill="white"/>
<path d="M1018.41 53.3356C1013.88 53.3356 1011.36 49.0796 1011.36 43.6756C1011.36 38.2716 1013.88 34.0156 1018.41 34.0156C1022.95 34.0156 1025.5 38.2716 1025.5 43.6756C1025.5 49.0796 1022.95 53.3356 1018.41 53.3356ZM1018.41 51.3476C1021.52 51.3476 1023.2 47.9316 1023.2 43.6756C1023.2 39.3636 1021.52 36.0036 1018.41 36.0036C1015.33 36.0036 1013.65 39.3636 1013.65 43.6756C1013.65 47.9316 1015.33 51.3476 1018.41 51.3476Z" fill="white"/>
<path d="M1001.65 53.3356C997.114 53.3356 994.594 49.0796 994.594 43.6756C994.594 38.2716 997.114 34.0156 1001.65 34.0156C1006.19 34.0156 1008.73 38.2716 1008.73 43.6756C1008.73 49.0796 1006.19 53.3356 1001.65 53.3356ZM1001.65 51.3476C1004.76 51.3476 1006.44 47.9316 1006.44 43.6756C1006.44 39.3636 1004.76 36.0036 1001.65 36.0036C998.57 36.0036 996.89 39.3636 996.89 43.6756C996.89 47.9316 998.57 51.3476 1001.65 51.3476Z" fill="white"/>
<path d="M984.418 52.9963H979.434V34.3203H984.418C989.262 34.3203 991.922 38.3243 991.922 43.6723C991.922 49.0483 989.262 52.9963 984.418 52.9963ZM984.418 51.0083C987.862 51.0083 989.626 47.8723 989.626 43.6723C989.626 39.4443 987.89 36.2803 984.418 36.2803H981.674V51.0083H984.418Z" fill="white"/>
<path d="M972.314 52.9963H970.102V36.2803H965.678V34.3203H976.766V36.2803H972.314V52.9963Z" fill="white"/>
<path d="M956.988 53.3323C953.236 53.3323 950.996 51.0643 950.996 46.9483V34.3203H953.236V46.9763C953.236 49.8603 954.608 51.3443 956.988 51.3443C959.396 51.3443 960.768 49.8603 960.768 46.9763V34.3203H962.98V46.9483C962.98 51.0643 960.768 53.3323 956.988 53.3323Z" fill="white"/>
<path d="M940.646 53.3356C936.11 53.3356 933.59 49.0796 933.59 43.6756C933.59 38.2716 936.11 34.0156 940.646 34.0156C945.182 34.0156 947.73 38.2716 947.73 43.6756C947.73 49.0796 945.182 53.3356 940.646 53.3356ZM940.646 51.3476C943.754 51.3476 945.434 47.9316 945.434 43.6756C945.434 39.3636 943.754 36.0036 940.646 36.0036C937.566 36.0036 935.886 39.3636 935.886 43.6756C935.886 47.9316 937.566 51.3476 940.646 51.3476Z" fill="white"/>
<path d="M919.897 53.3356C915.445 53.3356 912.645 49.2476 912.645 43.6756C912.645 38.0756 915.445 34.0156 919.897 34.0156C922.725 34.0156 924.349 35.7236 925.357 37.6556L923.509 38.5236C922.753 37.0116 921.521 36.0036 919.897 36.0036C916.873 36.0036 914.941 39.2516 914.941 43.6756C914.941 48.0996 916.873 51.3476 919.897 51.3476C921.605 51.3476 922.837 50.1716 923.537 48.5756L925.413 49.4436C924.377 51.5156 922.781 53.3356 919.897 53.3356Z" fill="white"/>
<path d="M909.377 52.9963H907.137V34.3203H909.377V52.9963Z" fill="white"/>
<path d="M903.227 52.9963H901.043V38.3243L896.059 52.9963H895.191L890.263 38.3243V52.9963H888.023V34.3203H891.131L895.639 47.5923L900.175 34.3203H903.227V52.9963Z" fill="white"/>
<path d="M885.846 52.9963H883.438L882.234 48.7683H875.598L874.394 52.9963H871.986L877.586 34.3203H880.246L885.846 52.9963ZM881.758 46.8083L878.902 36.7843L876.074 46.8083H881.758Z" fill="white"/>
<path d="M869.795 52.9963H867.639L859.939 39.0803V52.9963H857.699V34.3203H859.939L867.555 47.9563V34.3203H869.795V52.9963Z" fill="white"/>
<path d="M849.859 52.9963H847.647V45.1003L841.879 34.3203H844.371L848.767 42.9443L853.163 34.3203H855.627L849.859 45.1003V52.9963Z" fill="white"/>
<path d="M833.699 52.9963H828.715V34.3203H833.699C838.543 34.3203 841.203 38.3243 841.203 43.6723C841.203 49.0483 838.543 52.9963 833.699 52.9963ZM833.699 51.0083C837.143 51.0083 838.907 47.8723 838.907 43.6723C838.907 39.4443 837.171 36.2803 833.699 36.2803H830.955V51.0083H833.699Z" fill="white"/>
<path d="M811.879 52.9963H806.895V34.3203H811.879C816.723 34.3203 819.383 38.3243 819.383 43.6723C819.383 49.0483 816.723 52.9963 811.879 52.9963ZM811.879 51.0083C815.323 51.0083 817.086 47.8723 817.086 43.6723C817.086 39.4443 815.351 36.2803 811.879 36.2803H809.135V51.0083H811.879Z" fill="white"/>
<path d="M802.967 52.9963H800.811L793.111 39.0803V52.9963H790.871V34.3203H793.111L800.727 47.9563V34.3203H802.967V52.9963Z" fill="white"/>
<path d="M788.694 52.9963H786.286L785.082 48.7683H778.446L777.242 52.9963H774.834L780.434 34.3203H783.094L788.694 52.9963ZM784.606 46.8083L781.75 36.7843L778.922 46.8083H784.606Z" fill="white"/>
<path d="M767.068 52.3812C767.068 54.0612 766.088 55.6292 764.828 56.5252L763.82 55.7132C764.716 55.0972 765.5 54.0052 765.612 53.1092C765.556 53.1092 765.36 53.1372 765.248 53.1372C764.492 53.1372 763.932 52.5493 763.932 51.7653C763.932 50.9533 764.548 50.2812 765.388 50.2812C766.284 50.2812 767.068 51.0372 767.068 52.3812Z" fill="white"/>
<path d="M755.068 53.3636C750.7 53.3636 747.816 49.4436 747.816 43.6756C747.816 37.9076 750.7 34.0156 755.068 34.0156C757.812 34.0156 759.52 35.5556 760.612 37.5436L758.82 38.4676C758.036 37.0116 756.776 36.0036 755.068 36.0036C752.072 36.0036 750.112 39.1116 750.112 43.6756C750.112 48.2116 752.072 51.3476 755.068 51.3476C756.636 51.3476 757.896 50.5916 758.568 49.7796V45.4116H754.116V43.4516H760.696V50.6196C759.324 52.3276 757.42 53.3636 755.068 53.3636Z" fill="white"/>
<path d="M744.534 52.9963H742.378L734.677 39.0803V52.9963H732.438V34.3203H734.677L742.293 47.9563V34.3203H744.534V52.9963Z" fill="white"/>
<path d="M728.525 52.9963H726.285V34.3203H728.525V52.9963Z" fill="white"/>
<path d="M715.464 52.9963H710.48V34.3203H715.464C720.308 34.3203 722.968 38.3243 722.968 43.6723C722.968 49.0483 720.308 52.9963 715.464 52.9963ZM715.464 51.0083C718.908 51.0083 720.672 47.8723 720.672 43.6723C720.672 39.4443 718.936 36.2803 715.464 36.2803H712.72V51.0083H715.464Z" fill="white"/>
<path d="M707.266 52.9963H704.746L701.162 45.5203H698.474V52.9963H696.234V34.3203H701.946C704.942 34.3203 707.07 36.4763 707.07 39.8923C707.07 43.2243 705.194 44.8483 703.346 45.1843L707.266 52.9963ZM701.694 43.5603C703.626 43.5603 704.774 42.0483 704.774 39.9203C704.774 37.7923 703.626 36.2803 701.694 36.2803H698.474V43.5603H701.694Z" fill="white"/>
<path d="M694.057 52.9963H691.649L690.445 48.7683H683.809L682.605 52.9963H680.197L685.797 34.3203H688.457L694.057 52.9963ZM689.969 46.8083L687.113 36.7843L684.285 46.8083H689.969Z" fill="white"/>
<path d="M672.13 53.3356C667.594 53.3356 665.074 49.0796 665.074 43.6756C665.074 38.2716 667.594 34.0156 672.13 34.0156C676.666 34.0156 679.214 38.2716 679.214 43.6756C679.214 49.0796 676.666 53.3356 672.13 53.3356ZM672.13 51.3476C675.238 51.3476 676.918 47.9316 676.918 43.6756C676.918 39.3636 675.238 36.0036 672.13 36.0036C669.05 36.0036 667.37 39.3636 667.37 43.6756C667.37 47.9316 669.05 51.3476 672.13 51.3476Z" fill="white"/>
<path d="M657.637 52.9963H651.281V34.3203H657.469C660.409 34.3203 662.089 36.2523 662.089 39.0803C662.089 41.4323 660.857 42.9163 659.233 43.3643C661.053 43.6443 662.397 45.7163 662.397 47.9563C662.397 50.9803 660.773 52.9963 657.637 52.9963ZM657.049 42.4683C658.953 42.4683 659.793 41.1243 659.793 39.3883C659.793 37.6523 658.953 36.2803 657.049 36.2803H653.521V42.4683H657.049ZM657.189 51.0083C659.121 51.0083 660.101 49.7763 660.101 47.7323C660.101 45.9683 659.177 44.4283 657.189 44.4283H653.521V51.0083H657.189Z" fill="white"/>
<path d="M644.734 52.9963H642.354L639.302 38.2683L636.278 52.9963H633.898L629.754 34.3203H632.134L635.186 49.5523L638.378 34.3203H640.254L643.446 49.5523L646.498 34.3203H648.878L644.734 52.9963Z" fill="white"/>
<path d="M621.216 53.3356C616.68 53.3356 614.16 49.0796 614.16 43.6756C614.16 38.2716 616.68 34.0156 621.216 34.0156C625.752 34.0156 628.3 38.2716 628.3 43.6756C628.3 49.0796 625.752 53.3356 621.216 53.3356ZM621.216 51.3476C624.324 51.3476 626.004 47.9316 626.004 43.6756C626.004 39.3636 624.324 36.0036 621.216 36.0036C618.136 36.0036 616.456 39.3636 616.456 43.6756C616.456 47.9316 618.136 51.3476 621.216 51.3476Z" fill="white"/>
<path d="M610.877 52.9963H608.721L601.021 39.0803V52.9963H598.781V34.3203H601.021L608.637 47.9563V34.3203H610.877V52.9963Z" fill="white"/>
<path d="M590.052 53.3356C587.616 53.3356 585.74 52.4116 584.48 50.9836L585.712 49.2756C586.664 50.4236 588.232 51.3476 590.052 51.3476C592.404 51.3476 593.468 49.8916 593.468 48.2956C593.468 43.7596 585.04 44.9356 585.04 38.9156C585.04 36.0596 587.28 34.0156 590.388 34.0156C592.46 34.0156 594.14 34.7156 595.372 35.9756L594.196 37.6556C593.188 36.5356 591.816 36.0036 590.332 36.0036C588.624 36.0036 587.308 37.1236 587.308 38.8036C587.308 42.7516 595.736 41.8836 595.736 48.1556C595.736 50.8996 593.916 53.3356 590.052 53.3356Z" fill="white"/>
<path d="M576.127 52.3812C576.127 54.0612 575.147 55.6292 573.887 56.5252L572.879 55.7132C573.775 55.0972 574.559 54.0052 574.671 53.1092C574.615 53.1092 574.419 53.1372 574.307 53.1372C573.551 53.1372 572.991 52.5493 572.991 51.7653C572.991 50.9533 573.607 50.2812 574.447 50.2812C575.343 50.2812 576.127 51.0372 576.127 52.3812Z" fill="white"/>
<path d="M564.127 53.3636C559.759 53.3636 556.875 49.4436 556.875 43.6756C556.875 37.9076 559.759 34.0156 564.127 34.0156C566.871 34.0156 568.579 35.5556 569.671 37.5436L567.879 38.4676C567.095 37.0116 565.835 36.0036 564.127 36.0036C561.131 36.0036 559.171 39.1116 559.171 43.6756C559.171 48.2116 561.131 51.3476 564.127 51.3476C565.695 51.3476 566.955 50.5916 567.627 49.7796V45.4116H563.175V43.4516H569.755V50.6196C568.383 52.3276 566.479 53.3636 564.127 53.3636Z" fill="white"/>
<path d="M553.592 52.9963H551.436L543.736 39.0803V52.9963H541.496V34.3203H543.736L551.352 47.9563V34.3203H553.592V52.9963Z" fill="white"/>
<path d="M537.584 52.9963H535.344V34.3203H537.584V52.9963Z" fill="white"/>
<path d="M531.431 52.9963H529.191V34.3203H531.431V52.9963Z" fill="white"/>
<path d="M526.873 52.9963H524.185L518.725 44.7643L517.185 47.0043V52.9963H514.945V34.3203H517.185V44.0083L523.709 34.3203H526.341L520.097 43.1963L526.873 52.9963Z" fill="white"/>
<path d="M506.216 53.3356C503.78 53.3356 501.905 52.4116 500.645 50.9836L501.877 49.2756C502.829 50.4236 504.396 51.3476 506.216 51.3476C508.568 51.3476 509.633 49.8916 509.633 48.2956C509.633 43.7596 501.205 44.9356 501.205 38.9156C501.205 36.0596 503.444 34.0156 506.552 34.0156C508.624 34.0156 510.304 34.7156 511.536 35.9756L510.361 37.6556C509.353 36.5356 507.981 36.0036 506.497 36.0036C504.789 36.0036 503.473 37.1236 503.473 38.8036C503.473 42.7516 511.901 41.8836 511.901 48.1556C511.901 50.8996 510.08 53.3356 506.216 53.3356Z" fill="white"/>
<path d="M487.049 53.3356C484.613 53.3356 482.737 52.4116 481.477 50.9836L482.709 49.2756C483.661 50.4236 485.229 51.3476 487.049 51.3476C489.401 51.3476 490.465 49.8916 490.465 48.2956C490.465 43.7596 482.037 44.9356 482.037 38.9156C482.037 36.0596 484.277 34.0156 487.385 34.0156C489.457 34.0156 491.137 34.7156 492.369 35.9756L491.193 37.6556C490.185 36.5356 488.813 36.0036 487.329 36.0036C485.621 36.0036 484.305 37.1236 484.305 38.8036C484.305 42.7516 492.733 41.8836 492.733 48.1556C492.733 50.8996 490.913 53.3356 487.049 53.3356Z" fill="white"/>
<path d="M480.639 52.9963H478.231L477.027 48.7683H470.391L469.187 52.9963H466.779L472.379 34.3203H475.039L480.639 52.9963ZM476.551 46.8083L473.695 36.7843L470.867 46.8083H476.551Z" fill="white"/>
<path d="M458.574 52.9963H456.334V44.3723H448.662V52.9963H446.422V34.3203H448.662V42.4123H456.334V34.3203H458.574V52.9963Z" fill="white"/>
<path d="M438.1 53.3356C433.648 53.3356 430.848 49.2476 430.848 43.6756C430.848 38.0756 433.648 34.0156 438.1 34.0156C440.928 34.0156 442.552 35.7236 443.56 37.6556L441.712 38.5236C440.956 37.0116 439.724 36.0036 438.1 36.0036C435.076 36.0036 433.144 39.2516 433.144 43.6756C433.144 48.0996 435.076 51.3476 438.1 51.3476C439.808 51.3476 441.04 50.1716 441.74 48.5756L443.616 49.4436C442.58 51.5156 440.984 53.3356 438.1 53.3356Z" fill="white"/>
<path d="M421.543 53.3323C417.791 53.3323 415.551 51.0643 415.551 46.9483V34.3203H417.791V46.9763C417.791 49.8603 419.163 51.3443 421.543 51.3443C423.951 51.3443 425.323 49.8603 425.323 46.9763V34.3203H427.535V46.9483C427.535 51.0643 425.323 53.3323 421.543 53.3323Z" fill="white"/>
<path d="M406.822 53.3356C404.386 53.3356 402.51 52.4116 401.25 50.9836L402.482 49.2756C403.434 50.4236 405.002 51.3476 406.822 51.3476C409.174 51.3476 410.238 49.8916 410.238 48.2956C410.238 43.7596 401.81 44.9356 401.81 38.9156C401.81 36.0596 404.05 34.0156 407.158 34.0156C409.23 34.0156 410.91 34.7156 412.142 35.9756L410.966 37.6556C409.958 36.5356 408.586 36.0036 407.102 36.0036C405.394 36.0036 404.078 37.1236 404.078 38.8036C404.078 42.7516 412.506 41.8836 412.506 48.1556C412.506 50.8996 410.686 53.3356 406.822 53.3356Z" fill="white"/>
<path d="M387.654 53.3356C385.218 53.3356 383.342 52.4116 382.082 50.9836L383.314 49.2756C384.266 50.4236 385.834 51.3476 387.654 51.3476C390.006 51.3476 391.07 49.8916 391.07 48.2956C391.07 43.7596 382.642 44.9356 382.642 38.9156C382.642 36.0596 384.882 34.0156 387.99 34.0156C390.062 34.0156 391.742 34.7156 392.974 35.9756L391.798 37.6556C390.79 36.5356 389.418 36.0036 387.934 36.0036C386.226 36.0036 384.91 37.1236 384.91 38.8036C384.91 42.7516 393.338 41.8836 393.338 48.1556C393.338 50.8996 391.518 53.3356 387.654 53.3356Z" fill="white"/>
<path d="M379.928 52.9963H370.324V34.3203H379.928V36.2803H372.564V42.4683H379.732V44.4283H372.564V51.0083H379.928V52.9963Z" fill="white"/>
<path d="M366.412 52.9963H364.172V34.3203H366.412V52.9963Z" fill="white"/>
<path d="M357.052 52.9963H354.84V36.2803H350.416V34.3203H361.504V36.2803H357.052V52.9963Z" fill="white"/>
<path d="M347.763 52.9963H345.523V34.3203H347.763V52.9963Z" fill="white"/>
<path d="M337.746 52.9963H335.086L329.486 34.3203H331.894L336.402 50.3363L340.938 34.3203H343.346L337.746 52.9963Z" fill="white"/>
<path d="M327.31 52.9963H325.07V34.3203H327.31V52.9963Z" fill="white"/>
<path d="M317.95 52.9963H315.738V36.2803H311.314V34.3203H322.402V36.2803H317.95V52.9963Z" fill="white"/>
<path d="M304.252 53.3356C299.8 53.3356 297 49.2476 297 43.6756C297 38.0756 299.8 34.0156 304.252 34.0156C307.08 34.0156 308.704 35.7236 309.712 37.6556L307.864 38.5236C307.108 37.0116 305.876 36.0036 304.252 36.0036C301.228 36.0036 299.296 39.2516 299.296 43.6756C299.296 48.0996 301.228 51.3476 304.252 51.3476C305.96 51.3476 307.192 50.1716 307.892 48.5756L309.768 49.4436C308.732 51.5156 307.136 53.3356 304.252 53.3356Z" fill="white"/>
<path d="M296.014 52.9963H293.606L292.402 48.7683H285.766L284.562 52.9963H282.154L287.754 34.3203H290.414L296.014 52.9963ZM291.926 46.8083L289.07 36.7843L286.242 46.8083H291.926Z" fill="white"/>
<path d="M274.661 52.9963H272.141L268.557 45.5203H265.869V52.9963H263.629V34.3203H269.341C272.337 34.3203 274.465 36.4763 274.465 39.8923C274.465 43.2243 272.589 44.8483 270.741 45.1843L274.661 52.9963ZM269.089 43.5603C271.021 43.5603 272.169 42.0483 272.169 39.9203C272.169 37.7923 271.021 36.2803 269.089 36.2803H265.869V43.5603H269.089Z" fill="white"/>
<path d="M253.279 53.3356C248.743 53.3356 246.223 49.0796 246.223 43.6756C246.223 38.2716 248.743 34.0156 253.279 34.0156C257.815 34.0156 260.363 38.2716 260.363 43.6756C260.363 49.0796 257.815 53.3356 253.279 53.3356ZM253.279 51.3476C256.387 51.3476 258.067 47.9316 258.067 43.6756C258.067 39.3636 256.387 36.0036 253.279 36.0036C250.199 36.0036 248.519 39.3636 248.519 43.6756C248.519 47.9316 250.199 51.3476 253.279 51.3476Z" fill="white"/>
<path d="M236.474 52.9963H234.234V34.3203H243.838V36.2803H236.474V42.4683H243.642V44.4283H236.474V52.9963Z" fill="white"/>
<path d="M225.005 52.9963H222.485L218.901 45.5203H216.213V52.9963H213.973V34.3203H219.685C222.681 34.3203 224.809 36.4763 224.809 39.8923C224.809 43.2243 222.933 44.8483 221.085 45.1843L225.005 52.9963ZM219.433 43.5603C221.365 43.5603 222.513 42.0483 222.513 39.9203C222.513 37.7923 221.365 36.2803 219.433 36.2803H216.213V43.5603H219.433Z" fill="white"/>
<path d="M211.796 52.9963H209.388L208.184 48.7683H201.548L200.344 52.9963H197.936L203.536 34.3203H206.196L211.796 52.9963ZM207.708 46.8083L204.852 36.7843L202.024 46.8083H207.708Z" fill="white"/>
<path d="M196.37 52.9963H186.766V34.3203H196.37V36.2803H189.006V42.4683H196.174V44.4283H189.006V51.0083H196.37V52.9963Z" fill="white"/>
<path d="M177.65 53.3636C173.282 53.3636 170.398 49.4436 170.398 43.6756C170.398 37.9076 173.282 34.0156 177.65 34.0156C180.394 34.0156 182.102 35.5556 183.194 37.5436L181.402 38.4676C180.618 37.0116 179.358 36.0036 177.65 36.0036C174.654 36.0036 172.694 39.1116 172.694 43.6756C172.694 48.2116 174.654 51.3476 177.65 51.3476C179.218 51.3476 180.478 50.5916 181.15 49.7796V45.4116H176.698V43.4516H183.278V50.6196C181.906 52.3276 180.002 53.3636 177.65 53.3636Z" fill="white"/>
<path d="M155.912 53.3636C151.544 53.3636 148.66 49.4436 148.66 43.6756C148.66 37.9076 151.544 34.0156 155.912 34.0156C158.656 34.0156 160.364 35.5556 161.456 37.5436L159.664 38.4676C158.88 37.0116 157.62 36.0036 155.912 36.0036C152.916 36.0036 150.956 39.1116 150.956 43.6756C150.956 48.2116 152.916 51.3476 155.912 51.3476C157.48 51.3476 158.74 50.5916 159.412 49.7796V45.4116H154.96V43.4516H161.54V50.6196C160.168 52.3276 158.264 53.3636 155.912 53.3636Z" fill="white"/>
<path d="M145.377 52.9963H143.221L135.521 39.0803V52.9963H133.281V34.3203H135.521L143.137 47.9563V34.3203H145.377V52.9963Z" fill="white"/>
<path d="M129.369 52.9963H127.129V34.3203H129.369V52.9963Z" fill="white"/>
<path d="M118.807 53.3356C114.355 53.3356 111.555 49.2476 111.555 43.6756C111.555 38.0756 114.355 34.0156 118.807 34.0156C121.635 34.0156 123.259 35.7236 124.267 37.6556L122.419 38.5236C121.663 37.0116 120.431 36.0036 118.807 36.0036C115.783 36.0036 113.851 39.2516 113.851 43.6756C113.851 48.0996 115.783 51.3476 118.807 51.3476C120.515 51.3476 121.747 50.1716 122.447 48.5756L124.323 49.4436C123.287 51.5156 121.691 53.3356 118.807 53.3356Z" fill="white"/>
<path d="M102.25 53.3323C98.4978 53.3323 96.2578 51.0643 96.2578 46.9483V34.3203H98.4978V46.9763C98.4978 49.8603 99.8698 51.3443 102.25 51.3443C104.658 51.3443 106.03 49.8603 106.03 46.9763V34.3203H108.242V46.9483C108.242 51.0643 106.03 53.3323 102.25 53.3323Z" fill="white"/>
<path d="M85.4371 52.9963H80.4531V34.3203H85.4371C90.2811 34.3203 92.9411 38.3243 92.9411 43.6723C92.9411 49.0483 90.2811 52.9963 85.4371 52.9963ZM85.4371 51.0083C88.8811 51.0083 90.6451 47.8723 90.6451 43.6723C90.6451 39.4443 88.9091 36.2803 85.4371 36.2803H82.6931V51.0083H85.4371Z" fill="white"/>
<path d="M70.1029 53.3356C65.5669 53.3356 63.0469 49.0796 63.0469 43.6756C63.0469 38.2716 65.5669 34.0156 70.1029 34.0156C74.6389 34.0156 77.1869 38.2716 77.1869 43.6756C77.1869 49.0796 74.6389 53.3356 70.1029 53.3356ZM70.1029 51.3476C73.2109 51.3476 74.8909 47.9316 74.8909 43.6756C74.8909 39.3636 73.2109 36.0036 70.1029 36.0036C67.0229 36.0036 65.3429 39.3636 65.3429 43.6756C65.3429 47.9316 67.0229 51.3476 70.1029 51.3476Z" fill="white"/>
<path d="M60.4773 52.9963H57.9573L54.3733 45.5203H51.6853V52.9963H49.4453V34.3203H55.1573C58.1533 34.3203 60.2813 36.4763 60.2813 39.8923C60.2813 43.2243 58.4053 44.8483 56.5573 45.1843L60.4773 52.9963ZM54.9053 43.5603C56.8373 43.5603 57.9853 42.0483 57.9853 39.9203C57.9853 37.7923 56.8373 36.2803 54.9053 36.2803H51.6853V43.5603H54.9053Z" fill="white"/>
<path d="M38.0408 52.9963H35.8008V34.3203H41.4848C44.9008 34.3203 46.6368 36.8963 46.6368 39.9203C46.6368 42.9443 44.8728 45.5203 41.4848 45.5203H38.0408V52.9963ZM41.2608 43.5603C43.1928 43.5603 44.3408 42.0483 44.3408 39.9203C44.3408 37.7923 43.1928 36.2803 41.2608 36.2803H38.0408V43.5603H41.2608Z" fill="white"/>
<path d="M1164.25 18.3813C1164.25 20.0613 1163.27 21.6292 1162.01 22.5252L1161 21.7132C1161.9 21.0972 1162.68 20.0052 1162.79 19.1092C1162.74 19.1092 1162.54 19.1372 1162.43 19.1372C1161.67 19.1372 1161.11 18.5492 1161.11 17.7652C1161.11 16.9532 1161.73 16.2812 1162.57 16.2812C1163.47 16.2812 1164.25 17.0373 1164.25 18.3813Z" fill="white"/>
<path d="M1156.32 18.9963H1154.11V2.28031H1149.69V0.320312H1160.78V2.28031H1156.32V18.9963Z" fill="white"/>
<path d="M1147.02 18.9963H1144.86L1137.16 5.08031V18.9963H1134.92V0.320312H1137.16L1144.78 13.9563V0.320312H1147.02V18.9963Z" fill="white"/>
<path d="M1131.62 18.9963H1122.02V0.320312H1131.62V2.28031H1124.26V8.46831H1131.43V10.4283H1124.26V17.0083H1131.62V18.9963Z" fill="white"/>
<path d="M1118.11 18.9963H1115.92V4.32431L1110.94 18.9963H1110.07L1105.14 4.32431V18.9963H1102.9V0.320312H1106.01L1110.52 13.5923L1115.06 0.320312H1118.11V18.9963Z" fill="white"/>
<path d="M1091.5 18.9963H1089.26V0.320312H1094.94C1098.36 0.320312 1100.1 2.89631 1100.1 5.92031C1100.1 8.94431 1098.33 11.5203 1094.94 11.5203H1091.5V18.9963ZM1094.72 9.56031C1096.65 9.56031 1097.8 8.04831 1097.8 5.92031C1097.8 3.79231 1096.65 2.28031 1094.72 2.28031H1091.5V9.56031H1094.72Z" fill="white"/>
<path d="M1085.35 18.9963H1083.11V0.320312H1085.35V18.9963Z" fill="white"/>
<path d="M1073.16 19.3323C1069.41 19.3323 1067.17 17.0643 1067.17 12.9483V0.320312H1069.41V12.9763C1069.41 15.8603 1070.78 17.3443 1073.16 17.3443C1075.57 17.3443 1076.94 15.8603 1076.94 12.9763V0.320312H1079.15V12.9483C1079.15 17.0643 1076.94 19.3323 1073.16 19.3323Z" fill="white"/>
<path d="M1056.82 19.3356C1052.28 19.3356 1049.76 15.0796 1049.76 9.67563C1049.76 4.27163 1052.28 0.015625 1056.82 0.015625C1061.35 0.015625 1063.9 4.27163 1063.9 9.67563C1063.9 12.7836 1063.06 15.4996 1061.49 17.2636L1062.56 18.9156L1060.99 19.9236L1060.04 18.4676C1059.11 19.0276 1058.05 19.3356 1056.82 19.3356ZM1056.82 17.3476C1057.6 17.3476 1058.3 17.1236 1058.92 16.7316L1056.7 13.2876L1058.3 12.2796L1060.23 15.3316C1061.13 13.9316 1061.6 11.9156 1061.6 9.67563C1061.6 5.36363 1059.92 2.00362 1056.82 2.00362C1053.74 2.00362 1052.06 5.36363 1052.06 9.67563C1052.06 13.9316 1053.74 17.3476 1056.82 17.3476Z" fill="white"/>
<path d="M1047.1 18.9963H1037.5V0.320312H1047.1V2.28031H1039.74V8.46831H1046.91V10.4283H1039.74V17.0083H1047.1V18.9963Z" fill="white"/>
<path d="M1022.75 19.3356C1020.32 19.3356 1018.44 18.4116 1017.18 16.9836L1018.41 15.2756C1019.37 16.4236 1020.93 17.3476 1022.75 17.3476C1025.11 17.3476 1026.17 15.8916 1026.17 14.2956C1026.17 9.75963 1017.74 10.9356 1017.74 4.91563C1017.74 2.05963 1019.98 0.015625 1023.09 0.015625C1025.16 0.015625 1026.84 0.715625 1028.07 1.97563L1026.9 3.65563C1025.89 2.53563 1024.52 2.00362 1023.03 2.00362C1021.33 2.00362 1020.01 3.12363 1020.01 4.80363C1020.01 8.75163 1028.44 7.88363 1028.44 14.1556C1028.44 16.8996 1026.62 19.3356 1022.75 19.3356Z" fill="white"/>
<path d="M1011.29 18.9963H1009.08V2.28031H1004.66V0.320312H1015.74V2.28031H1011.29V18.9963Z" fill="white"/>
<path d="M1002.98 18.9963H1000.46L996.871 11.5203H994.183V18.9963H991.943V0.320312H997.655C1000.65 0.320312 1002.78 2.47631 1002.78 5.89231C1002.78 9.22431 1000.9 10.8483 999.055 11.1843L1002.98 18.9963ZM997.403 9.56031C999.335 9.56031 1000.48 8.04831 1000.48 5.92031C1000.48 3.79231 999.335 2.28031 997.403 2.28031H994.183V9.56031H997.403Z" fill="white"/>
<path d="M981.593 19.3356C977.057 19.3356 974.537 15.0796 974.537 9.67563C974.537 4.27163 977.057 0.015625 981.593 0.015625C986.129 0.015625 988.677 4.27163 988.677 9.67563C988.677 15.0796 986.129 19.3356 981.593 19.3356ZM981.593 17.3476C984.701 17.3476 986.381 13.9316 986.381 9.67563C986.381 5.36363 984.701 2.00362 981.593 2.00362C978.513 2.00362 976.833 5.36363 976.833 9.67563C976.833 13.9316 978.513 17.3476 981.593 17.3476Z" fill="white"/>
<path d="M963.777 18.9963H961.537V0.320312H967.221C970.637 0.320312 972.373 2.89631 972.373 5.92031C972.373 8.94431 970.609 11.5203 967.221 11.5203H963.777V18.9963ZM966.997 9.56031C968.929 9.56031 970.077 8.04831 970.077 5.92031C970.077 3.79231 968.929 2.28031 966.997 2.28031H963.777V9.56031H966.997Z" fill="white"/>
<path d="M952.808 19.3356C950.372 19.3356 948.496 18.4116 947.236 16.9836L948.468 15.2756C949.42 16.4236 950.988 17.3476 952.808 17.3476C955.16 17.3476 956.224 15.8916 956.224 14.2956C956.224 9.75963 947.796 10.9356 947.796 4.91563C947.796 2.05963 950.036 0.015625 953.144 0.015625C955.216 0.015625 956.896 0.715625 958.128 1.97563L956.952 3.65563C955.944 2.53563 954.572 2.00362 953.088 2.00362C951.38 2.00362 950.064 3.12363 950.064 4.80363C950.064 8.75163 958.492 7.88363 958.492 14.1556C958.492 16.8996 956.672 19.3356 952.808 19.3356Z" fill="white"/>
<path d="M939.155 18.9963H936.635L933.051 11.5203H930.363V18.9963H928.123V0.320312H933.835C936.831 0.320312 938.959 2.47631 938.959 5.89231C938.959 9.22431 937.083 10.8483 935.235 11.1843L939.155 18.9963ZM933.583 9.56031C935.515 9.56031 936.663 8.04831 936.663 5.92031C936.663 3.79231 935.515 2.28031 933.583 2.28031H930.363V9.56031H933.583Z" fill="white"/>
<path d="M924.821 18.9963H915.217V0.320312H924.821V2.28031H917.457V8.46831H924.625V10.4283H917.457V17.0083H924.821V18.9963Z" fill="white"/>
<path d="M908.097 18.9963H905.885V2.28031H901.461V0.320312H912.549V2.28031H908.097V18.9963Z" fill="white"/>
<path d="M898.793 18.9963H896.637L888.937 5.08031V18.9963H886.697V0.320312H888.937L896.553 13.9563V0.320312H898.793V18.9963Z" fill="white"/>
<path d="M882.785 18.9963H880.545V0.320312H882.785V18.9963Z" fill="white"/>
<path d="M873.998 18.9963H871.618L868.566 4.26831L865.542 18.9963H863.162L859.018 0.320312H861.398L864.45 15.5523L867.642 0.320312H869.518L872.71 15.5523L875.762 0.320312H878.142L873.998 18.9963Z" fill="white"/>
<path d="M850.604 18.9963H848.42V4.32431L843.436 18.9963H842.568L837.64 4.32431V18.9963H835.4V0.320312H838.508L843.016 13.5923L847.552 0.320312H850.604V18.9963Z" fill="white"/>
<path d="M825.451 19.3323C821.699 19.3323 819.459 17.0643 819.459 12.9483V0.320312H821.699V12.9763C821.699 15.8603 823.071 17.3443 825.451 17.3443C827.859 17.3443 829.231 15.8603 829.231 12.9763V0.320312H831.443V12.9483C831.443 17.0643 829.231 19.3323 825.451 19.3323Z" fill="white"/>
<path d="M815.547 18.9963H813.307V0.320312H815.547V18.9963Z" fill="white"/>
<path d="M809.397 18.9963H807.213V4.32431L802.229 18.9963H801.361L796.433 4.32431V18.9963H794.193V0.320312H797.301L801.809 13.5923L806.345 0.320312H809.397V18.9963Z" fill="white"/>
<path d="M790.891 18.9963H781.287V0.320312H790.891V2.28031H783.527V8.46831H790.695V10.4283H783.527V17.0083H790.891V18.9963Z" fill="white"/>
<path d="M778.073 18.9963H775.553L771.969 11.5203H769.281V18.9963H767.041V0.320312H772.753C775.749 0.320312 777.877 2.47631 777.877 5.89231C777.877 9.22431 776.001 10.8483 774.153 11.1843L778.073 18.9963ZM772.501 9.56031C774.433 9.56031 775.581 8.04831 775.581 5.92031C775.581 3.79231 774.433 2.28031 772.501 2.28031H769.281V9.56031H772.501Z" fill="white"/>
<path d="M755.636 18.9963H753.396V0.320312H759.08C762.496 0.320312 764.232 2.89631 764.232 5.92031C764.232 8.94431 762.468 11.5203 759.08 11.5203H755.636V18.9963ZM758.856 9.56031C760.788 9.56031 761.936 8.04831 761.936 5.92031C761.936 3.79231 760.788 2.28031 758.856 2.28031H755.636V9.56031H758.856Z" fill="white"/>
<path d="M743.455 18.9963H741.215V10.3723H733.543V18.9963H731.303V0.320312H733.543V8.41231H741.215V0.320312H743.455V18.9963Z" fill="white"/>
<path d="M724.183 18.9963H721.971V2.28031H717.547V0.320312H728.635V2.28031H724.183V18.9963Z" fill="white"/>
<path d="M714.894 18.9963H712.654V0.320312H714.894V18.9963Z" fill="white"/>
<path d="M706.107 18.9963H703.727L700.675 4.26831L697.651 18.9963H695.271L691.127 0.320312H693.507L696.559 15.5523L699.751 0.320312H701.627L704.819 15.5523L707.871 0.320312H710.251L706.107 18.9963Z" fill="white"/>
<path d="M677.894 19.3356C675.458 19.3356 673.582 18.4116 672.322 16.9836L673.554 15.2756C674.506 16.4236 676.074 17.3476 677.894 17.3476C680.246 17.3476 681.31 15.8916 681.31 14.2956C681.31 9.75963 672.882 10.9356 672.882 4.91563C672.882 2.05963 675.122 0.015625 678.23 0.015625C680.302 0.015625 681.982 0.715625 683.214 1.97563L682.038 3.65563C681.03 2.53563 679.658 2.00362 678.174 2.00362C676.466 2.00362 675.15 3.12363 675.15 4.80363C675.15 8.75163 683.578 7.88363 683.578 14.1556C683.578 16.8996 681.758 19.3356 677.894 19.3356Z" fill="white"/>
<path d="M663.521 19.3323C659.769 19.3323 657.529 17.0643 657.529 12.9483V0.320312H659.769V12.9763C659.769 15.8603 661.141 17.3443 663.521 17.3443C665.929 17.3443 667.301 15.8603 667.301 12.9763V0.320312H669.513V12.9483C669.513 17.0643 667.301 19.3323 663.521 19.3323Z" fill="white"/>
<path d="M647.179 19.3356C642.643 19.3356 640.123 15.0796 640.123 9.67563C640.123 4.27163 642.643 0.015625 647.179 0.015625C651.715 0.015625 654.263 4.27163 654.263 9.67563C654.263 15.0796 651.715 19.3356 647.179 19.3356ZM647.179 17.3476C650.287 17.3476 651.967 13.9316 651.967 9.67563C651.967 5.36363 650.287 2.00362 647.179 2.00362C644.099 2.00362 642.419 5.36363 642.419 9.67563C642.419 13.9316 644.099 17.3476 647.179 17.3476Z" fill="white"/>
<path d="M636.858 18.9963H634.674V4.32431L629.69 18.9963H628.822L623.894 4.32431V18.9963H621.654V0.320312H624.762L629.27 13.5923L633.806 0.320312H636.858V18.9963Z" fill="white"/>
<path d="M613.814 18.9963H611.602V11.1003L605.834 0.320312H608.326L612.722 8.94431L617.118 0.320312H619.582L613.814 11.1003V18.9963Z" fill="white"/>
<path d="M603.754 18.9963H601.598L593.898 5.08031V18.9963H591.658V0.320312H593.898L601.514 13.9563V0.320312H603.754V18.9963Z" fill="white"/>
<path d="M581.308 19.3356C576.772 19.3356 574.252 15.0796 574.252 9.67563C574.252 4.27163 576.772 0.015625 581.308 0.015625C585.844 0.015625 588.392 4.27163 588.392 9.67563C588.392 15.0796 585.844 19.3356 581.308 19.3356ZM581.308 17.3476C584.416 17.3476 586.096 13.9316 586.096 9.67563C586.096 5.36363 584.416 2.00362 581.308 2.00362C578.228 2.00362 576.548 5.36363 576.548 9.67563C576.548 13.9316 578.228 17.3476 581.308 17.3476Z" fill="white"/>
<path d="M570.969 18.9963H568.813L561.113 5.08031V18.9963H558.873V0.320312H561.113L568.729 13.9563V0.320312H570.969V18.9963Z" fill="white"/>
<path d="M551.033 18.9963H548.821V11.1003L543.053 0.320312H545.545L549.941 8.94431L554.337 0.320312H556.801L551.033 11.1003V18.9963Z" fill="white"/>
<path d="M536.336 19.3356C533.9 19.3356 532.024 18.4116 530.764 16.9836L531.996 15.2756C532.948 16.4236 534.516 17.3476 536.336 17.3476C538.688 17.3476 539.752 15.8916 539.752 14.2956C539.752 9.75963 531.324 10.9356 531.324 4.91563C531.324 2.05963 533.564 0.015625 536.672 0.015625C538.744 0.015625 540.424 0.715625 541.656 1.97563L540.48 3.65563C539.472 2.53563 538.1 2.00362 536.616 2.00362C534.908 2.00362 533.592 3.12363 533.592 4.80363C533.592 8.75163 542.02 7.88363 542.02 14.1556C542.02 16.8996 540.2 19.3356 536.336 19.3356Z" fill="white"/>
<path d="M522.594 18.9963H512.99V0.320312H522.594V2.28031H515.23V8.46831H522.398V10.4283H515.23V17.0083H522.594V18.9963Z" fill="white"/>
<path d="M509.081 18.9963H506.897V4.32431L501.913 18.9963H501.045L496.117 4.32431V18.9963H493.877V0.320312H496.985L501.493 13.5923L506.029 0.320312H509.081V18.9963Z" fill="white"/>
<path d="M483.527 19.3356C478.991 19.3356 476.471 15.0796 476.471 9.67563C476.471 4.27163 478.991 0.015625 483.527 0.015625C488.063 0.015625 490.611 4.27163 490.611 9.67563C490.611 15.0796 488.063 19.3356 483.527 19.3356ZM483.527 17.3476C486.635 17.3476 488.315 13.9316 488.315 9.67563C488.315 5.36363 486.635 2.00362 483.527 2.00362C480.447 2.00362 478.767 5.36363 478.767 9.67563C478.767 13.9316 480.447 17.3476 483.527 17.3476Z" fill="white"/>
<path d="M468.793 19.3356C464.341 19.3356 461.541 15.2476 461.541 9.67563C461.541 4.07563 464.341 0.015625 468.793 0.015625C471.621 0.015625 473.245 1.72363 474.253 3.65563L472.405 4.52363C471.649 3.01162 470.417 2.00362 468.793 2.00362C465.769 2.00362 463.837 5.25163 463.837 9.67563C463.837 14.0996 465.769 17.3476 468.793 17.3476C470.501 17.3476 471.733 16.1716 472.433 14.5756L474.309 15.4436C473.273 17.5156 471.677 19.3356 468.793 19.3356Z" fill="white"/>
<path d="M458.883 18.9963H449.279V0.320312H458.883V2.28031H451.519V8.46831H458.687V10.4283H451.519V17.0083H458.883V18.9963Z" fill="white"/>
<path d="M441.198 18.9963H434.842V0.320312H441.03C443.97 0.320312 445.65 2.25231 445.65 5.08031C445.65 7.43231 444.418 8.91631 442.794 9.36431C444.614 9.64431 445.958 11.7163 445.958 13.9563C445.958 16.9803 444.334 18.9963 441.198 18.9963ZM440.61 8.46831C442.514 8.46831 443.354 7.12431 443.354 5.38831C443.354 3.65231 442.514 2.28031 440.61 2.28031H437.082V8.46831H440.61ZM440.75 17.0083C442.682 17.0083 443.662 15.7763 443.662 13.7323C443.662 11.9683 442.738 10.4283 440.75 10.4283H437.082V17.0083H440.75Z" fill="white"/>
<path d="M420.097 19.3356C417.661 19.3356 415.785 18.4116 414.525 16.9836L415.757 15.2756C416.709 16.4236 418.277 17.3476 420.097 17.3476C422.449 17.3476 423.513 15.8916 423.513 14.2956C423.513 9.75963 415.085 10.9356 415.085 4.91563C415.085 2.05963 417.325 0.015625 420.433 0.015625C422.505 0.015625 424.185 0.715625 425.417 1.97563L424.241 3.65563C423.233 2.53563 421.861 2.00362 420.377 2.00362C418.669 2.00362 417.353 3.12363 417.353 4.80363C417.353 8.75163 425.781 7.88363 425.781 14.1556C425.781 16.8996 423.961 19.3356 420.097 19.3356Z" fill="white"/>
<path d="M413.688 18.9963H411.28L410.076 14.7683H403.44L402.236 18.9963H399.828L405.428 0.320312H408.088L413.688 18.9963ZM409.6 12.8083L406.744 2.78431L403.916 12.8083H409.6Z" fill="white"/>
<path d="M397.638 18.9963H395.398V10.3723H387.726V18.9963H385.486V0.320312H387.726V8.41231H395.398V0.320312H397.638V18.9963Z" fill="white"/>
<path d="M375.543 18.9963H373.387L365.687 5.08031V18.9963H363.447V0.320312H365.687L373.303 13.9563V0.320312H375.543V18.9963Z" fill="white"/>
<path d="M353.097 19.3356C348.561 19.3356 346.041 15.0796 346.041 9.67563C346.041 4.27163 348.561 0.015625 353.097 0.015625C357.633 0.015625 360.181 4.27163 360.181 9.67563C360.181 15.0796 357.633 19.3356 353.097 19.3356ZM353.097 17.3476C356.205 17.3476 357.885 13.9316 357.885 9.67563C357.885 5.36363 356.205 2.00362 353.097 2.00362C350.017 2.00362 348.337 5.36363 348.337 9.67563C348.337 13.9316 350.017 17.3476 353.097 17.3476Z" fill="white"/>
<path d="M342.776 18.9963H340.592V4.32431L335.608 18.9963H334.74L329.812 4.32431V18.9963H327.572V0.320312H330.68L335.188 13.5923L339.724 0.320312H342.776V18.9963Z" fill="white"/>
<path d="M317.222 19.3356C312.686 19.3356 310.166 15.0796 310.166 9.67563C310.166 4.27163 312.686 0.015625 317.222 0.015625C321.758 0.015625 324.306 4.27163 324.306 9.67563C324.306 15.0796 321.758 19.3356 317.222 19.3356ZM317.222 17.3476C320.33 17.3476 322.01 13.9316 322.01 9.67563C322.01 5.36363 320.33 2.00362 317.222 2.00362C314.142 2.00362 312.462 5.36363 312.462 9.67563C312.462 13.9316 314.142 17.3476 317.222 17.3476Z" fill="white"/>
<path d="M308.888 18.9963H299.9V0.320312H302.14V17.0083H308.888V18.9963Z" fill="white"/>
<path d="M297.723 18.9963H295.315L294.111 14.7683H287.475L286.271 18.9963H283.863L289.463 0.320312H292.123L297.723 18.9963ZM293.635 12.8083L290.779 2.78431L287.951 12.8083H293.635Z" fill="white"/>
<path d="M277.008 19.3356C274.572 19.3356 272.696 18.4116 271.436 16.9836L272.668 15.2756C273.62 16.4236 275.188 17.3476 277.008 17.3476C279.36 17.3476 280.424 15.8916 280.424 14.2956C280.424 9.75963 271.996 10.9356 271.996 4.91563C271.996 2.05963 274.236 0.015625 277.344 0.015625C279.416 0.015625 281.096 0.715625 282.328 1.97563L281.152 3.65563C280.144 2.53563 278.772 2.00362 277.288 2.00362C275.58 2.00362 274.264 3.12363 274.264 4.80363C274.264 8.75163 282.692 7.88363 282.692 14.1556C282.692 16.8996 280.872 19.3356 277.008 19.3356Z" fill="white"/>
<path d="M263.082 18.3813C263.082 20.0613 262.102 21.6292 260.842 22.5252L259.834 21.7132C260.73 21.0972 261.514 20.0052 261.626 19.1092C261.57 19.1092 261.374 19.1372 261.262 19.1372C260.506 19.1372 259.946 18.5492 259.946 17.7652C259.946 16.9532 260.562 16.2812 261.402 16.2812C262.298 16.2812 263.082 17.0373 263.082 18.3813Z" fill="white"/>
<path d="M253.846 18.9963H251.466L257.318 2.28031H249.422V0.320312H259.81V1.86031L253.846 18.9963Z" fill="white"/>
<path d="M246.008 18.9963H243.796V14.2083H236.404V12.2763L243.152 0.320312H246.008V12.2483H248.052V14.2083H246.008V18.9963ZM243.796 12.2483V2.72831L238.448 12.2483H243.796Z" fill="white"/>
<path d="M228.112 19.3076C226.152 19.3076 224.696 18.3836 223.772 16.9836L225.004 15.4156C225.704 16.5916 226.572 17.3196 228.112 17.3196C231.136 17.3196 232.172 13.3716 232.172 9.87163C232.172 9.61963 232.172 9.53563 232.172 9.28363C231.528 10.6276 229.988 12.0556 228.056 12.0556C225.34 12.0556 223.156 10.0676 223.156 6.09163C223.156 2.92763 225.088 0.015625 228.532 0.015625C232.984 0.015625 234.44 4.69163 234.44 9.67563C234.44 14.6876 232.62 19.3076 228.112 19.3076ZM228.616 10.1236C230.184 10.1236 231.444 8.77963 232.116 7.26763C232.004 5.16763 231.276 2.00362 228.644 2.00362C226.404 2.00362 225.424 4.10363 225.424 6.03563C225.424 9.00363 226.852 10.1236 228.616 10.1236Z" fill="white"/>
<path d="M220.008 18.9963H217.796V3.26031L214.912 6.34031L213.568 4.94031L218.048 0.320312H220.008V18.9963Z" fill="white"/>
<path d="M205.164 18.9963H203.008L195.308 5.08031V18.9963H193.068V0.320312H195.308L202.924 13.9563V0.320312H205.164V18.9963Z" fill="white"/>
<path d="M189.156 18.9963H186.916V0.320312H189.156V18.9963Z" fill="white"/>
<path d="M177.598 18.9963H167.994V0.320312H177.598V2.28031H170.234V8.46831H177.402V10.4283H170.234V17.0083H177.598V18.9963Z" fill="white"/>
<path d="M159.672 19.3356C155.22 19.3356 152.42 15.2476 152.42 9.67563C152.42 4.07563 155.22 0.015625 159.672 0.015625C162.5 0.015625 164.124 1.72363 165.132 3.65563L163.284 4.52363C162.528 3.01162 161.296 2.00362 159.672 2.00362C156.648 2.00362 154.716 5.25163 154.716 9.67563C154.716 14.0996 156.648 17.3476 159.672 17.3476C161.38 17.3476 162.612 16.1716 163.312 14.5756L165.188 15.4436C164.152 17.5156 162.556 19.3356 159.672 19.3356Z" fill="white"/>
<path d="M149.137 18.9963H146.981L139.281 5.08031V18.9963H137.041V0.320312H139.281L146.897 13.9563V0.320312H149.137V18.9963Z" fill="white"/>
<path d="M134.864 18.9963H132.456L131.252 14.7683H124.616L123.412 18.9963H121.004L126.604 0.320312H129.264L134.864 18.9963ZM130.776 12.8083L127.92 2.78431L125.092 12.8083H130.776Z" fill="white"/>
<path d="M119.526 18.9963H117.006L113.422 11.5203H110.734V18.9963H108.494V0.320312H114.206C117.202 0.320312 119.33 2.47631 119.33 5.89231C119.33 9.22431 117.454 10.8483 115.606 11.1843L119.526 18.9963ZM113.954 9.56031C115.886 9.56031 117.034 8.04831 117.034 5.92031C117.034 3.79231 115.886 2.28031 113.954 2.28031H110.734V9.56031H113.954Z" fill="white"/>
<path d="M98.1013 18.9963H95.8613V0.320312H105.465V2.28031H98.1013V8.46831H105.269V10.4283H98.1013V18.9963Z" fill="white"/>
<path d="M85.9183 18.9963H83.7623L76.0623 5.08031V18.9963H73.8223V0.320312H76.0623L83.6783 13.9563V0.320312H85.9183V18.9963Z" fill="white"/>
<path d="M69.9099 18.9963H67.6699V0.320312H69.9099V18.9963Z" fill="white"/>
<path d="M57.7269 18.9963H55.5709L47.8709 5.08031V18.9963H45.6309V0.320312H47.8709L55.4869 13.9563V0.320312H57.7269V18.9963Z" fill="white"/>
<path d="M42.4168 18.9963H39.8968L36.3128 11.5203H33.6248V18.9963H31.3848V0.320312H37.0968C40.0928 0.320312 42.2208 2.47631 42.2208 5.89231C42.2208 9.22431 40.3448 10.8483 38.4968 11.1843L42.4168 18.9963ZM36.8448 9.56031C38.7768 9.56031 39.9248 8.04831 39.9248 5.92031C39.9248 3.79231 38.7768 2.28031 36.8448 2.28031H33.6248V9.56031H36.8448Z" fill="white"/>
<path d="M21.0345 19.3356C16.4985 19.3356 13.9785 15.0796 13.9785 9.67563C13.9785 4.27163 16.4985 0.015625 21.0345 0.015625C25.5705 0.015625 28.1185 4.27163 28.1185 9.67563C28.1185 15.0796 25.5705 19.3356 21.0345 19.3356ZM21.0345 17.3476C24.1425 17.3476 25.8225 13.9316 25.8225 9.67563C25.8225 5.36363 24.1425 2.00362 21.0345 2.00362C17.9545 2.00362 16.2745 5.36363 16.2745 9.67563C16.2745 13.9316 17.9545 17.3476 21.0345 17.3476Z" fill="white"/>
<path d="M6.54155 18.9963H0.185547V0.320312H6.37355C9.31355 0.320312 10.9935 2.25231 10.9935 5.08031C10.9935 7.43231 9.76155 8.91631 8.13755 9.36431C9.95755 9.64431 11.3015 11.7163 11.3015 13.9563C11.3015 16.9803 9.67755 18.9963 6.54155 18.9963ZM5.95355 8.46831C7.85755 8.46831 8.69755 7.12431 8.69755 5.38831C8.69755 3.65231 7.85755 2.28031 5.95355 2.28031H2.42555V8.46831H5.95355ZM6.09355 17.0083C8.02555 17.0083 9.00555 15.7763 9.00555 13.7323C9.00555 11.9683 8.08155 10.4283 6.09355 10.4283H2.42555V17.0083H6.09355Z" fill="white"/>
</svg>
