<svg width="860" height="84" viewBox="0 0 860 84" fill="none" xmlns="http://www.w3.org/2000/svg">
<path d="M766 84V66.6H832.6L838.36 61.8V55.2L832.6 50.4H781.72L764.08 35.52V14.88L781.72 0H854.68V17.4H791.2L785.44 22.2V27.96L791.2 32.76H842.08L859.72 47.64V69.12L842.08 84H766Z" fill="white"/>
<path d="M684.73 84V66.84H706.21V17.16H684.73V0H749.05V17.16H727.57V66.84H749.05V84H684.73Z" fill="white"/>
<path d="M589.102 84L566.662 65.28V18.72L589.102 0H649.102L671.542 18.72V65.28L649.102 84H589.102ZM598.702 66H639.502L650.182 57V27L639.502 18H598.702L588.022 27V57L598.702 66Z" fill="white"/>
<path d="M485.391 84L462.951 65.28V18.72L485.391 0H553.551V18H494.991L484.311 27V57L494.991 66H553.551V84H485.391Z" fill="white"/>
<path d="M342.904 84V0H374.824L417.424 62.4H420.184V0H440.704V84H408.784L366.184 21.6H363.424V84H342.904Z" fill="white"/>
<path d="M284.23 0L327.79 77.64V84H307.03L298.03 67.32H241.75L232.75 84H212.59V77.64L256.03 0H284.23ZM251.35 49.32H288.43L271.51 17.76H268.39L251.35 49.32Z" fill="white"/>
<path d="M103.607 84V0H179.927L199.367 16.68V41.16L181.967 56.04L202.127 77.64V84H180.167L157.247 58.32H124.967V84H103.607ZM124.967 40.56H169.847L178.007 33.72V24.6L169.847 17.76H124.967V40.56Z" fill="white"/>
<path d="M0.599609 84V0H88.6796V18H21.9596V38.4H72.9596V55.68H21.9596V84H0.599609Z" fill="white"/>
</svg>
