<svg width="35" height="16" viewBox="0 0 35 16" fill="none" xmlns="http://www.w3.org/2000/svg">
<path d="M29.7275 15.7422C27.5186 15.7422 26.4141 14.1602 26.4141 10.9961V4.3252C26.4141 1.43652 27.6797 -0.0078125 30.2109 -0.0078125C31.2539 -0.0078125 32.0537 0.203125 32.6104 0.625C33.167 1.04102 33.5508 1.65039 33.7617 2.45312C33.9727 3.25586 34.0781 4.23437 34.0781 5.38867H31.0547V4.01758C31.0547 3.68359 31.0078 3.40527 30.9141 3.18262C30.8262 2.9541 30.6387 2.83984 30.3516 2.83984C29.9941 2.83984 29.7568 2.95996 29.6396 3.2002C29.5283 3.44043 29.4727 3.7041 29.4727 3.99121V11.4883C29.4727 11.9043 29.5254 12.2441 29.6309 12.5078C29.7422 12.7656 29.9561 12.8945 30.2725 12.8945C30.6006 12.8945 30.8174 12.7656 30.9229 12.5078C31.0342 12.2441 31.0898 11.8984 31.0898 11.4707V9.26465H30.2637V6.59277H34.043V15.6016L32.8037 15.6016L32.2764 14.3008C31.7373 15.2617 30.8877 15.7422 29.7275 15.7422Z" fill="#C4F56A"/>
<path d="M17.6641 15.6016L17.6641 0.132812L21.918 0.132812C23.0312 0.132812 23.8691 0.443359 24.4316 1.06445C24.9941 1.67969 25.2754 2.58203 25.2754 3.77148V11.0137C25.2754 12.4785 25.0176 13.6094 24.502 14.4062C23.9922 15.2031 23.0957 15.6016 21.8125 15.6016H17.6641ZM20.7754 12.8682H21.3115C21.8799 12.8682 22.1641 12.5928 22.1641 12.042V4.06152C22.1641 3.5459 22.0938 3.21484 21.9531 3.06836C21.8184 2.91602 21.54 2.83984 21.1182 2.83984H20.7754V12.8682Z" fill="#C4F56A"/>
<path d="M12.6855 15.7422C11.9883 15.7422 11.3525 15.6074 10.7783 15.3379C10.2041 15.0684 9.74707 14.6699 9.40723 14.1426C9.07324 13.6094 8.90625 12.9561 8.90625 12.1826V8.30664H11.9648L11.9648 11.998C11.9648 12.2676 12.0176 12.4844 12.123 12.6484C12.2344 12.8125 12.4102 12.8945 12.6504 12.8945C13.1133 12.8945 13.3447 12.6104 13.3447 12.042L13.3447 0.132812L16.4648 0.132812V11.7344C16.4648 12.5547 16.3037 13.2666 15.9814 13.8701C15.6592 14.4678 15.2139 14.9307 14.6455 15.2588C14.0771 15.5811 13.4238 15.7422 12.6855 15.7422Z" fill="#C4F56A"/>
<path d="M0.59375 7.02539L0.59375 4.40625H3.74023L3.74023 7.02539H0.59375ZM0.59375 13.5205L0.59375 10.9014H3.74023L3.74023 13.5205H0.59375Z" fill="#C4F56A"/>
</svg>
