<svg width="1259" height="88" viewBox="0 0 1259 88" fill="none" xmlns="http://www.w3.org/2000/svg">
<path d="M1216.14 87V1.0625H1233.23V31.7754H1241.34V1.0625H1258.43V87H1241.34V48.0352H1233.23V87H1216.14Z" fill="white"/>
<path d="M1183.97 87V17.5664H1173.77V1.0625H1211.36V17.5664H1201.16V87H1183.97Z" fill="white"/>
<path d="M1153.16 87V1.0625H1169.76V87H1153.16Z" fill="white"/>
<path d="M1089.49 87L1080.26 1.0625H1097.05L1101.79 55.3105L1106.62 1.0625H1122.64L1127.23 55.3105L1131.82 1.0625H1148.81L1139.44 87H1118.83L1114.54 45.6426L1110.43 87H1089.49Z" fill="white"/>
<path d="M1009.5 87V1.0625H1027.18L1035.09 42.2246V1.0625H1051.69V87H1034.89L1026.3 44.0312V87H1009.5Z" fill="white"/>
<path d="M986.062 87V1.0625H1002.66V87H986.062Z" fill="white"/>
<path d="M956.033 87.7812C943.761 87.7812 937.625 78.9922 937.625 61.4141V24.3535C937.625 8.30534 944.656 0.28125 958.719 0.28125C964.513 0.28125 968.956 1.45312 972.049 3.79688C975.141 6.10807 977.273 9.49349 978.445 13.9531C979.617 18.4128 980.203 23.849 980.203 30.2617H963.406V22.6445C963.406 20.7891 963.146 19.2428 962.625 18.0059C962.137 16.7363 961.095 16.1016 959.5 16.1016C957.514 16.1016 956.196 16.7689 955.545 18.1035C954.926 19.4382 954.617 20.903 954.617 22.498V64.1484C954.617 66.4596 954.91 68.3477 955.496 69.8125C956.115 71.2448 957.303 71.9609 959.061 71.9609C960.883 71.9609 962.088 71.2448 962.674 69.8125C963.292 68.3477 963.602 66.4271 963.602 64.0508V51.7949H959.012V36.9512H980.008V87H973.123L970.193 79.7734C967.199 85.112 962.479 87.7812 956.033 87.7812Z" fill="white"/>
<path d="M897.102 87V1.0625H931.477V17.6641H914.582V34.4121H930.793V50.5742H914.582V70.252H932.6V87H897.102Z" fill="white"/>
<path d="M849.25 87V1.0625H872.541C878.791 1.0625 883.332 2.59245 886.164 5.65234C889.029 8.67969 890.461 13.6927 890.461 20.6914V24.4512C890.461 28.4876 889.729 31.7591 888.264 34.2656C886.831 36.7721 884.634 38.416 881.672 39.1973C885.546 40.1738 888.133 42.4688 889.436 46.082C890.77 49.6628 891.438 54.041 891.438 59.2168C891.438 64.7832 890.917 69.6497 889.875 73.8164C888.833 77.9831 886.945 81.222 884.211 83.5332C881.477 85.8444 877.587 87 872.541 87H849.25ZM866.047 33.4355H869.562C871.158 33.4355 872.183 32.8171 872.639 31.5801C873.094 30.3431 873.322 28.862 873.322 27.1367V18.4941C873.322 15.7272 872.102 14.3438 869.66 14.3438H866.047V33.4355ZM867.756 71.8633C872.215 71.8633 874.445 69.7474 874.445 65.5156V54.7734C874.445 52.332 874.071 50.4115 873.322 49.0117C872.606 47.5794 871.239 46.8633 869.221 46.8633H866.047V71.7656C866.763 71.8307 867.333 71.8633 867.756 71.8633Z" fill="white"/>
<path d="M784.602 87V1.0625H818.977V17.6641H802.082V34.4121H818.293V50.5742H802.082V70.252H820.1V87H784.602Z" fill="white"/>
<path d="M744.859 87V1.0625H762.047V72.3516H779.723V87H744.859Z" fill="white"/>
<path d="M710.627 87V58.7285L696.906 1.0625H713.947L718.732 30.1641L723.518 1.0625H740.51L726.838 58.7285V87H710.627Z" fill="white"/>
<path d="M668.049 87V17.5664H657.844V1.0625H695.441V17.5664H685.236V87H668.049Z" fill="white"/>
<path d="M634.895 87.7812C627.049 87.7812 621.385 85.8281 617.902 81.9219C614.452 78.0156 612.727 71.7982 612.727 63.2695V54.8711H629.719V65.6133C629.719 67.599 630.012 69.1615 630.598 70.3008C631.216 71.4076 632.274 71.9609 633.771 71.9609C635.334 71.9609 636.408 71.5052 636.994 70.5938C637.613 69.6823 637.922 68.1849 637.922 66.1016C637.922 63.4648 637.661 61.2676 637.141 59.5098C636.62 57.7194 635.708 56.0267 634.406 54.4316C633.137 52.804 631.363 50.916 629.084 48.7676L621.369 41.4434C615.607 36.0072 612.727 29.7897 612.727 22.791C612.727 15.4668 614.419 9.88411 617.805 6.04297C621.223 2.20182 626.154 0.28125 632.6 0.28125C640.477 0.28125 646.06 2.38086 649.348 6.58008C652.668 10.7793 654.328 17.1595 654.328 25.7207H636.848V19.8125C636.848 18.6406 636.506 17.7292 635.822 17.0781C635.171 16.4271 634.276 16.1016 633.137 16.1016C631.77 16.1016 630.76 16.4922 630.109 17.2734C629.491 18.0221 629.182 18.9987 629.182 20.2031C629.182 21.4076 629.507 22.7096 630.158 24.1094C630.809 25.5091 632.095 27.1204 634.016 28.9434L643.928 38.4648C645.913 40.3529 647.736 42.3548 649.396 44.4707C651.057 46.554 652.391 48.9954 653.4 51.7949C654.41 54.5618 654.914 57.9473 654.914 61.9512C654.914 70.0241 653.417 76.3555 650.422 80.9453C647.46 85.5026 642.284 87.7812 634.895 87.7812Z" fill="white"/>
<path d="M543.391 87V1.0625H569.758C574.152 1.0625 577.473 2.07161 579.719 4.08984C581.965 6.07552 583.462 8.875 584.211 12.4883C584.992 16.069 585.383 20.2845 585.383 25.1348C585.383 29.8223 584.781 33.5658 583.576 36.3652C582.404 39.1647 580.174 41.1016 576.887 42.1758C579.589 42.7292 581.477 44.0801 582.551 46.2285C583.658 48.3444 584.211 51.0951 584.211 54.4805V87H567.268V53.3574C567.268 50.8509 566.747 49.3047 565.705 48.7188C564.696 48.1003 563.052 47.791 560.773 47.791V87H543.391ZM560.871 32.8984H565.021C567.398 32.8984 568.586 30.3105 568.586 25.1348C568.586 21.7819 568.326 19.5846 567.805 18.543C567.284 17.5013 566.307 16.9805 564.875 16.9805H560.871V32.8984Z" fill="white"/>
<path d="M515.898 87.7812C508.737 87.7812 503.464 85.7793 500.078 81.7754C496.693 77.7389 495 71.8145 495 64.002V1.0625H511.699V63.3184C511.699 64.7507 511.781 66.1341 511.943 67.4688C512.106 68.7708 512.48 69.8451 513.066 70.6914C513.652 71.5378 514.596 71.9609 515.898 71.9609C517.233 71.9609 518.193 71.554 518.779 70.7402C519.365 69.8939 519.723 68.8034 519.854 67.4688C520.016 66.1341 520.098 64.7507 520.098 63.3184V1.0625H536.797V64.002C536.797 71.8145 535.104 77.7389 531.719 81.7754C528.333 85.7793 523.06 87.7812 515.898 87.7812Z" fill="white"/>
<path d="M467.902 87.7812C461.034 87.7812 455.777 85.7142 452.131 81.5801C448.518 77.4134 446.711 71.4076 446.711 63.5625V22.7422C446.711 15.3854 448.501 9.80273 452.082 5.99414C455.695 2.18555 460.969 0.28125 467.902 0.28125C474.836 0.28125 480.093 2.18555 483.674 5.99414C487.287 9.80273 489.094 15.3854 489.094 22.7422V63.5625C489.094 71.4076 487.271 77.4134 483.625 81.5801C480.012 85.7142 474.771 87.7812 467.902 87.7812ZM468.049 71.9609C470.653 71.9609 471.955 69.4382 471.955 64.3926V22.4492C471.955 18.2174 470.686 16.1016 468.146 16.1016C465.282 16.1016 463.85 18.2663 463.85 22.5957V64.4902C463.85 67.1595 464.175 69.0801 464.826 70.252C465.477 71.3913 466.551 71.9609 468.049 71.9609Z" fill="white"/>
<path d="M413.166 87V58.7285L399.445 1.0625H416.486L421.271 30.1641L426.057 1.0625H443.049L429.377 58.7285V87H413.166Z" fill="white"/>
<path d="M353.543 87.7812C345.698 87.7812 340.034 85.8281 336.551 81.9219C333.1 78.0156 331.375 71.7982 331.375 63.2695V54.8711H348.367V65.6133C348.367 67.599 348.66 69.1615 349.246 70.3008C349.865 71.4076 350.923 71.9609 352.42 71.9609C353.982 71.9609 355.057 71.5052 355.643 70.5938C356.261 69.6823 356.57 68.1849 356.57 66.1016C356.57 63.4648 356.31 61.2676 355.789 59.5098C355.268 57.7194 354.357 56.0267 353.055 54.4316C351.785 52.804 350.011 50.916 347.732 48.7676L340.018 41.4434C334.256 36.0072 331.375 29.7897 331.375 22.791C331.375 15.4668 333.068 9.88411 336.453 6.04297C339.871 2.20182 344.803 0.28125 351.248 0.28125C359.126 0.28125 364.708 2.38086 367.996 6.58008C371.316 10.7793 372.977 17.1595 372.977 25.7207H355.496V19.8125C355.496 18.6406 355.154 17.7292 354.471 17.0781C353.82 16.4271 352.924 16.1016 351.785 16.1016C350.418 16.1016 349.409 16.4922 348.758 17.2734C348.139 18.0221 347.83 18.9987 347.83 20.2031C347.83 21.4076 348.156 22.7096 348.807 24.1094C349.458 25.5091 350.743 27.1204 352.664 28.9434L362.576 38.4648C364.562 40.3529 366.385 42.3548 368.045 44.4707C369.705 46.554 371.04 48.9954 372.049 51.7949C373.058 54.5618 373.562 57.9473 373.562 61.9512C373.562 70.0241 372.065 76.3555 369.07 80.9453C366.108 85.5026 360.932 87.7812 353.543 87.7812Z" fill="white"/>
<path d="M291.922 87V1.0625H326.297V17.6641H309.402V34.4121H325.613V50.5742H309.402V70.252H327.42V87H291.922Z" fill="white"/>
<path d="M263.801 87.7812C256.932 87.7812 251.675 85.7142 248.029 81.5801C244.416 77.4134 242.609 71.4076 242.609 63.5625V22.7422C242.609 15.3854 244.4 9.80273 247.98 5.99414C251.594 2.18555 256.867 0.28125 263.801 0.28125C270.734 0.28125 275.992 2.18555 279.572 5.99414C283.186 9.80273 284.992 15.3854 284.992 22.7422V63.5625C284.992 71.4076 283.169 77.4134 279.523 81.5801C275.91 85.7142 270.669 87.7812 263.801 87.7812ZM263.947 71.9609C266.551 71.9609 267.854 69.4382 267.854 64.3926V22.4492C267.854 18.2174 266.584 16.1016 264.045 16.1016C261.18 16.1016 259.748 18.2663 259.748 22.5957V64.4902C259.748 67.1595 260.074 69.0801 260.725 70.252C261.376 71.3913 262.45 71.9609 263.947 71.9609Z" fill="white"/>
<path d="M193.977 87V1.0625H217.609C223.794 1.0625 228.449 2.78776 231.574 6.23828C234.699 9.65625 236.262 14.6693 236.262 21.2773V61.5117C236.262 69.6497 234.829 75.9323 231.965 80.3594C229.133 84.7865 224.152 87 217.023 87H193.977ZM211.262 71.8145H214.24C217.398 71.8145 218.977 70.2845 218.977 67.2246V22.8887C218.977 20.0241 218.586 18.1849 217.805 17.3711C217.056 16.5247 215.51 16.1016 213.166 16.1016H211.262V71.8145Z" fill="white"/>
<path d="M106.088 87L96.8594 1.0625H113.656L118.393 55.3105L123.227 1.0625H139.242L143.832 55.3105L148.422 1.0625H165.414L156.039 87H135.434L131.137 45.6426L127.035 87H106.088Z" fill="white"/>
<path d="M71.2227 87.7812C64.3542 87.7812 59.097 85.7142 55.4512 81.5801C51.8379 77.4134 50.0312 71.4076 50.0312 63.5625V22.7422C50.0312 15.3854 51.8216 9.80273 55.4023 5.99414C59.0156 2.18555 64.2891 0.28125 71.2227 0.28125C78.1562 0.28125 83.4134 2.18555 86.9941 5.99414C90.6074 9.80273 92.4141 15.3854 92.4141 22.7422V63.5625C92.4141 71.4076 90.5911 77.4134 86.9453 81.5801C83.332 85.7142 78.0911 87.7812 71.2227 87.7812ZM71.3691 71.9609C73.9733 71.9609 75.2754 69.4382 75.2754 64.3926V22.4492C75.2754 18.2174 74.0059 16.1016 71.4668 16.1016C68.6022 16.1016 67.1699 18.2663 67.1699 22.5957V64.4902C67.1699 67.1595 67.4954 69.0801 68.1465 70.252C68.7975 71.3913 69.8717 71.9609 71.3691 71.9609Z" fill="white"/>
<path d="M0.8125 87V1.0625H17.9023V31.7754H26.0078V1.0625H43.0977V87H26.0078V48.0352H17.9023V87H0.8125Z" fill="white"/>
</svg>
