<svg width="272" height="86" viewBox="0 0 272 86" fill="none" xmlns="http://www.w3.org/2000/svg">
<path d="M241.174 86V57.7285L227.453 0.0625H244.494L249.279 29.1641L254.064 0.0625H271.057L257.385 57.7285V86H241.174Z" fill="#C4F56A"/>
<path d="M181.461 86V0.0625H205.094C211.279 0.0625 215.934 1.78776 219.059 5.23828C222.184 8.65625 223.746 13.6693 223.746 20.2773V60.5117C223.746 68.6497 222.314 74.9323 219.449 79.3594C216.617 83.7865 211.637 86 204.508 86H181.461ZM198.746 70.8145H201.725C204.882 70.8145 206.461 69.2845 206.461 66.2246V21.8887C206.461 19.0241 206.07 17.1849 205.289 16.3711C204.54 15.5247 202.994 15.1016 200.65 15.1016H198.746V70.8145Z" fill="#C4F56A"/>
<path d="M131.656 86V0.0625H149.332L157.242 41.2246V0.0625H173.844V86H157.047L148.453 43.0312V86H131.656Z" fill="#C4F56A"/>
<path d="M90.4453 86V0.0625H124.82V16.6641H107.926V33.4121H124.137V49.5742H107.926V69.252H125.943V86H90.4453Z" fill="#C4F56A"/>
<path d="M42.7891 86V0.0625H69.1562C73.5508 0.0625 76.8711 1.07161 79.1172 3.08984C81.3633 5.07552 82.8607 7.875 83.6094 11.4883C84.3906 15.069 84.7812 19.2845 84.7812 24.1348C84.7812 28.8223 84.179 32.5658 82.9746 35.3652C81.8027 38.1647 79.5729 40.1016 76.2852 41.1758C78.987 41.7292 80.875 43.0801 81.9492 45.2285C83.056 47.3444 83.6094 50.0951 83.6094 53.4805V86H66.666V52.3574C66.666 49.8509 66.1452 48.3047 65.1035 47.7188C64.0944 47.1003 62.4505 46.791 60.1719 46.791V86H42.7891ZM60.2695 31.8984H64.4199C66.7962 31.8984 67.9844 29.3105 67.9844 24.1348C67.9844 20.7819 67.724 18.5846 67.2031 17.543C66.6823 16.5013 65.7057 15.9805 64.2734 15.9805H60.2695V31.8984Z" fill="#C4F56A"/>
<path d="M10.6113 86V16.5664H0.40625V0.0625H38.0039V16.5664H27.7988V86H10.6113Z" fill="#C4F56A"/>
</svg>
