<svg width="857" height="88" viewBox="0 0 857 88" fill="none" xmlns="http://www.w3.org/2000/svg">
<path d="M820.797 87V1.0625H855.172V17.6641H838.277V34.4121H854.488V50.5742H838.277V70.252H856.295V87H820.797Z" fill="white"/>
<path d="M781.055 87V1.0625H798.242V72.3516H815.918V87H781.055Z" fill="white"/>
<path d="M746.83 87V58.7285L733.109 1.0625H750.15L754.936 30.1641L759.721 1.0625H776.713L763.041 58.7285V87H746.83Z" fill="white"/>
<path d="M704.252 87V17.5664H694.047V1.0625H731.645V17.5664H721.439V87H704.252Z" fill="white"/>
<path d="M671.09 87.7812C663.245 87.7812 657.581 85.8281 654.098 81.9219C650.647 78.0156 648.922 71.7982 648.922 63.2695V54.8711H665.914V65.6133C665.914 67.599 666.207 69.1615 666.793 70.3008C667.411 71.4076 668.469 71.9609 669.967 71.9609C671.529 71.9609 672.604 71.5052 673.189 70.5938C673.808 69.6823 674.117 68.1849 674.117 66.1016C674.117 63.4648 673.857 61.2676 673.336 59.5098C672.815 57.7194 671.904 56.0267 670.602 54.4316C669.332 52.804 667.558 50.916 665.279 48.7676L657.564 41.4434C651.803 36.0072 648.922 29.7897 648.922 22.791C648.922 15.4668 650.615 9.88411 654 6.04297C657.418 2.20182 662.35 0.28125 668.795 0.28125C676.673 0.28125 682.255 2.38086 685.543 6.58008C688.863 10.7793 690.523 17.1595 690.523 25.7207H673.043V19.8125C673.043 18.6406 672.701 17.7292 672.018 17.0781C671.367 16.4271 670.471 16.1016 669.332 16.1016C667.965 16.1016 666.956 16.4922 666.305 17.2734C665.686 18.0221 665.377 18.9987 665.377 20.2031C665.377 21.4076 665.702 22.7096 666.354 24.1094C667.005 25.5091 668.29 27.1204 670.211 28.9434L680.123 38.4648C682.109 40.3529 683.932 42.3548 685.592 44.4707C687.252 46.554 688.587 48.9954 689.596 51.7949C690.605 54.5618 691.109 57.9473 691.109 61.9512C691.109 70.0241 689.612 76.3555 686.617 80.9453C683.655 85.5026 678.479 87.7812 671.09 87.7812Z" fill="white"/>
<path d="M577.438 87V1.0625H595.113L603.023 42.2246V1.0625H619.625V87H602.828L594.234 44.0312V87H577.438Z" fill="white"/>
<path d="M549.316 87.7812C542.448 87.7812 537.191 85.7142 533.545 81.5801C529.932 77.4134 528.125 71.4076 528.125 63.5625V22.7422C528.125 15.3854 529.915 9.80273 533.496 5.99414C537.109 2.18555 542.383 0.28125 549.316 0.28125C556.25 0.28125 561.507 2.18555 565.088 5.99414C568.701 9.80273 570.508 15.3854 570.508 22.7422V63.5625C570.508 71.4076 568.685 77.4134 565.039 81.5801C561.426 85.7142 556.185 87.7812 549.316 87.7812ZM549.463 71.9609C552.067 71.9609 553.369 69.4382 553.369 64.3926V22.4492C553.369 18.2174 552.1 16.1016 549.561 16.1016C546.696 16.1016 545.264 18.2663 545.264 22.5957V64.4902C545.264 67.1595 545.589 69.0801 546.24 70.252C546.891 71.3913 547.965 71.9609 549.463 71.9609Z" fill="white"/>
<path d="M454.203 87V1.0625H480.375L487.602 53.4551L494.779 1.0625H521.195V87H505.473V25.0859L495.609 87H480.18L469.73 25.0859V87H454.203Z" fill="white"/>
<path d="M426.074 87.7812C419.206 87.7812 413.949 85.7142 410.303 81.5801C406.689 77.4134 404.883 71.4076 404.883 63.5625V22.7422C404.883 15.3854 406.673 9.80273 410.254 5.99414C413.867 2.18555 419.141 0.28125 426.074 0.28125C433.008 0.28125 438.265 2.18555 441.846 5.99414C445.459 9.80273 447.266 15.3854 447.266 22.7422V63.5625C447.266 71.4076 445.443 77.4134 441.797 81.5801C438.184 85.7142 432.943 87.7812 426.074 87.7812ZM426.221 71.9609C428.825 71.9609 430.127 69.4382 430.127 64.3926V22.4492C430.127 18.2174 428.857 16.1016 426.318 16.1016C423.454 16.1016 422.021 18.2663 422.021 22.5957V64.4902C422.021 67.1595 422.347 69.0801 422.998 70.252C423.649 71.3913 424.723 71.9609 426.221 71.9609Z" fill="white"/>
<path d="M365.82 87V1.0625H383.008V72.3516H400.684V87H365.82Z" fill="white"/>
<path d="M314.938 87L323.238 1.0625H352.389L360.543 87H344.283L343.062 73.1328H332.711L331.637 87H314.938ZM333.932 59.4121H341.744L337.984 15.7109H337.203L333.932 59.4121Z" fill="white"/>
<path d="M291.504 87.7812C283.659 87.7812 277.995 85.8281 274.512 81.9219C271.061 78.0156 269.336 71.7982 269.336 63.2695V54.8711H286.328V65.6133C286.328 67.599 286.621 69.1615 287.207 70.3008C287.826 71.4076 288.883 71.9609 290.381 71.9609C291.943 71.9609 293.018 71.5052 293.604 70.5938C294.222 69.6823 294.531 68.1849 294.531 66.1016C294.531 63.4648 294.271 61.2676 293.75 59.5098C293.229 57.7194 292.318 56.0267 291.016 54.4316C289.746 52.804 287.972 50.916 285.693 48.7676L277.979 41.4434C272.217 36.0072 269.336 29.7897 269.336 22.791C269.336 15.4668 271.029 9.88411 274.414 6.04297C277.832 2.20182 282.764 0.28125 289.209 0.28125C297.087 0.28125 302.669 2.38086 305.957 6.58008C309.277 10.7793 310.938 17.1595 310.938 25.7207H293.457V19.8125C293.457 18.6406 293.115 17.7292 292.432 17.0781C291.781 16.4271 290.885 16.1016 289.746 16.1016C288.379 16.1016 287.37 16.4922 286.719 17.2734C286.1 18.0221 285.791 18.9987 285.791 20.2031C285.791 21.4076 286.117 22.7096 286.768 24.1094C287.419 25.5091 288.704 27.1204 290.625 28.9434L300.537 38.4648C302.523 40.3529 304.346 42.3548 306.006 44.4707C307.666 46.554 309.001 48.9954 310.01 51.7949C311.019 54.5618 311.523 57.9473 311.523 61.9512C311.523 70.0241 310.026 76.3555 307.031 80.9453C304.069 85.5026 298.893 87.7812 291.504 87.7812Z" fill="white"/>
<path d="M221.871 87.7812C214.026 87.7812 208.362 85.8281 204.879 81.9219C201.428 78.0156 199.703 71.7982 199.703 63.2695V54.8711H216.695V65.6133C216.695 67.599 216.988 69.1615 217.574 70.3008C218.193 71.4076 219.251 71.9609 220.748 71.9609C222.311 71.9609 223.385 71.5052 223.971 70.5938C224.589 69.6823 224.898 68.1849 224.898 66.1016C224.898 63.4648 224.638 61.2676 224.117 59.5098C223.596 57.7194 222.685 56.0267 221.383 54.4316C220.113 52.804 218.339 50.916 216.061 48.7676L208.346 41.4434C202.584 36.0072 199.703 29.7897 199.703 22.791C199.703 15.4668 201.396 9.88411 204.781 6.04297C208.199 2.20182 213.131 0.28125 219.576 0.28125C227.454 0.28125 233.036 2.38086 236.324 6.58008C239.645 10.7793 241.305 17.1595 241.305 25.7207H223.824V19.8125C223.824 18.6406 223.482 17.7292 222.799 17.0781C222.148 16.4271 221.253 16.1016 220.113 16.1016C218.746 16.1016 217.737 16.4922 217.086 17.2734C216.467 18.0221 216.158 18.9987 216.158 20.2031C216.158 21.4076 216.484 22.7096 217.135 24.1094C217.786 25.5091 219.072 27.1204 220.992 28.9434L230.904 38.4648C232.89 40.3529 234.713 42.3548 236.373 44.4707C238.033 46.554 239.368 48.9954 240.377 51.7949C241.386 54.5618 241.891 57.9473 241.891 61.9512C241.891 70.0241 240.393 76.3555 237.398 80.9453C234.436 85.5026 229.26 87.7812 221.871 87.7812Z" fill="white"/>
<path d="M183.156 32.1172L178.273 1.0625H195.461L191.75 32.1172H183.156Z" fill="white"/>
<path d="M147.9 87V17.5664H137.695V1.0625H175.293V17.5664H165.088V87H147.9Z" fill="white"/>
<path d="M90.9219 87L99.2227 1.0625H128.373L136.527 87H120.268L119.047 73.1328H108.695L107.621 87H90.9219ZM109.916 59.4121H117.729L113.969 15.7109H113.188L109.916 59.4121Z" fill="white"/>
<path d="M43.3594 87V1.0625H60.4492V31.7754H68.5547V1.0625H85.6445V87H68.5547V48.0352H60.4492V87H43.3594Z" fill="white"/>
<path d="M11.1816 87V17.5664H0.976562V1.0625H38.5742V17.5664H28.3691V87H11.1816Z" fill="white"/>
</svg>
