<svg width="33" height="16" viewBox="0 0 33 16" fill="none" xmlns="http://www.w3.org/2000/svg">
<path d="M29.6719 7.42383V4.80469H32.8184V7.42383H29.6719ZM29.6719 13.9189V11.2998H32.8184V13.9189H29.6719Z" fill="white"/>
<path d="M19.3838 16V10.9111L16.9141 0.53125L19.9814 0.53125L20.8428 5.76953L21.7041 0.53125L24.7627 0.53125L22.3018 10.9111V16H19.3838Z" fill="white"/>
<path d="M8.77344 16L10.2676 0.53125L15.5146 0.53125L16.9824 16L14.0557 16L13.8359 13.5039H11.9727L11.7793 16H8.77344ZM12.1924 11.0342H13.5986L12.9219 3.16797H12.7812L12.1924 11.0342Z" fill="white"/>
<path d="M0.6875 16L0.6875 0.53125L3.74609 0.53125L3.74609 6.72754L5.1875 0.53125L8.29883 0.53125L6.56738 7.61523L8.65918 16L5.45117 16L3.76367 8.51172L3.76367 16H0.6875Z" fill="white"/>
</svg>
