<svg width="453" height="88" viewBox="0 0 453 88" fill="none" xmlns="http://www.w3.org/2000/svg">
<path d="M411.404 64.7832V44.4707C415.473 44.4707 418.956 44.2591 421.854 43.8359C424.783 43.4128 427.176 42.5176 429.031 41.1504C430.919 39.7832 432.303 37.7161 433.182 34.9492C434.093 32.1823 434.549 28.4714 434.549 23.8164C434.549 21.7005 434.272 19.8451 433.719 18.25C433.198 16.6549 431.961 15.8574 430.008 15.8574C428.608 15.8574 427.583 16.3132 426.932 17.2246C426.281 18.1035 425.857 19.2428 425.662 20.6426C425.499 22.0098 425.418 23.4421 425.418 24.9395V32.0684H407.547V19.666C407.547 13.0905 409.63 8.22396 413.797 5.06641C417.996 1.8763 423.4 0.28125 430.008 0.28125C435.802 0.28125 440.359 1.32292 443.68 3.40625C447.033 5.48958 449.409 8.5332 450.809 12.5371C452.241 16.5085 452.957 21.375 452.957 27.1367C452.957 32.7682 452.029 37.7975 450.174 42.2246C448.351 46.6517 445.568 50.1348 441.824 52.6738C438.081 55.2129 433.361 56.4824 427.664 56.4824V64.7832H411.404ZM410.867 86.9512V72.4004H428.348V86.9512H410.867Z" fill="white"/>
<path d="M338.312 87V1.0625H361.018C365.77 1.0625 369.53 2.12044 372.297 4.23633C375.096 6.35221 377.098 9.36328 378.303 13.2695C379.507 17.1758 380.109 21.8307 380.109 27.2344C380.109 32.4427 379.605 36.9837 378.596 40.8574C377.587 44.6986 375.78 47.6771 373.176 49.793C370.604 51.9089 366.942 52.9668 362.189 52.9668H355.207V87H338.312ZM355.207 37.5371H356.184C359.374 37.5371 361.327 36.6419 362.043 34.8516C362.759 33.0612 363.117 30.4245 363.117 26.9414C363.117 23.6862 362.759 21.1797 362.043 19.4219C361.359 17.6315 359.715 16.7363 357.111 16.7363H355.207V37.5371Z" fill="white"/>
<path d="M297.102 87V1.0625H331.477V17.6641H314.582V34.4121H330.793V50.5742H314.582V70.252H332.6V87H297.102Z" fill="white"/>
<path d="M264.924 87V17.5664H254.719V1.0625H292.316V17.5664H282.111V87H264.924Z" fill="white"/>
<path d="M231.77 87.7812C223.924 87.7812 218.26 85.8281 214.777 81.9219C211.327 78.0156 209.602 71.7982 209.602 63.2695V54.8711H226.594V65.6133C226.594 67.599 226.887 69.1615 227.473 70.3008C228.091 71.4076 229.149 71.9609 230.646 71.9609C232.209 71.9609 233.283 71.5052 233.869 70.5938C234.488 69.6823 234.797 68.1849 234.797 66.1016C234.797 63.4648 234.536 61.2676 234.016 59.5098C233.495 57.7194 232.583 56.0267 231.281 54.4316C230.012 52.804 228.238 50.916 225.959 48.7676L218.244 41.4434C212.482 36.0072 209.602 29.7897 209.602 22.791C209.602 15.4668 211.294 9.88411 214.68 6.04297C218.098 2.20182 223.029 0.28125 229.475 0.28125C237.352 0.28125 242.935 2.38086 246.223 6.58008C249.543 10.7793 251.203 17.1595 251.203 25.7207H233.723V19.8125C233.723 18.6406 233.381 17.7292 232.697 17.0781C232.046 16.4271 231.151 16.1016 230.012 16.1016C228.645 16.1016 227.635 16.4922 226.984 17.2734C226.366 18.0221 226.057 18.9987 226.057 20.2031C226.057 21.4076 226.382 22.7096 227.033 24.1094C227.684 25.5091 228.97 27.1204 230.891 28.9434L240.803 38.4648C242.788 40.3529 244.611 42.3548 246.271 44.4707C247.932 46.554 249.266 48.9954 250.275 51.7949C251.285 54.5618 251.789 57.9473 251.789 61.9512C251.789 70.0241 250.292 76.3555 247.297 80.9453C244.335 85.5026 239.159 87.7812 231.77 87.7812Z" fill="white"/>
<path d="M138.016 87V1.0625H155.105V31.7754H163.211V1.0625H180.301V87H163.211V48.0352H155.105V87H138.016Z" fill="white"/>
<path d="M110.578 87.7812C104.361 87.7812 99.3477 85.8444 95.5391 81.9707C91.763 78.097 89.875 72.6771 89.875 65.7109V26.0625C89.875 17.7292 91.5189 11.349 94.8066 6.92188C98.127 2.49479 103.514 0.28125 110.969 0.28125C115.038 0.28125 118.651 1.02995 121.809 2.52734C124.999 4.02474 127.505 6.27083 129.328 9.26562C131.151 12.2279 132.062 15.9714 132.062 20.4961V35.3398H114.973V22.6445C114.973 20.0729 114.647 18.3477 113.996 17.4688C113.345 16.5573 112.336 16.1016 110.969 16.1016C109.374 16.1016 108.299 16.6875 107.746 17.8594C107.193 18.9987 106.916 20.5286 106.916 22.4492V65.4668C106.916 67.8431 107.258 69.5195 107.941 70.4961C108.658 71.4727 109.667 71.9609 110.969 71.9609C112.434 71.9609 113.459 71.3587 114.045 70.1543C114.663 68.9499 114.973 67.3874 114.973 65.4668V49.9883H132.258V66.248C132.258 73.8001 130.354 79.2852 126.545 82.7031C122.736 86.0885 117.414 87.7812 110.578 87.7812Z" fill="white"/>
<path d="M39.6797 87L47.9805 1.0625H77.1309L85.2852 87H69.0254L67.8047 73.1328H57.4531L56.3789 87H39.6797ZM58.6738 59.4121H66.4863L62.7266 15.7109H61.9453L58.6738 59.4121Z" fill="white"/>
<path d="M0.8125 87V1.0625H35.1875V17.6641H18.293V34.4121H34.5039V50.5742H18.293V70.252H36.3105V87H0.8125Z" fill="white"/>
</svg>
