<svg width="239" height="26" viewBox="0 0 239 26" fill="none" xmlns="http://www.w3.org/2000/svg">
<path d="M236.213 25.0021H235.107V16.6441H232.895V15.6641H238.439V16.6441H236.213V25.0021Z" fill="#999999"/>
<path d="M231.562 25.0021H230.484L226.634 18.0441V25.0021H225.514V15.6641H226.634L230.442 22.4821V15.6641H231.562V25.0021Z" fill="#999999"/>
<path d="M223.863 25.0021H219.061V15.6641H223.863V16.6441H220.181V19.7381H223.765V20.7181H220.181V24.0081H223.863V25.0021Z" fill="#999999"/>
<path d="M217.106 25.0021H216.014V17.6661L213.522 25.0021H213.088L210.624 17.6661V25.0021H209.504V15.6641H211.058L213.312 22.3001L215.58 15.6641H217.106V25.0021Z" fill="#999999"/>
<path d="M207.54 25.0021H206.462L202.612 18.0441V25.0021H201.492V15.6641H202.612L206.42 22.4821V15.6641H207.54V25.0021Z" fill="#999999"/>
<path d="M196.317 25.1678C194.049 25.1678 192.789 23.0398 192.789 20.3378C192.789 17.6358 194.049 15.5078 196.317 15.5078C198.585 15.5078 199.859 17.6358 199.859 20.3378C199.859 23.0398 198.585 25.1678 196.317 25.1678ZM196.317 24.1738C197.871 24.1738 198.711 22.4658 198.711 20.3378C198.711 18.1818 197.871 16.5018 196.317 16.5018C194.777 16.5018 193.937 18.1818 193.937 20.3378C193.937 22.4658 194.777 24.1738 196.317 24.1738Z" fill="#999999"/>
<path d="M191.504 25.0021H190.244L188.452 21.2641H187.108V25.0021H185.988V15.6641H188.844C190.342 15.6641 191.406 16.7421 191.406 18.4501C191.406 20.1161 190.468 20.9281 189.544 21.0961L191.504 25.0021ZM188.718 20.2841C189.684 20.2841 190.258 19.5281 190.258 18.4641C190.258 17.4001 189.684 16.6441 188.718 16.6441H187.108V20.2841H188.718Z" fill="#999999"/>
<path d="M184.032 25.0021H182.912V15.6641H184.032V25.0021Z" fill="#999999"/>
<path d="M179.023 25.0021H177.693L174.893 15.6641H176.097L178.351 23.6721L180.619 15.6641H181.823L179.023 25.0021Z" fill="#999999"/>
<path d="M173.798 25.0021H172.72L168.87 18.0441V25.0021H167.75V15.6641H168.87L172.678 22.4821V15.6641H173.798V25.0021Z" fill="#999999"/>
<path d="M166.099 25.0021H161.297V15.6641H166.099V16.6441H162.417V19.7381H166.001V20.7181H162.417V24.0081H166.099V25.0021Z" fill="#999999"/>
<path d="M154.369 25.0021H153.263V21.0541L150.379 15.6641H151.625L153.823 19.9761L156.021 15.6641H157.253L154.369 21.0541V25.0021Z" fill="#999999"/>
<path d="M149.339 25.0021H148.261L144.411 18.0441V25.0021H143.291V15.6641H144.411L148.219 22.4821V15.6641H149.339V25.0021Z" fill="#999999"/>
<path d="M142.201 25.0021H140.997L140.395 22.8881H137.077L136.475 25.0021H135.271L138.071 15.6641H139.401L142.201 25.0021ZM140.157 21.9081L138.729 16.8961L137.315 21.9081H140.157Z" fill="#999999"/>
<path d="M131.169 25.0021H130.091L126.241 18.0441V25.0021H125.121V15.6641H126.241L130.049 22.4821V15.6641H131.169V25.0021Z" fill="#999999"/>
<path d="M123.165 25.0021H122.045V15.6641H123.165V25.0021Z" fill="#999999"/>
<path d="M117.386 25.0021H112.584V15.6641H117.386V16.6441H113.704V19.7381H117.288V20.7181H113.704V24.0081H117.386V25.0021Z" fill="#999999"/>
<path d="M108.423 25.1678C106.197 25.1678 104.797 23.1238 104.797 20.3378C104.797 17.5378 106.197 15.5078 108.423 15.5078C109.837 15.5078 110.649 16.3618 111.153 17.3278L110.229 17.7618C109.851 17.0058 109.235 16.5018 108.423 16.5018C106.911 16.5018 105.945 18.1258 105.945 20.3378C105.945 22.5498 106.911 24.1738 108.423 24.1738C109.277 24.1738 109.893 23.5858 110.243 22.7878L111.181 23.2218C110.663 24.2578 109.865 25.1678 108.423 25.1678Z" fill="#999999"/>
<path d="M103.155 25.0021H102.077L98.2274 18.0441V25.0021H97.1074V15.6641H98.2274L102.035 22.4821V15.6641H103.155V25.0021Z" fill="#999999"/>
<path d="M96.0179 25.0021H94.8139L94.2119 22.8881H90.8939L90.2919 25.0021H89.0879L91.8879 15.6641H93.2179L96.0179 25.0021ZM93.9739 21.9081L92.5459 16.8961L91.1319 21.9081H93.9739Z" fill="#999999"/>
<path d="M88.0024 25.0021H86.9104V17.6661L84.4184 25.0021H83.9844L81.5204 17.6661V25.0021H80.4004V15.6641H81.9544L84.2084 22.3001L86.4764 15.6641H88.0024V25.0021Z" fill="#999999"/>
<path d="M78.7933 25.0021H77.5333L75.7413 21.2641H74.3973V25.0021H73.2773V15.6641H76.1333C77.6313 15.6641 78.6953 16.7421 78.6953 18.4501C78.6953 20.1161 77.7573 20.9281 76.8333 21.0961L78.7933 25.0021ZM76.0073 20.2841C76.9733 20.2841 77.5473 19.5281 77.5473 18.4641C77.5473 17.4001 76.9733 16.6441 76.0073 16.6441H74.3973V20.2841H76.0073Z" fill="#999999"/>
<path d="M68.1022 25.1678C65.8342 25.1678 64.5742 23.0398 64.5742 20.3378C64.5742 17.6358 65.8342 15.5078 68.1022 15.5078C70.3702 15.5078 71.6442 17.6358 71.6442 20.3378C71.6442 23.0398 70.3702 25.1678 68.1022 25.1678ZM68.1022 24.1738C69.6562 24.1738 70.4962 22.4658 70.4962 20.3378C70.4962 18.1818 69.6562 16.5018 68.1022 16.5018C66.5622 16.5018 65.7222 18.1818 65.7222 20.3378C65.7222 22.4658 66.5622 24.1738 68.1022 24.1738Z" fill="#999999"/>
<path d="M59.7001 25.0021H58.5801V15.6641H63.3821V16.6441H59.7001V19.7381H63.2841V20.7181H59.7001V25.0021Z" fill="#999999"/>
<path d="M56.973 25.0021H55.713L53.921 21.2641H52.577V25.0021H51.457V15.6641H54.313C55.811 15.6641 56.875 16.7421 56.875 18.4501C56.875 20.1161 55.937 20.9281 55.013 21.0961L56.973 25.0021ZM54.187 20.2841C55.153 20.2841 55.727 19.5281 55.727 18.4641C55.727 17.4001 55.153 16.6441 54.187 16.6441H52.577V20.2841H54.187Z" fill="#999999"/>
<path d="M49.8059 25.0021H45.0039V15.6641H49.8059V16.6441H46.1239V19.7381H49.7079V20.7181H46.1239V24.0081H49.8059V25.0021Z" fill="#999999"/>
<path d="M39.3016 25.0021H38.1816V15.6641H41.0236C42.7316 15.6641 43.5996 16.9521 43.5996 18.4641C43.5996 19.9761 42.7176 21.2641 41.0236 21.2641H39.3016V25.0021ZM40.9116 20.2841C41.8776 20.2841 42.4516 19.5281 42.4516 18.4641C42.4516 17.4001 41.8776 16.6441 40.9116 16.6441H39.3016V20.2841H40.9116Z" fill="#999999"/>
<path d="M31.6129 25.0021H30.5069V16.6441H28.2949V15.6641H33.8389V16.6441H31.6129V25.0021Z" fill="#999999"/>
<path d="M28.4788 25.0021H27.2748L26.6728 22.8881H23.3548L22.7528 25.0021H21.5488L24.3488 15.6641H25.6788L28.4788 25.0021ZM26.4348 21.9081L25.0068 16.8961L23.5928 21.9081H26.4348Z" fill="#999999"/>
<path d="M20.7668 25.0021H15.9648V15.6641H20.7668V16.6441H17.0848V19.7381H20.6688V20.7181H17.0848V24.0081H20.7668V25.0021Z" fill="#999999"/>
<path d="M14.3578 25.0021H13.0978L11.3058 21.2641H9.9618V25.0021H8.8418V15.6641H11.6978C13.1958 15.6641 14.2598 16.7421 14.2598 18.4501C14.2598 20.1161 13.3218 20.9281 12.3978 21.0961L14.3578 25.0021ZM11.5718 20.2841C12.5378 20.2841 13.1118 19.5281 13.1118 18.4641C13.1118 17.4001 12.5378 16.6441 11.5718 16.6441H9.9618V20.2841H11.5718Z" fill="#999999"/>
<path d="M4.2842 25.1818C2.1002 25.1818 0.658203 23.2218 0.658203 20.3378C0.658203 17.4538 2.1002 15.5078 4.2842 15.5078C5.6562 15.5078 6.5102 16.2778 7.0562 17.2718L6.1602 17.7338C5.7682 17.0058 5.1382 16.5018 4.2842 16.5018C2.7862 16.5018 1.8062 18.0558 1.8062 20.3378C1.8062 22.6058 2.7862 24.1738 4.2842 24.1738C5.0682 24.1738 5.6982 23.7958 6.0342 23.3898V21.2058H3.8082V20.2258H7.0982V23.8098C6.4122 24.6638 5.4602 25.1818 4.2842 25.1818Z" fill="#999999"/>
<path d="M203.888 10.0021H199.086V0.664062H203.888V1.64406H200.206V4.73806H203.79V5.71806H200.206V9.00806H203.888V10.0021Z" fill="#999999"/>
<path d="M194.925 10.1678C192.699 10.1678 191.299 8.12381 191.299 5.33781C191.299 2.53781 192.699 0.507812 194.925 0.507812C196.339 0.507812 197.151 1.36181 197.655 2.32781L196.731 2.76181C196.353 2.00581 195.737 1.50181 194.925 1.50181C193.413 1.50181 192.447 3.12581 192.447 5.33781C192.447 7.54981 193.413 9.17381 194.925 9.17381C195.779 9.17381 196.395 8.58581 196.745 7.78781L197.683 8.22181C197.165 9.25781 196.367 10.1678 194.925 10.1678Z" fill="#999999"/>
<path d="M189.657 10.0021H188.579L184.729 3.04406V10.0021H183.609V0.664062H184.729L188.537 7.48206V0.664062H189.657V10.0021Z" fill="#999999"/>
<path d="M181.958 10.0021H177.156V0.664062H181.958V1.64406H178.276V4.73806H181.86V5.71806H178.276V9.00806H181.958V10.0021Z" fill="#999999"/>
<path d="M175.2 10.0021H174.08V0.664062H175.2V10.0021Z" fill="#999999"/>
<path d="M172.473 10.0021H171.213L169.421 6.26406H168.077V10.0021H166.957V0.664062H169.813C171.311 0.664062 172.375 1.74206 172.375 3.45006C172.375 5.11606 171.437 5.92806 170.513 6.09606L172.473 10.0021ZM169.687 5.28406C170.653 5.28406 171.227 4.52806 171.227 3.46406C171.227 2.40006 170.653 1.64406 169.687 1.64406H168.077V5.28406H169.687Z" fill="#999999"/>
<path d="M165.306 10.0021H160.504V0.664062H165.306V1.64406H161.624V4.73806H165.208V5.71806H161.624V9.00806H165.306V10.0021Z" fill="#999999"/>
<path d="M154.802 10.0021H153.682V0.664062H156.524C158.232 0.664062 159.1 1.95206 159.1 3.46406C159.1 4.97606 158.218 6.26406 156.524 6.26406H154.802V10.0021ZM156.412 5.28406C157.378 5.28406 157.952 4.52806 157.952 3.46406C157.952 2.40006 157.378 1.64406 156.412 1.64406H154.802V5.28406H156.412Z" fill="#999999"/>
<path d="M152.592 10.0021H151.304L149.134 6.13806L146.964 10.0021H145.676L148.462 5.22806L145.83 0.664062H147.132L149.134 4.33206L151.136 0.664062H152.438L149.806 5.22806L152.592 10.0021Z" fill="#999999"/>
<path d="M144.894 10.0021H140.092V0.664062H144.894V1.64406H141.212V4.73806H144.796V5.71806H141.212V9.00806H144.894V10.0021Z" fill="#999999"/>
<path d="M131.674 10.0021H129.182V0.664062H131.674C134.096 0.664062 135.426 2.66606 135.426 5.34006C135.426 8.02806 134.096 10.0021 131.674 10.0021ZM131.674 9.00806C133.396 9.00806 134.278 7.44006 134.278 5.34006C134.278 3.22606 133.41 1.64406 131.674 1.64406H130.302V9.00806H131.674Z" fill="#999999"/>
<path d="M127.218 10.0021H126.14L122.29 3.04406V10.0021H121.17V0.664062H122.29L126.098 7.48206V0.664062H127.218V10.0021Z" fill="#999999"/>
<path d="M120.08 10.0021H118.876L118.274 7.88806H114.956L114.354 10.0021H113.15L115.95 0.664062H117.28L120.08 10.0021ZM118.036 6.90806L116.608 1.89606L115.194 6.90806H118.036Z" fill="#999999"/>
<path d="M107.451 10.0021H106.345V1.64406H104.133V0.664062H109.677V1.64406H107.451V10.0021Z" fill="#999999"/>
<path d="M103.113 10.0021H98.3105V0.664062H103.113V1.64406H99.4305V4.73806H103.015V5.71806H99.4305V9.00806H103.113V10.0021Z" fill="#999999"/>
<path d="M96.6594 10.0021H91.8574V0.664062H96.6594V1.64406H92.9774V4.73806H96.5614V5.71806H92.9774V9.00806H96.6594V10.0021Z" fill="#999999"/>
<path d="M86.661 10.0021H85.541V0.664062H90.343V1.64406H86.661V4.73806H90.245V5.71806H86.661V10.0021Z" fill="#999999"/>
<path d="M80.9262 10.0021H79.6662L77.8742 6.26406H76.5302V10.0021H75.4102V0.664062H78.2662C79.7642 0.664062 80.8282 1.74206 80.8282 3.45006C80.8282 5.11606 79.8902 5.92806 78.9662 6.09606L80.9262 10.0021ZM78.1402 5.28406C79.1062 5.28406 79.6802 4.52806 79.6802 3.46406C79.6802 2.40006 79.1062 1.64406 78.1402 1.64406H76.5302V5.28406H78.1402Z" fill="#999999"/>
<path d="M70.4354 10.1701C68.5594 10.1701 67.4395 9.03606 67.4395 6.97806V0.664062H68.5594V6.99206C68.5594 8.43406 69.2454 9.17606 70.4354 9.17606C71.6394 9.17606 72.3254 8.43406 72.3254 6.99206V0.664062H73.4314V6.97806C73.4314 9.03606 72.3254 10.1701 70.4354 10.1701Z" fill="#999999"/>
<path d="M62.2643 10.1678C59.9963 10.1678 58.7363 8.03981 58.7363 5.33781C58.7363 2.63581 59.9963 0.507812 62.2643 0.507812C64.5323 0.507812 65.8063 2.63581 65.8063 5.33781C65.8063 8.03981 64.5323 10.1678 62.2643 10.1678ZM62.2643 9.17381C63.8183 9.17381 64.6583 7.46581 64.6583 5.33781C64.6583 3.18181 63.8183 1.50181 62.2643 1.50181C60.7243 1.50181 59.8843 3.18181 59.8843 5.33781C59.8843 7.46581 60.7243 9.17381 62.2643 9.17381Z" fill="#999999"/>
<path d="M55.5349 10.0021H54.4289V6.05406L51.5449 0.664062H52.7909L54.9889 4.97606L57.1869 0.664062H58.4189L55.5349 6.05406V10.0021Z" fill="#999999"/>
<path d="M45.9 10.0021H44.794V1.64406H42.582V0.664062H48.126V1.64406H45.9V10.0021Z" fill="#999999"/>
<path d="M39.0518 10.1678C36.8258 10.1678 35.4258 8.12381 35.4258 5.33781C35.4258 2.53781 36.8258 0.507812 39.0518 0.507812C40.4658 0.507812 41.2778 1.36181 41.7818 2.32781L40.8578 2.76181C40.4798 2.00581 39.8638 1.50181 39.0518 1.50181C37.5398 1.50181 36.5738 3.12581 36.5738 5.33781C36.5738 7.54981 37.5398 9.17381 39.0518 9.17381C39.9058 9.17381 40.5218 8.58581 40.8718 7.78781L41.8098 8.22181C41.2918 9.25781 40.4938 10.1678 39.0518 10.1678Z" fill="#999999"/>
<path d="M34.0969 10.0021H29.2949V0.664062H34.0969V1.64406H30.4149V4.73806H33.9989V5.71806H30.4149V9.00806H34.0969V10.0021Z" fill="#999999"/>
<path d="M25.734 10.0021H24.628V1.64406H22.416V0.664062H27.96V1.64406H25.734V10.0021Z" fill="#999999"/>
<path d="M18.1315 10.1678C15.8635 10.1678 14.6035 8.03981 14.6035 5.33781C14.6035 2.63581 15.8635 0.507812 18.1315 0.507812C20.3995 0.507812 21.6735 2.63581 21.6735 5.33781C21.6735 8.03981 20.3995 10.1678 18.1315 10.1678ZM18.1315 9.17381C19.6855 9.17381 20.5255 7.46581 20.5255 5.33781C20.5255 3.18181 19.6855 1.50181 18.1315 1.50181C16.5915 1.50181 15.7515 3.18181 15.7515 5.33781C15.7515 7.46581 16.5915 9.17381 18.1315 9.17381Z" fill="#999999"/>
<path d="M13.3187 10.0021H12.0587L10.2667 6.26406H8.92273V10.0021H7.80273V0.664062H10.6587C12.1567 0.664062 13.2207 1.74206 13.2207 3.45006C13.2207 5.11606 12.2827 5.92806 11.3587 6.09606L13.3187 10.0021ZM10.5327 5.28406C11.4987 5.28406 12.0727 4.52806 12.0727 3.46406C12.0727 2.40006 11.4987 1.64406 10.5327 1.64406H8.92273V5.28406H10.5327Z" fill="#999999"/>
<path d="M2.10047 10.0021H0.980469V0.664062H3.82247C5.53047 0.664062 6.39847 1.95206 6.39847 3.46406C6.39847 4.97606 5.51647 6.26406 3.82247 6.26406H2.10047V10.0021ZM3.71047 5.28406C4.67647 5.28406 5.25047 4.52806 5.25047 3.46406C5.25047 2.40006 4.67647 1.64406 3.71047 1.64406H2.10047V5.28406H3.71047Z" fill="#999999"/>
</svg>
