<svg width="626" height="18" viewBox="0 0 626 18" fill="none" xmlns="http://www.w3.org/2000/svg">
<path d="M620.198 17.2866C618.11 17.2866 616.502 16.4946 615.422 15.2706L616.478 13.8066C617.294 14.7906 618.638 15.5826 620.198 15.5826C622.214 15.5826 623.126 14.3346 623.126 12.9666C623.126 9.07856 615.902 10.0866 615.902 4.92656C615.902 2.47856 617.822 0.726562 620.486 0.726562C622.262 0.726562 623.702 1.32656 624.758 2.40656L623.75 3.84656C622.886 2.88656 621.71 2.43056 620.438 2.43056C618.974 2.43056 617.846 3.39056 617.846 4.83056C617.846 8.21456 625.07 7.47056 625.07 12.8466C625.07 15.1986 623.51 17.2866 620.198 17.2866Z" fill="#404040"/>
<path d="M613.576 17.0002H605.344V0.992188H613.576V2.67219H607.264V7.97619H613.408V9.65619H607.264V15.2962H613.576V17.0002Z" fill="#404040"/>
<path d="M598.21 17.2866C594.394 17.2866 591.994 13.7826 591.994 9.00656C591.994 4.20656 594.394 0.726562 598.21 0.726562C600.634 0.726562 602.026 2.19056 602.89 3.84656L601.306 4.59056C600.658 3.29456 599.602 2.43056 598.21 2.43056C595.618 2.43056 593.962 5.21456 593.962 9.00656C593.962 12.7986 595.618 15.5826 598.21 15.5826C599.674 15.5826 600.73 14.5746 601.33 13.2066L602.938 13.9506C602.05 15.7266 600.682 17.2866 598.21 17.2866Z" fill="#404040"/>
<path d="M589.18 17.0002H587.333L580.732 5.07219V17.0002H578.812V0.992188H580.732L587.26 12.6802V0.992188H589.18V17.0002Z" fill="#404040"/>
<path d="M575.982 17.0002H567.75V0.992188H575.982V2.67219H569.67V7.97619H575.814V9.65619H569.67V15.2962H575.982V17.0002Z" fill="#404040"/>
<path d="M564.397 17.0002H562.477V0.992188H564.397V17.0002Z" fill="#404040"/>
<path d="M559.722 17.0002H557.562L554.49 10.5922H552.186V17.0002H550.266V0.992188H555.162C557.73 0.992188 559.554 2.84019 559.554 5.76819C559.554 8.62419 557.946 10.0162 556.362 10.3042L559.722 17.0002ZM554.946 8.91219C556.602 8.91219 557.586 7.61619 557.586 5.79219C557.586 3.96819 556.602 2.67219 554.946 2.67219H552.186V8.91219H554.946Z" fill="#404040"/>
<path d="M547.435 17.0002H539.203V0.992188H547.435V2.67219H541.123V7.97619H547.267V9.65619H541.123V15.2962H547.435V17.0002Z" fill="#404040"/>
<path d="M529.428 17.0002H527.508V0.992188H532.38C535.308 0.992188 536.796 3.20019 536.796 5.79219C536.796 8.38419 535.284 10.5922 532.38 10.5922H529.428V17.0002ZM532.188 8.91219C533.844 8.91219 534.828 7.61619 534.828 5.79219C534.828 3.96819 533.844 2.67219 532.188 2.67219H529.428V8.91219H532.188Z" fill="#404040"/>
<path d="M525.641 17.0002H523.433L519.713 10.3762L515.993 17.0002H513.785L518.561 8.81619L514.049 0.992188H516.281L519.713 7.28019L523.145 0.992188H525.377L520.865 8.81619L525.641 17.0002Z" fill="#404040"/>
<path d="M512.443 17.0002H504.211V0.992188H512.443V2.67219H506.131V7.97619H512.275V9.65619H506.131V15.2962H512.443V17.0002Z" fill="#404040"/>
<path d="M491.573 17.2866C489.485 17.2866 487.877 16.4946 486.797 15.2706L487.853 13.8066C488.669 14.7906 490.013 15.5826 491.573 15.5826C493.589 15.5826 494.501 14.3346 494.501 12.9666C494.501 9.07856 487.277 10.0866 487.277 4.92656C487.277 2.47856 489.197 0.726562 491.861 0.726562C493.637 0.726562 495.077 1.32656 496.133 2.40656L495.125 3.84656C494.261 2.88656 493.085 2.43056 491.813 2.43056C490.349 2.43056 489.221 3.39056 489.221 4.83056C489.221 8.21456 496.445 7.47056 496.445 12.8466C496.445 15.1986 494.885 17.2866 491.573 17.2866Z" fill="#404040"/>
<path d="M481.749 17.0002H479.853V2.67219H476.061V0.992188H485.565V2.67219H481.749V17.0002Z" fill="#404040"/>
<path d="M474.62 17.0002H472.46L469.388 10.5922H467.084V17.0002H465.164V0.992188H470.06C472.628 0.992188 474.452 2.84019 474.452 5.76819C474.452 8.62419 472.844 10.0162 471.26 10.3042L474.62 17.0002ZM469.844 8.91219C471.5 8.91219 472.484 7.61619 472.484 5.79219C472.484 3.96819 471.5 2.67219 469.844 2.67219H467.084V8.91219H469.844Z" fill="#404040"/>
<path d="M456.292 17.2866C452.404 17.2866 450.244 13.6386 450.244 9.00656C450.244 4.37456 452.404 0.726562 456.292 0.726562C460.18 0.726562 462.364 4.37456 462.364 9.00656C462.364 13.6386 460.18 17.2866 456.292 17.2866ZM456.292 15.5826C458.956 15.5826 460.396 12.6546 460.396 9.00656C460.396 5.31056 458.956 2.43056 456.292 2.43056C453.652 2.43056 452.212 5.31056 452.212 9.00656C452.212 12.6546 453.652 15.5826 456.292 15.5826Z" fill="#404040"/>
<path d="M441.022 17.0002H439.102V0.992188H443.974C446.902 0.992188 448.39 3.20019 448.39 5.79219C448.39 8.38419 446.878 10.5922 443.974 10.5922H441.022V17.0002ZM443.782 8.91219C445.438 8.91219 446.422 7.61619 446.422 5.79219C446.422 3.96819 445.438 2.67219 443.782 2.67219H441.022V8.91219H443.782Z" fill="#404040"/>
<path d="M431.62 17.2866C429.532 17.2866 427.924 16.4946 426.844 15.2706L427.9 13.8066C428.716 14.7906 430.06 15.5826 431.62 15.5826C433.636 15.5826 434.548 14.3346 434.548 12.9666C434.548 9.07856 427.324 10.0866 427.324 4.92656C427.324 2.47856 429.244 0.726562 431.908 0.726562C433.684 0.726562 435.124 1.32656 436.18 2.40656L435.172 3.84656C434.308 2.88656 433.132 2.43056 431.86 2.43056C430.396 2.43056 429.268 3.39056 429.268 4.83056C429.268 8.21456 436.492 7.47056 436.492 12.8466C436.492 15.1986 434.932 17.2866 431.62 17.2866Z" fill="#404040"/>
<path d="M419.917 17.0002H417.757L414.685 10.5922H412.381V17.0002H410.461V0.992188H415.357C417.925 0.992188 419.749 2.84019 419.749 5.76819C419.749 8.62419 418.141 10.0162 416.557 10.3042L419.917 17.0002ZM415.141 8.91219C416.797 8.91219 417.781 7.61619 417.781 5.79219C417.781 3.96819 416.797 2.67219 415.141 2.67219H412.381V8.91219H415.141Z" fill="#404040"/>
<path d="M401.589 17.2866C397.701 17.2866 395.541 13.6386 395.541 9.00656C395.541 4.37456 397.701 0.726562 401.589 0.726562C405.477 0.726562 407.661 4.37456 407.661 9.00656C407.661 13.6386 405.477 17.2866 401.589 17.2866ZM401.589 15.5826C404.253 15.5826 405.693 12.6546 405.693 9.00656C405.693 5.31056 404.253 2.43056 401.589 2.43056C398.949 2.43056 397.509 5.31056 397.509 9.00656C397.509 12.6546 398.949 15.5826 401.589 15.5826Z" fill="#404040"/>
<path d="M387.222 17.2866C383.334 17.2866 381.174 13.6386 381.174 9.00656C381.174 4.37456 383.334 0.726562 387.222 0.726562C391.11 0.726562 393.294 4.37456 393.294 9.00656C393.294 13.6386 391.11 17.2866 387.222 17.2866ZM387.222 15.5826C389.886 15.5826 391.326 12.6546 391.326 9.00656C391.326 5.31056 389.886 2.43056 387.222 2.43056C384.582 2.43056 383.142 5.31056 383.142 9.00656C383.142 12.6546 384.582 15.5826 387.222 15.5826Z" fill="#404040"/>
<path d="M372.452 17.0002H368.18V0.992188H372.452C376.604 0.992188 378.884 4.42419 378.884 9.00819C378.884 13.6162 376.604 17.0002 372.452 17.0002ZM372.452 15.2962C375.404 15.2962 376.916 12.6082 376.916 9.00819C376.916 5.38419 375.428 2.67219 372.452 2.67219H370.1V15.2962H372.452Z" fill="#404040"/>
<path d="M362.077 17.0002H360.181V2.67219H356.389V0.992188H365.893V2.67219H362.077V17.0002Z" fill="#404040"/>
<path d="M348.941 17.2882C345.725 17.2882 343.805 15.3442 343.805 11.8162V0.992188H345.725V11.8402C345.725 14.3122 346.901 15.5842 348.941 15.5842C351.005 15.5842 352.181 14.3122 352.181 11.8402V0.992188H354.077V11.8162C354.077 15.3442 352.181 17.2882 348.941 17.2882Z" fill="#404040"/>
<path d="M334.933 17.2866C331.045 17.2866 328.885 13.6386 328.885 9.00656C328.885 4.37456 331.045 0.726562 334.933 0.726562C338.821 0.726562 341.005 4.37456 341.005 9.00656C341.005 13.6386 338.821 17.2866 334.933 17.2866ZM334.933 15.5826C337.597 15.5826 339.037 12.6546 339.037 9.00656C339.037 5.31056 337.597 2.43056 334.933 2.43056C332.293 2.43056 330.853 5.31056 330.853 9.00656C330.853 12.6546 332.293 15.5826 334.933 15.5826Z" fill="#404040"/>
<path d="M316.468 17.3106C312.724 17.3106 310.252 13.9506 310.252 9.00656C310.252 4.06256 312.724 0.726562 316.468 0.726562C318.82 0.726562 320.284 2.04656 321.22 3.75056L319.684 4.54256C319.012 3.29456 317.932 2.43056 316.468 2.43056C313.9 2.43056 312.22 5.09456 312.22 9.00656C312.22 12.8946 313.9 15.5826 316.468 15.5826C317.812 15.5826 318.892 14.9346 319.468 14.2386V10.4946H315.652V8.81456H321.292V14.9586C320.116 16.4226 318.484 17.3106 316.468 17.3106Z" fill="#404040"/>
<path d="M307.438 17.0002H305.59L298.99 5.07219V17.0002H297.07V0.992188H298.99L305.518 12.6802V0.992188H307.438V17.0002Z" fill="#404040"/>
<path d="M293.717 17.0002H291.797V0.992188H293.717V17.0002Z" fill="#404040"/>
<path d="M289.399 17.0002H281.695V0.992188H283.615V15.2962H289.399V17.0002Z" fill="#404040"/>
<path d="M279.298 17.0002H271.594V0.992188H273.514V15.2962H279.298V17.0002Z" fill="#404040"/>
<path d="M268.24 17.0002H266.32V0.992188H268.24V17.0002Z" fill="#404040"/>
<path d="M257.412 17.0002H255.492V0.992188H263.724V2.67219H257.412V7.97619H263.556V9.65619H257.412V17.0002Z" fill="#404040"/>
<path d="M253.095 17.0002H245.391V0.992188H247.311V15.2962H253.095V17.0002Z" fill="#404040"/>
<path d="M236.863 17.2882C233.647 17.2882 231.727 15.3442 231.727 11.8162V0.992188H233.647V11.8402C233.647 14.3122 234.823 15.5842 236.863 15.5842C238.927 15.5842 240.103 14.3122 240.103 11.8402V0.992188H241.999V11.8162C241.999 15.3442 240.103 17.2882 236.863 17.2882Z" fill="#404040"/>
<path d="M222.818 17.0002H220.898V0.992188H229.13V2.67219H222.818V7.97619H228.962V9.65619H222.818V17.0002Z" fill="#404040"/>
<path d="M212.377 17.0002H210.457V9.60819H203.881V17.0002H201.961V0.992188H203.881V7.92819H210.457V0.992188H212.377V17.0002Z" fill="#404040"/>
<path d="M194.148 17.3106C190.404 17.3106 187.932 13.9506 187.932 9.00656C187.932 4.06256 190.404 0.726562 194.148 0.726562C196.5 0.726562 197.964 2.04656 198.9 3.75056L197.364 4.54256C196.692 3.29456 195.612 2.43056 194.148 2.43056C191.58 2.43056 189.9 5.09456 189.9 9.00656C189.9 12.8946 191.58 15.5826 194.148 15.5826C195.492 15.5826 196.572 14.9346 197.148 14.2386V10.4946H193.332V8.81456H198.972V14.9586C197.796 16.4226 196.164 17.3106 194.148 17.3106Z" fill="#404040"/>
<path d="M179.956 17.2882C176.74 17.2882 174.82 15.3442 174.82 11.8162V0.992188H176.74V11.8402C176.74 14.3122 177.916 15.5842 179.956 15.5842C182.02 15.5842 183.196 14.3122 183.196 11.8402V0.992188H185.092V11.8162C185.092 15.3442 183.196 17.2882 179.956 17.2882Z" fill="#404040"/>
<path d="M165.948 17.2866C162.06 17.2866 159.9 13.6386 159.9 9.00656C159.9 4.37456 162.06 0.726562 165.948 0.726562C169.836 0.726562 172.02 4.37456 172.02 9.00656C172.02 13.6386 169.836 17.2866 165.948 17.2866ZM165.948 15.5826C168.612 15.5826 170.052 12.6546 170.052 9.00656C170.052 5.31056 168.612 2.43056 165.948 2.43056C163.308 2.43056 161.868 5.31056 161.868 9.00656C161.868 12.6546 163.308 15.5826 165.948 15.5826Z" fill="#404040"/>
<path d="M157.698 17.0002H155.538L152.466 10.5922H150.162V17.0002H148.242V0.992188H153.138C155.706 0.992188 157.53 2.84019 157.53 5.76819C157.53 8.62419 155.922 10.0162 154.338 10.3042L157.698 17.0002ZM152.922 8.91219C154.578 8.91219 155.562 7.61619 155.562 5.79219C155.562 3.96819 154.578 2.67219 152.922 2.67219H150.162V8.91219H152.922Z" fill="#404040"/>
<path d="M144.877 17.0002H142.957V9.60819H136.381V17.0002H134.461V0.992188H136.381V7.92819H142.957V0.992188H144.877V17.0002Z" fill="#404040"/>
<path d="M128.358 17.0002H126.462V2.67219H122.67V0.992188H132.174V2.67219H128.358V17.0002Z" fill="#404040"/>
<path d="M111.112 17.2866C109.024 17.2866 107.416 16.4946 106.336 15.2706L107.392 13.8066C108.208 14.7906 109.552 15.5826 111.112 15.5826C113.128 15.5826 114.04 14.3346 114.04 12.9666C114.04 9.07856 106.816 10.0866 106.816 4.92656C106.816 2.47856 108.736 0.726562 111.4 0.726562C113.176 0.726562 114.616 1.32656 115.672 2.40656L114.664 3.84656C113.8 2.88656 112.624 2.43056 111.352 2.43056C109.888 2.43056 108.76 3.39056 108.76 4.83056C108.76 8.21456 115.984 7.47056 115.984 12.8466C115.984 15.1986 114.424 17.2866 111.112 17.2866Z" fill="#404040"/>
<path d="M104.49 17.0002H96.2578V0.992188H104.49V2.67219H98.1778V7.97619H104.322V9.65619H98.1778V15.2962H104.49V17.0002Z" fill="#404040"/>
<path d="M89.5917 17.0002H87.3117L82.5117 0.992188H84.5757L88.4397 14.7202L92.3277 0.992188H94.3917L89.5917 17.0002Z" fill="#404040"/>
<path d="M83.3134 17.0002H75.6094V0.992188H77.5294V15.2962H83.3134V17.0002Z" fill="#404040"/>
<path d="M72.7789 17.0002H64.5469V0.992188H72.7789V2.67219H66.4669V7.97619H72.6109V9.65619H66.4669V15.2962H72.7789V17.0002Z" fill="#404040"/>
<path d="M57.0651 17.2866C54.9771 17.2866 53.3691 16.4946 52.2891 15.2706L53.3451 13.8066C54.1611 14.7906 55.5051 15.5826 57.0651 15.5826C59.0811 15.5826 59.9931 14.3346 59.9931 12.9666C59.9931 9.07856 52.7691 10.0866 52.7691 4.92656C52.7691 2.47856 54.6891 0.726562 57.3531 0.726562C59.1291 0.726562 60.5691 1.32656 61.6251 2.40656L60.6171 3.84656C59.7531 2.88656 58.5771 2.43056 57.3051 2.43056C55.8411 2.43056 54.7131 3.39056 54.7131 4.83056C54.7131 8.21456 61.9371 7.47056 61.9371 12.8466C61.9371 15.1986 60.3771 17.2866 57.0651 17.2866Z" fill="#404040"/>
<path d="M49.9226 17.0002H48.0506V4.42419L43.7786 17.0002H43.0346L38.8106 4.42419V17.0002H36.8906V0.992188H39.5546L43.4186 12.3682L47.3066 0.992188H49.9226V17.0002Z" fill="#404040"/>
<path d="M34.0601 17.0002H25.8281V0.992188H34.0601V2.67219H27.7481V7.97619H33.8921V9.65619H27.7481V15.2962H34.0601V17.0002Z" fill="#404040"/>
<path d="M22.4629 17.0002H20.5429V9.60819H13.9669V17.0002H12.0469V0.992188H13.9669V7.92819H20.5429V0.992188H22.4629V17.0002Z" fill="#404040"/>
<path d="M5.94386 17.0002H4.04786V2.67219H0.255859V0.992188H9.75986V2.67219H5.94386V17.0002Z" fill="#404040"/>
</svg>
