<svg width="450" height="83" viewBox="0 0 450 83" fill="none" xmlns="http://www.w3.org/2000/svg">
<path d="M449.083 81.0009L392.443 81.0009V0.960938L449.083 0.960937V15.9609L409.483 15.9609V32.8809L448.243 32.8809V47.8809L409.483 47.8809V66.0009L449.083 66.0009V81.0009Z" fill="#C4F56A"/>
<path d="M380.134 81.0009H360.574L344.854 52.5609L332.374 52.5609V81.0009H315.334V0.960938L352.774 0.960937C369.454 0.960937 379.654 11.8809 379.654 26.7609C379.654 40.9209 370.774 48.4809 362.134 50.5209L380.134 81.0009ZM350.254 37.5609C357.094 37.5609 362.254 33.4809 362.254 26.7609C362.254 20.0409 357.094 15.9609 350.254 15.9609L332.374 15.9609V37.5609L350.254 37.5609Z" fill="#C4F56A"/>
<path d="M263.446 82.4409C239.086 82.4409 227.326 68.7609 227.326 49.0809V0.960938L244.606 0.960937V48.4809C244.606 59.6409 251.086 67.3209 263.446 67.3209C275.806 67.3209 282.166 59.6409 282.166 48.4809V0.960937L299.566 0.960937V48.9609C299.566 68.8809 287.806 82.4409 263.446 82.4409Z" fill="#C4F56A"/>
<path d="M193.122 81.0009H175.963V15.9609L152.562 15.9609V0.960938L216.403 0.960937V15.9609L193.122 15.9609V81.0009Z" fill="#C4F56A"/>
<path d="M105.595 82.4409C81.2346 82.4409 69.4746 68.7609 69.4746 49.0809L69.4746 0.960938L86.7546 0.960937V48.4809C86.7546 59.6409 93.2346 67.3209 105.595 67.3209C117.955 67.3209 124.315 59.6409 124.315 48.4809V0.960937L141.715 0.960937V48.9609C141.715 68.8809 129.955 82.4409 105.595 82.4409Z" fill="#C4F56A"/>
<path d="M17.9599 81.0009H0.919922L0.919922 0.960938L57.5599 0.960937V15.9609L17.9599 15.9609V32.8809L56.7199 32.8809V47.8809L17.9599 47.8809L17.9599 81.0009Z" fill="#C4F56A"/>
</svg>
