<svg width="1147" height="84" viewBox="0 0 1147 84" fill="none" xmlns="http://www.w3.org/2000/svg">
<path d="M1085.73 84V18L1046.01 18V0L1146.81 0V18L1107.09 18V84L1085.73 84Z" fill="#BBBBBB"/>
<path d="M933.764 84V0L965.684 0L1008.28 62.4H1011.04V0L1031.56 0V84H999.644L957.044 21.6H954.284V84H933.764Z" fill="#BBBBBB"/>
<path d="M822.436 84V0L913.516 0V17.76L843.796 17.76V33.6L896.716 33.6V49.8L843.796 49.8V66.24L914.956 66.24V84L822.436 84Z" fill="#BBBBBB"/>
<path d="M738.241 84L700.441 6.36V0L721.201 0L751.681 64.92H756.121L787.201 0L807.361 0V6.36L768.961 84L738.241 84Z" fill="#BBBBBB"/>
<path d="M587.475 84V0L619.395 0L661.995 62.4H664.755V0L685.275 0V84H653.355L610.755 21.6H607.995V84H587.475Z" fill="#BBBBBB"/>
<path d="M503.324 84V66.84H524.804V17.16L503.324 17.16V0L567.644 0V17.16L546.164 17.16V66.84L567.644 66.84V84L503.324 84Z" fill="#BBBBBB"/>
<path d="M345.063 84V66.6L411.663 66.6L417.423 61.8V55.2L411.663 50.4L360.783 50.4L343.143 35.52V14.88L360.783 0L433.743 0V17.4L370.263 17.4L364.503 22.2V27.96L370.263 32.76L421.143 32.76L438.783 47.64V69.12L421.143 84L345.063 84Z" fill="#BBBBBB"/>
<path d="M308.16 39.48L312.6 19.56H306V0L327.36 0V16.8L318.96 39.48H308.16Z" fill="#BBBBBB"/>
<path d="M235.066 84V18L195.346 18V0L296.146 0V18L256.426 18V84L235.066 84Z" fill="#BBBBBB"/>
<path d="M94.8184 84L94.8184 0L185.898 0V17.76L116.178 17.76V33.6L169.098 33.6V49.8L116.178 49.8L116.178 66.24L187.338 66.24V84L94.8184 84Z" fill="#BBBBBB"/>
<path d="M0.599609 84L0.599609 0L21.9596 0L21.9596 65.28L80.2796 65.28V84L0.599609 84Z" fill="#BBBBBB"/>
</svg>
