<svg width="616" height="18" viewBox="0 0 616 18" fill="none" xmlns="http://www.w3.org/2000/svg">
<path d="M615.849 17.0002H607.617V0.992188H615.849V2.67219H609.537V7.97619H615.681V9.65619H609.537V15.2962H615.849V17.0002Z" fill="#404040"/>
<path d="M599.806 17.3106C596.062 17.3106 593.59 13.9506 593.59 9.00656C593.59 4.06256 596.062 0.726562 599.806 0.726562C602.158 0.726562 603.622 2.04656 604.558 3.75056L603.022 4.54256C602.35 3.29456 601.27 2.43056 599.806 2.43056C597.238 2.43056 595.558 5.09456 595.558 9.00656C595.558 12.8946 597.238 15.5826 599.806 15.5826C601.15 15.5826 602.23 14.9346 602.806 14.2386V10.4946H598.99V8.81456H604.63V14.9586C603.454 16.4226 601.822 17.3106 599.806 17.3106Z" fill="#404040"/>
<path d="M590.774 17.0002H588.926L582.326 5.07219V17.0002H580.406V0.992188H582.326L588.854 12.6802V0.992188H590.774V17.0002Z" fill="#404040"/>
<path d="M578.542 17.0002H576.478L575.446 13.3762H569.758L568.726 17.0002H566.662L571.462 0.992188H573.742L578.542 17.0002ZM575.038 11.6962L572.59 3.10419L570.166 11.6962H575.038Z" fill="#404040"/>
<path d="M564.783 17.0002H562.863V9.60819H556.287V17.0002H554.367V0.992188H556.287V7.92819H562.863V0.992188H564.783V17.0002Z" fill="#404040"/>
<path d="M547.236 17.2866C543.42 17.2866 541.02 13.7826 541.02 9.00656C541.02 4.20656 543.42 0.726562 547.236 0.726562C549.66 0.726562 551.052 2.19056 551.916 3.84656L550.332 4.59056C549.684 3.29456 548.628 2.43056 547.236 2.43056C544.644 2.43056 542.988 5.21456 542.988 9.00656C542.988 12.7986 544.644 15.5826 547.236 15.5826C548.7 15.5826 549.756 14.5746 550.356 13.2066L551.964 13.9506C551.076 15.7266 549.708 17.2866 547.236 17.2866Z" fill="#404040"/>
<path d="M533.584 17.0002H525.352V0.992188H533.584V2.67219H527.272V7.97619H533.416V9.65619H527.272V15.2962H533.584V17.0002Z" fill="#404040"/>
<path d="M518.687 17.0002H516.407L511.607 0.992188H513.671L517.535 14.7202L521.423 0.992188H523.487L518.687 17.0002Z" fill="#404040"/>
<path d="M509.74 17.0002H507.82V0.992188H509.74V17.0002Z" fill="#404040"/>
<path d="M501.719 17.0002H499.823V2.67219H496.031V0.992188H505.535V2.67219H501.719V17.0002Z" fill="#404040"/>
<path d="M493.756 17.0002H491.836V0.992188H493.756V17.0002Z" fill="#404040"/>
<path d="M484.356 17.2866C482.268 17.2866 480.66 16.4946 479.58 15.2706L480.636 13.8066C481.452 14.7906 482.796 15.5826 484.356 15.5826C486.372 15.5826 487.284 14.3346 487.284 12.9666C487.284 9.07856 480.06 10.0866 480.06 4.92656C480.06 2.47856 481.98 0.726562 484.644 0.726562C486.42 0.726562 487.86 1.32656 488.916 2.40656L487.908 3.84656C487.044 2.88656 485.868 2.43056 484.596 2.43056C483.132 2.43056 482.004 3.39056 482.004 4.83056C482.004 8.21456 489.228 7.47056 489.228 12.8466C489.228 15.1986 487.668 17.2866 484.356 17.2866Z" fill="#404040"/>
<path d="M471.693 17.2866C467.805 17.2866 465.645 13.6386 465.645 9.00656C465.645 4.37456 467.805 0.726562 471.693 0.726562C475.581 0.726562 477.765 4.37456 477.765 9.00656C477.765 13.6386 475.581 17.2866 471.693 17.2866ZM471.693 15.5826C474.357 15.5826 475.797 12.6546 475.797 9.00656C475.797 5.31056 474.357 2.43056 471.693 2.43056C469.053 2.43056 467.613 5.31056 467.613 9.00656C467.613 12.6546 469.053 15.5826 471.693 15.5826Z" fill="#404040"/>
<path d="M456.42 17.0002H454.5V0.992188H459.372C462.3 0.992188 463.788 3.20019 463.788 5.79219C463.788 8.38419 462.276 10.5922 459.372 10.5922H456.42V17.0002ZM459.18 8.91219C460.836 8.91219 461.82 7.61619 461.82 5.79219C461.82 3.96819 460.836 2.67219 459.18 2.67219H456.42V8.91219H459.18Z" fill="#404040"/>
<path d="M440.436 17.0002H438.516V0.992188H446.748V2.67219H440.436V7.97619H446.58V9.65619H440.436V17.0002Z" fill="#404040"/>
<path d="M429.646 17.2866C425.758 17.2866 423.598 13.6386 423.598 9.00656C423.598 4.37456 425.758 0.726562 429.646 0.726562C433.534 0.726562 435.718 4.37456 435.718 9.00656C435.718 13.6386 433.534 17.2866 429.646 17.2866ZM429.646 15.5826C432.31 15.5826 433.75 12.6546 433.75 9.00656C433.75 5.31056 432.31 2.43056 429.646 2.43056C427.006 2.43056 425.566 5.31056 425.566 9.00656C425.566 12.6546 427.006 15.5826 429.646 15.5826Z" fill="#404040"/>
<path d="M411.512 17.2866C409.424 17.2866 407.816 16.4946 406.736 15.2706L407.792 13.8066C408.608 14.7906 409.952 15.5826 411.512 15.5826C413.528 15.5826 414.44 14.3346 414.44 12.9666C414.44 9.07856 407.216 10.0866 407.216 4.92656C407.216 2.47856 409.136 0.726562 411.8 0.726562C413.576 0.726562 415.016 1.32656 416.072 2.40656L415.064 3.84656C414.2 2.88656 413.024 2.43056 411.752 2.43056C410.288 2.43056 409.16 3.39056 409.16 4.83056C409.16 8.21456 416.384 7.47056 416.384 12.8466C416.384 15.1986 414.824 17.2866 411.512 17.2866Z" fill="#404040"/>
<path d="M401.688 17.0002H399.792V2.67219H396V0.992188H405.504V2.67219H401.688V17.0002Z" fill="#404040"/>
<path d="M393.712 17.0002H391.864L385.264 5.07219V17.0002H383.344V0.992188H385.264L391.792 12.6802V0.992188H393.712V17.0002Z" fill="#404040"/>
<path d="M380.513 17.0002H372.281V0.992188H380.513V2.67219H374.201V7.97619H380.345V9.65619H374.201V15.2962H380.513V17.0002Z" fill="#404040"/>
<path d="M364.47 17.3106C360.726 17.3106 358.254 13.9506 358.254 9.00656C358.254 4.06256 360.726 0.726562 364.47 0.726562C366.822 0.726562 368.286 2.04656 369.222 3.75056L367.686 4.54256C367.014 3.29456 365.934 2.43056 364.47 2.43056C361.902 2.43056 360.222 5.09456 360.222 9.00656C360.222 12.8946 361.902 15.5826 364.47 15.5826C365.814 15.5826 366.894 14.9346 367.47 14.2386V10.4946H363.654V8.81456H369.294V14.9586C368.118 16.4226 366.486 17.3106 364.47 17.3106Z" fill="#404040"/>
<path d="M357.409 17.0002H355.345L354.313 13.3762H348.625L347.593 17.0002H345.529L350.329 0.992188H352.609L357.409 17.0002ZM353.905 11.6962L351.457 3.10419L349.033 11.6962H353.905Z" fill="#404040"/>
<path d="M332.989 17.2866C329.101 17.2866 326.941 13.6386 326.941 9.00656C326.941 4.37456 329.101 0.726562 332.989 0.726562C336.877 0.726562 339.061 4.37456 339.061 9.00656C339.061 13.6386 336.877 17.2866 332.989 17.2866ZM332.989 15.5826C335.653 15.5826 337.093 12.6546 337.093 9.00656C337.093 5.31056 335.653 2.43056 332.989 2.43056C330.349 2.43056 328.909 5.31056 328.909 9.00656C328.909 12.6546 330.349 15.5826 332.989 15.5826Z" fill="#404040"/>
<path d="M321.836 17.0002H319.94V2.67219H316.148V0.992188H325.652V2.67219H321.836V17.0002Z" fill="#404040"/>
<path d="M313.86 17.0002H312.012L305.412 5.07219V17.0002H303.492V0.992188H305.412L311.94 12.6802V0.992188H313.86V17.0002Z" fill="#404040"/>
<path d="M300.139 17.0002H298.219V0.992188H300.139V17.0002Z" fill="#404040"/>
<path d="M290.232 17.0002H282V0.992188H290.232V2.67219H283.92V7.97619H290.064V9.65619H283.92V15.2962H290.232V17.0002Z" fill="#404040"/>
<path d="M279.602 17.0002H271.898V0.992188H273.818V15.2962H279.602V17.0002Z" fill="#404040"/>
<path d="M262.123 17.0002H260.203V0.992188H265.075C268.003 0.992188 269.491 3.20019 269.491 5.79219C269.491 8.38419 267.979 10.5922 265.075 10.5922H262.123V17.0002ZM264.883 8.91219C266.539 8.91219 267.523 7.61619 267.523 5.79219C267.523 3.96819 266.539 2.67219 264.883 2.67219H262.123V8.91219H264.883Z" fill="#404040"/>
<path d="M251.333 17.2866C247.445 17.2866 245.285 13.6386 245.285 9.00656C245.285 4.37456 247.445 0.726562 251.333 0.726562C255.221 0.726562 257.405 4.37456 257.405 9.00656C257.405 13.6386 255.221 17.2866 251.333 17.2866ZM251.333 15.5826C253.997 15.5826 255.437 12.6546 255.437 9.00656C255.437 5.31056 253.997 2.43056 251.333 2.43056C248.693 2.43056 247.253 5.31056 247.253 9.00656C247.253 12.6546 248.693 15.5826 251.333 15.5826Z" fill="#404040"/>
<path d="M243.005 17.0002H234.773V0.992188H243.005V2.67219H236.693V7.97619H242.837V9.65619H236.693V15.2962H243.005V17.0002Z" fill="#404040"/>
<path d="M224.998 17.0002H223.078V0.992188H227.95C230.878 0.992188 232.366 3.20019 232.366 5.79219C232.366 8.38419 230.854 10.5922 227.95 10.5922H224.998V17.0002ZM227.758 8.91219C229.414 8.91219 230.398 7.61619 230.398 5.79219C230.398 3.96819 229.414 2.67219 227.758 2.67219H224.998V8.91219H227.758Z" fill="#404040"/>
<path d="M214.571 17.0002H212.699V4.42419L208.427 17.0002H207.683L203.459 4.42419V17.0002H201.539V0.992188H204.203L208.067 12.3682L211.955 0.992188H214.571V17.0002Z" fill="#404040"/>
<path d="M198.784 17.0002H196.624L193.552 10.5922H191.248V17.0002H189.328V0.992188H194.224C196.792 0.992188 198.616 2.84019 198.616 5.76819C198.616 8.62419 197.008 10.0162 195.424 10.3042L198.784 17.0002ZM194.008 8.91219C195.664 8.91219 196.648 7.61619 196.648 5.79219C196.648 3.96819 195.664 2.67219 194.008 2.67219H191.248V8.91219H194.008Z" fill="#404040"/>
<path d="M180.458 17.2866C176.57 17.2866 174.41 13.6386 174.41 9.00656C174.41 4.37456 176.57 0.726562 180.458 0.726562C184.346 0.726562 186.53 4.37456 186.53 9.00656C186.53 13.6386 184.346 17.2866 180.458 17.2866ZM180.458 15.5826C183.122 15.5826 184.562 12.6546 184.562 9.00656C184.562 5.31056 183.122 2.43056 180.458 2.43056C177.818 2.43056 176.378 5.31056 176.378 9.00656C176.378 12.6546 177.818 15.5826 180.458 15.5826Z" fill="#404040"/>
<path d="M166.053 17.0002H164.133V0.992188H172.365V2.67219H166.053V7.97619H172.197V9.65619H166.053V17.0002Z" fill="#404040"/>
<path d="M156.653 17.2866C154.565 17.2866 152.957 16.4946 151.877 15.2706L152.933 13.8066C153.749 14.7906 155.093 15.5826 156.653 15.5826C158.669 15.5826 159.581 14.3346 159.581 12.9666C159.581 9.07856 152.357 10.0866 152.357 4.92656C152.357 2.47856 154.277 0.726562 156.941 0.726562C158.717 0.726562 160.157 1.32656 161.213 2.40656L160.205 3.84656C159.341 2.88656 158.165 2.43056 156.893 2.43056C155.429 2.43056 154.301 3.39056 154.301 4.83056C154.301 8.21456 161.525 7.47056 161.525 12.8466C161.525 15.1986 159.965 17.2866 156.653 17.2866Z" fill="#404040"/>
<path d="M149.493 17.0002H147.645L141.045 5.07219V17.0002H139.125V0.992188H141.045L147.573 12.6802V0.992188H149.493V17.0002Z" fill="#404040"/>
<path d="M137.261 17.0002H135.197L134.165 13.3762H128.477L127.445 17.0002H125.381L130.181 0.992188H132.461L137.261 17.0002ZM133.757 11.6962L131.309 3.10419L128.885 11.6962H133.757Z" fill="#404040"/>
<path d="M124.114 17.0002H121.954L118.882 10.5922H116.578V17.0002H114.658V0.992188H119.554C122.122 0.992188 123.946 2.84019 123.946 5.76819C123.946 8.62419 122.338 10.0162 120.754 10.3042L124.114 17.0002ZM119.338 8.91219C120.994 8.91219 121.978 7.61619 121.978 5.79219C121.978 3.96819 120.994 2.67219 119.338 2.67219H116.578V8.91219H119.338Z" fill="#404040"/>
<path d="M108.555 17.0002H106.659V2.67219H102.867V0.992188H112.371V2.67219H108.555V17.0002Z" fill="#404040"/>
<path d="M89.9191 17.2866C86.0311 17.2866 83.8711 13.6386 83.8711 9.00656C83.8711 4.37456 86.0311 0.726562 89.9191 0.726562C93.8071 0.726562 95.9911 4.37456 95.9911 9.00656C95.9911 13.6386 93.8071 17.2866 89.9191 17.2866ZM89.9191 15.5826C92.5831 15.5826 94.0231 12.6546 94.0231 9.00656C94.0231 5.31056 92.5831 2.43056 89.9191 2.43056C87.2791 2.43056 85.8391 5.31056 85.8391 9.00656C85.8391 12.6546 87.2791 15.5826 89.9191 15.5826Z" fill="#404040"/>
<path d="M78.7661 17.0002H76.8701V2.67219H73.0781V0.992188H82.5821V2.67219H78.7661V17.0002Z" fill="#404040"/>
<path d="M65.6511 17.0002H63.7791V4.42419L59.5071 17.0002H58.7631L54.5391 4.42419V17.0002H52.6191V0.992188H55.2831L59.1471 12.3682L63.0351 0.992188H65.6511V17.0002Z" fill="#404040"/>
<path d="M49.2657 17.0002H47.3457V0.992188H49.2657V17.0002Z" fill="#404040"/>
<path d="M45.4796 17.0002H43.4156L42.3836 13.3762H36.6956L35.6636 17.0002H33.5996L38.3996 0.992188H40.6796L45.4796 17.0002ZM41.9756 11.6962L39.5276 3.10419L37.1036 11.6962H41.9756Z" fill="#404040"/>
<path d="M27.1011 17.0002H18.8691V0.992188H27.1011V2.67219H20.7891V7.97619H26.9331V9.65619H20.7891V15.2962H27.1011V17.0002Z" fill="#404040"/>
<path d="M13.256 17.0002H11.216L8.60002 4.37619L6.00802 17.0002H3.96802L0.416016 0.992188H2.45602L5.07202 14.0482L7.80802 0.992188H9.41602L12.152 14.0482L14.768 0.992188H16.808L13.256 17.0002Z" fill="#404040"/>
</svg>
