<svg width="675" height="18" viewBox="0 0 675 18" fill="none" xmlns="http://www.w3.org/2000/svg">
<path d="M667.772 17.0002H665.852V0.992188H674.084V2.67219H667.772V7.97619H673.916V9.65619H667.772V17.0002Z" fill="#404040"/>
<path d="M656.98 17.2866C653.092 17.2866 650.932 13.6386 650.932 9.00656C650.932 4.37456 653.092 0.726562 656.98 0.726562C660.868 0.726562 663.052 4.37456 663.052 9.00656C663.052 13.6386 660.868 17.2866 656.98 17.2866ZM656.98 15.5826C659.644 15.5826 661.084 12.6546 661.084 9.00656C661.084 5.31056 659.644 2.43056 656.98 2.43056C654.34 2.43056 652.9 5.31056 652.9 9.00656C652.9 12.6546 654.34 15.5826 656.98 15.5826Z" fill="#404040"/>
<path d="M642.962 17.0002H641.114L634.514 5.07219V17.0002H632.594V0.992188H634.514L641.042 12.6802V0.992188H642.962V17.0002Z" fill="#404040"/>
<path d="M623.722 17.2866C619.834 17.2866 617.674 13.6386 617.674 9.00656C617.674 4.37456 619.834 0.726562 623.722 0.726562C627.61 0.726562 629.794 4.37456 629.794 9.00656C629.794 13.6386 627.61 17.2866 623.722 17.2866ZM623.722 15.5826C626.386 15.5826 627.826 12.6546 627.826 9.00656C627.826 5.31056 626.386 2.43056 623.722 2.43056C621.082 2.43056 619.642 5.31056 619.642 9.00656C619.642 12.6546 621.082 15.5826 623.722 15.5826Z" fill="#404040"/>
<path d="M614.873 17.0002H612.953V0.992188H614.873V17.0002Z" fill="#404040"/>
<path d="M605.471 17.2866C603.383 17.2866 601.775 16.4946 600.695 15.2706L601.751 13.8066C602.567 14.7906 603.911 15.5826 605.471 15.5826C607.487 15.5826 608.399 14.3346 608.399 12.9666C608.399 9.07856 601.175 10.0866 601.175 4.92656C601.175 2.47856 603.095 0.726562 605.759 0.726562C607.535 0.726562 608.975 1.32656 610.031 2.40656L609.023 3.84656C608.159 2.88656 606.983 2.43056 605.711 2.43056C604.247 2.43056 603.119 3.39056 603.119 4.83056C603.119 8.21456 610.343 7.47056 610.343 12.8466C610.343 15.1986 608.783 17.2866 605.471 17.2866Z" fill="#404040"/>
<path d="M598.925 17.0002H596.765L593.693 10.5922H591.389V17.0002H589.469V0.992188H594.365C596.933 0.992188 598.757 2.84019 598.757 5.76819C598.757 8.62419 597.149 10.0162 595.565 10.3042L598.925 17.0002ZM594.149 8.91219C595.805 8.91219 596.789 7.61619 596.789 5.79219C596.789 3.96819 595.805 2.67219 594.149 2.67219H591.389V8.91219H594.149Z" fill="#404040"/>
<path d="M586.638 17.0002H578.406V0.992188H586.638V2.67219H580.326V7.97619H586.47V9.65619H580.326V15.2962H586.638V17.0002Z" fill="#404040"/>
<path d="M571.74 17.0002H569.46L564.66 0.992188H566.724L570.588 14.7202L574.476 0.992188H576.54L571.74 17.0002Z" fill="#404040"/>
<path d="M554.889 17.0002H552.993V2.67219H549.201V0.992188H558.705V2.67219H554.889V17.0002Z" fill="#404040"/>
<path d="M542.94 17.2866C540.852 17.2866 539.244 16.4946 538.164 15.2706L539.22 13.8066C540.036 14.7906 541.38 15.5826 542.94 15.5826C544.956 15.5826 545.868 14.3346 545.868 12.9666C545.868 9.07856 538.644 10.0866 538.644 4.92656C538.644 2.47856 540.564 0.726562 543.228 0.726562C545.004 0.726562 546.444 1.32656 547.5 2.40656L546.492 3.84656C545.628 2.88656 544.452 2.43056 543.18 2.43056C541.716 2.43056 540.588 3.39056 540.588 4.83056C540.588 8.21456 547.812 7.47056 547.812 12.8466C547.812 15.1986 546.252 17.2866 542.94 17.2866Z" fill="#404040"/>
<path d="M536.318 17.0002H528.086V0.992188H536.318V2.67219H530.006V7.97619H536.15V9.65619H530.006V15.2962H536.318V17.0002Z" fill="#404040"/>
<path d="M521.159 17.0002H515.711V0.992188H521.015C523.535 0.992188 524.975 2.64819 524.975 5.07219C524.975 7.08819 523.919 8.36019 522.527 8.74419C524.087 8.98419 525.239 10.7602 525.239 12.6802C525.239 15.2722 523.847 17.0002 521.159 17.0002ZM520.655 7.97619C522.287 7.97619 523.007 6.82419 523.007 5.33619C523.007 3.84819 522.287 2.67219 520.655 2.67219H517.631V7.97619H520.655ZM520.775 15.2962C522.431 15.2962 523.271 14.2402 523.271 12.4882C523.271 10.9762 522.479 9.65619 520.775 9.65619H517.631V15.2962H520.775Z" fill="#404040"/>
<path d="M507.724 17.0002H499.492V0.992188H507.724V2.67219H501.412V7.97619H507.556V9.65619H501.412V15.2962H507.724V17.0002Z" fill="#404040"/>
<path d="M496.127 17.0002H494.207V9.60819H487.631V17.0002H485.711V0.992188H487.631V7.92819H494.207V0.992188H496.127V17.0002Z" fill="#404040"/>
<path d="M479.608 17.0002H477.712V2.67219H473.92V0.992188H483.424V2.67219H479.608V17.0002Z" fill="#404040"/>
<path d="M466.479 17.0002H464.559V9.60819H457.983V17.0002H456.062V0.992188H457.983V7.92819H464.559V0.992188H466.479V17.0002Z" fill="#404040"/>
<path d="M448.581 17.2866C446.493 17.2866 444.885 16.4946 443.805 15.2706L444.861 13.8066C445.677 14.7906 447.021 15.5826 448.581 15.5826C450.597 15.5826 451.509 14.3346 451.509 12.9666C451.509 9.07856 444.285 10.0866 444.285 4.92656C444.285 2.47856 446.205 0.726562 448.869 0.726562C450.645 0.726562 452.085 1.32656 453.141 2.40656L452.133 3.84656C451.269 2.88656 450.093 2.43056 448.821 2.43056C447.357 2.43056 446.229 3.39056 446.229 4.83056C446.229 8.21456 453.453 7.47056 453.453 12.8466C453.453 15.1986 451.893 17.2866 448.581 17.2866Z" fill="#404040"/>
<path d="M443.087 17.0002H441.023L439.991 13.3762H434.303L433.271 17.0002H431.207L436.007 0.992188H438.287L443.087 17.0002ZM439.583 11.6962L437.135 3.10419L434.711 11.6962H439.583Z" fill="#404040"/>
<path d="M429.865 17.0002H421.633V0.992188H429.865V2.67219H423.553V7.97619H429.697V9.65619H423.553V15.2962H429.865V17.0002Z" fill="#404040"/>
<path d="M419.235 17.0002H411.531V0.992188H413.451V15.2962H419.235V17.0002Z" fill="#404040"/>
<path d="M408.165 17.0002H406.317L399.717 5.07219V17.0002H397.797V0.992188H399.717L406.245 12.6802V0.992188H408.165V17.0002Z" fill="#404040"/>
<path d="M389.269 17.2882C386.053 17.2882 384.133 15.3442 384.133 11.8162V0.992188H386.053V11.8402C386.053 14.3122 387.229 15.5842 389.269 15.5842C391.333 15.5842 392.509 14.3122 392.509 11.8402V0.992188H394.405V11.8162C394.405 15.3442 392.509 17.2882 389.269 17.2882Z" fill="#404040"/>
<path d="M376.146 17.0002H367.914V0.992188H376.146V2.67219H369.834V7.97619H375.978V9.65619H369.834V15.2962H376.146V17.0002Z" fill="#404040"/>
<path d="M365.517 17.0002H357.812V0.992188H359.733V15.2962H365.517V17.0002Z" fill="#404040"/>
<path d="M348.037 17.0002H346.117V0.992188H350.989C353.917 0.992188 355.405 3.20019 355.405 5.79219C355.405 8.38419 353.893 10.5922 350.989 10.5922H348.037V17.0002ZM350.797 8.91219C352.453 8.91219 353.437 7.61619 353.437 5.79219C353.437 3.96819 352.453 2.67219 350.797 2.67219H348.037V8.91219H350.797Z" fill="#404040"/>
<path d="M337.245 17.2866C333.357 17.2866 331.197 13.6386 331.197 9.00656C331.197 4.37456 333.357 0.726562 337.245 0.726562C341.133 0.726562 343.317 4.37456 343.317 9.00656C343.317 13.6386 341.133 17.2866 337.245 17.2866ZM337.245 15.5826C339.909 15.5826 341.349 12.6546 341.349 9.00656C341.349 5.31056 339.909 2.43056 337.245 2.43056C334.605 2.43056 333.165 5.31056 333.165 9.00656C333.165 12.6546 334.605 15.5826 337.245 15.5826Z" fill="#404040"/>
<path d="M328.919 17.0002H320.688V0.992188H328.919V2.67219H322.608V7.97619H328.751V9.65619H322.608V15.2962H328.919V17.0002Z" fill="#404040"/>
<path d="M310.912 17.0002H308.992V0.992188H313.864C316.792 0.992188 318.28 3.20019 318.28 5.79219C318.28 8.38419 316.768 10.5922 313.864 10.5922H310.912V17.0002ZM313.672 8.91219C315.328 8.91219 316.312 7.61619 316.312 5.79219C316.312 3.96819 315.328 2.67219 313.672 2.67219H310.912V8.91219H313.672Z" fill="#404040"/>
<path d="M294.061 17.0002H292.141V0.992188H297.013C299.941 0.992188 301.429 3.20019 301.429 5.79219C301.429 8.38419 299.917 10.5922 297.013 10.5922H294.061V17.0002ZM296.821 8.91219C298.477 8.91219 299.461 7.61619 299.461 5.79219C299.461 3.96819 298.477 2.67219 296.821 2.67219H294.061V8.91219H296.821Z" fill="#404040"/>
<path d="M289.743 17.0002H282.039V0.992188H283.959V15.2962H289.743V17.0002Z" fill="#404040"/>
<path d="M279.209 17.0002H270.977V0.992188H279.209V2.67219H272.897V7.97619H279.041V9.65619H272.897V15.2962H279.209V17.0002Z" fill="#404040"/>
<path d="M267.611 17.0002H265.691V9.60819H259.115V17.0002H257.195V0.992188H259.115V7.92819H265.691V0.992188H267.611V17.0002Z" fill="#404040"/>
<path d="M243.167 17.2866C239.279 17.2866 237.119 13.6386 237.119 9.00656C237.119 4.37456 239.279 0.726562 243.167 0.726562C247.055 0.726562 249.239 4.37456 249.239 9.00656C249.239 13.6386 247.055 17.2866 243.167 17.2866ZM243.167 15.5826C245.831 15.5826 247.271 12.6546 247.271 9.00656C247.271 5.31056 245.831 2.43056 243.167 2.43056C240.527 2.43056 239.087 5.31056 239.087 9.00656C239.087 12.6546 240.527 15.5826 243.167 15.5826Z" fill="#404040"/>
<path d="M232.014 17.0002H230.118V2.67219H226.326V0.992188H235.83V2.67219H232.014V17.0002Z" fill="#404040"/>
<path d="M214.768 17.2866C212.68 17.2866 211.072 16.4946 209.992 15.2706L211.048 13.8066C211.864 14.7906 213.208 15.5826 214.768 15.5826C216.784 15.5826 217.696 14.3346 217.696 12.9666C217.696 9.07856 210.472 10.0866 210.472 4.92656C210.472 2.47856 212.392 0.726562 215.056 0.726562C216.832 0.726562 218.272 1.32656 219.328 2.40656L218.32 3.84656C217.456 2.88656 216.28 2.43056 215.008 2.43056C213.544 2.43056 212.416 3.39056 212.416 4.83056C212.416 8.21456 219.64 7.47056 219.64 12.8466C219.64 15.1986 218.08 17.2866 214.768 17.2866Z" fill="#404040"/>
<path d="M207.623 17.0002H205.703V0.992188H207.623V17.0002Z" fill="#404040"/>
<path d="M197.716 17.0002H189.484V0.992188H197.716V2.67219H191.404V7.97619H197.548V9.65619H191.404V15.2962H197.716V17.0002Z" fill="#404040"/>
<path d="M182.003 17.2866C179.915 17.2866 178.307 16.4946 177.227 15.2706L178.283 13.8066C179.099 14.7906 180.443 15.5826 182.003 15.5826C184.019 15.5826 184.931 14.3346 184.931 12.9666C184.931 9.07856 177.707 10.0866 177.707 4.92656C177.707 2.47856 179.627 0.726562 182.291 0.726562C184.067 0.726562 185.507 1.32656 186.563 2.40656L185.555 3.84656C184.691 2.88656 183.515 2.43056 182.243 2.43056C180.779 2.43056 179.651 3.39056 179.651 4.83056C179.651 8.21456 186.875 7.47056 186.875 12.8466C186.875 15.1986 185.315 17.2866 182.003 17.2866Z" fill="#404040"/>
<path d="M169.339 17.2866C165.451 17.2866 163.291 13.6386 163.291 9.00656C163.291 4.37456 165.451 0.726562 169.339 0.726562C173.227 0.726562 175.411 4.37456 175.411 9.00656C175.411 13.6386 173.227 17.2866 169.339 17.2866ZM169.339 15.5826C172.003 15.5826 173.443 12.6546 173.443 9.00656C173.443 5.31056 172.003 2.43056 169.339 2.43056C166.699 2.43056 165.259 5.31056 165.259 9.00656C165.259 12.6546 166.699 15.5826 169.339 15.5826Z" fill="#404040"/>
<path d="M154.068 17.0002H152.148V0.992188H157.02C159.948 0.992188 161.436 3.20019 161.436 5.79219C161.436 8.38419 159.924 10.5922 157.02 10.5922H154.068V17.0002ZM156.828 8.91219C158.484 8.91219 159.468 7.61619 159.468 5.79219C159.468 3.96819 158.484 2.67219 156.828 2.67219H154.068V8.91219H156.828Z" fill="#404040"/>
<path d="M149.394 17.0002H147.234L144.162 10.5922H141.858V17.0002H139.938V0.992188H144.834C147.402 0.992188 149.226 2.84019 149.226 5.76819C149.226 8.62419 147.618 10.0162 146.034 10.3042L149.394 17.0002ZM144.618 8.91219C146.274 8.91219 147.258 7.61619 147.258 5.79219C147.258 3.96819 146.274 2.67219 144.618 2.67219H141.858V8.91219H144.618Z" fill="#404040"/>
<path d="M131.409 17.2882C128.193 17.2882 126.273 15.3442 126.273 11.8162V0.992188H128.193V11.8402C128.193 14.3122 129.369 15.5842 131.409 15.5842C133.473 15.5842 134.649 14.3122 134.649 11.8402V0.992188H136.545V11.8162C136.545 15.3442 134.649 17.2882 131.409 17.2882Z" fill="#404040"/>
<path d="M116.498 17.0002H114.578V0.992188H119.45C122.378 0.992188 123.866 3.20019 123.866 5.79219C123.866 8.38419 122.354 10.5922 119.45 10.5922H116.498V17.0002ZM119.258 8.91219C120.914 8.91219 121.898 7.61619 121.898 5.79219C121.898 3.96819 120.914 2.67219 119.258 2.67219H116.498V8.91219H119.258Z" fill="#404040"/>
<path d="M101.94 17.2866C99.8521 17.2866 98.2441 16.4946 97.1641 15.2706L98.2201 13.8066C99.0361 14.7906 100.38 15.5826 101.94 15.5826C103.956 15.5826 104.868 14.3346 104.868 12.9666C104.868 9.07856 97.6441 10.0866 97.6441 4.92656C97.6441 2.47856 99.5641 0.726562 102.228 0.726562C104.004 0.726562 105.444 1.32656 106.5 2.40656L105.492 3.84656C104.628 2.88656 103.452 2.43056 102.18 2.43056C100.716 2.43056 99.5881 3.39056 99.5881 4.83056C99.5881 8.21456 106.812 7.47056 106.812 12.8466C106.812 15.1986 105.252 17.2866 101.94 17.2866Z" fill="#404040"/>
<path d="M95.1356 2.526C95.1356 3.99 94.2956 5.334 93.2156 6.102L92.3516 5.382C93.1196 4.878 93.7916 3.918 93.8876 3.15C93.8396 3.174 93.6716 3.198 93.5756 3.198C92.9276 3.198 92.4476 2.694 92.4476 1.998C92.4476 1.326 92.9756 0.75 93.6956 0.75C94.4636 0.75 95.1356 1.398 95.1356 2.526Z" fill="#404040"/>
<path d="M89.2977 17.0002H87.4497L80.8497 5.07219V17.0002H78.9297V0.992188H80.8497L87.3777 12.6802V0.992188H89.2977V17.0002Z" fill="#404040"/>
<path d="M70.0578 17.2866C66.1698 17.2866 64.0098 13.6386 64.0098 9.00656C64.0098 4.37456 66.1698 0.726562 70.0578 0.726562C73.9458 0.726562 76.1298 4.37456 76.1298 9.00656C76.1298 13.6386 73.9458 17.2866 70.0578 17.2866ZM70.0578 15.5826C72.7218 15.5826 74.1618 12.6546 74.1618 9.00656C74.1618 5.31056 72.7218 2.43056 70.0578 2.43056C67.4178 2.43056 65.9778 5.31056 65.9778 9.00656C65.9778 12.6546 67.4178 15.5826 70.0578 15.5826Z" fill="#404040"/>
<path d="M61.2117 17.0002H59.3397V4.42419L55.0677 17.0002H54.3237L50.0997 4.42419V17.0002H48.1797V0.992188H50.8437L54.7077 12.3682L58.5957 0.992188H61.2117V17.0002Z" fill="#404040"/>
<path d="M39.3078 17.2866C35.4198 17.2866 33.2598 13.6386 33.2598 9.00656C33.2598 4.37456 35.4198 0.726562 39.3078 0.726562C43.1958 0.726562 45.3798 4.37456 45.3798 9.00656C45.3798 13.6386 43.1958 17.2866 39.3078 17.2866ZM39.3078 15.5826C41.9718 15.5826 43.4118 12.6546 43.4118 9.00656C43.4118 5.31056 41.9718 2.43056 39.3078 2.43056C36.6678 2.43056 35.2278 5.31056 35.2278 9.00656C35.2278 12.6546 36.6678 15.5826 39.3078 15.5826Z" fill="#404040"/>
<path d="M32.1649 17.0002H24.4609V0.992188H26.3809V15.2962H32.1649V17.0002Z" fill="#404040"/>
<path d="M22.5948 17.0002H20.5308L19.4988 13.3762H13.8108L12.7788 17.0002H10.7148L15.5148 0.992188H17.7948L22.5948 17.0002ZM19.0908 11.6962L16.6428 3.10419L14.2188 11.6962H19.0908Z" fill="#404040"/>
<path d="M4.8385 17.2866C2.7505 17.2866 1.1425 16.4946 0.0625 15.2706L1.1185 13.8066C1.9345 14.7906 3.2785 15.5826 4.8385 15.5826C6.8545 15.5826 7.7665 14.3346 7.7665 12.9666C7.7665 9.07856 0.5425 10.0866 0.5425 4.92656C0.5425 2.47856 2.4625 0.726562 5.1265 0.726562C6.9025 0.726562 8.3425 1.32656 9.3985 2.40656L8.3905 3.84656C7.5265 2.88656 6.3505 2.43056 5.0785 2.43056C3.6145 2.43056 2.4865 3.39056 2.4865 4.83056C2.4865 8.21456 9.7105 7.47056 9.7105 12.8466C9.7105 15.1986 8.1505 17.2866 4.8385 17.2866Z" fill="#404040"/>
</svg>
