<svg width="250" height="10" viewBox="0 0 250 10" fill="none" xmlns="http://www.w3.org/2000/svg">
<path d="M242.987 10.0031V6.39113L238.031 0.777125V0.203125H239.795L243.715 4.72513H244.107L248.027 0.203125H249.707V0.777125L244.751 6.39113V10.0031H242.987Z" fill="white"/>
<path d="M230.487 10.0031V1.74313H225.629V0.203125H237.109V1.74313H232.251V10.0031H230.487Z" fill="white"/>
<path d="M217.689 10.0031V8.53312H220.181V1.65913H217.689V0.203125H224.437V1.65913H221.945V8.53312H224.437V10.0031H217.689Z" fill="white"/>
<path d="M207.328 10.0031V0.203125H209.092V8.43513H216.4V10.0031H207.328Z" fill="white"/>
<path d="M197.988 10.0031V8.53312H200.48V1.65913H197.988V0.203125H204.736V1.65913H202.244V8.53312H204.736V10.0031H197.988Z" fill="white"/>
<path d="M184.756 10.0031V0.203125H193.492L195.396 1.77113V3.73113L194.388 4.57113L196.026 5.97113V8.26713L193.982 10.0031H184.756ZM186.52 4.19313H192.666L193.632 3.39513V2.48513L192.666 1.70112H186.52V4.19313ZM186.52 8.50513H193.142L194.262 7.55313V6.60113L193.142 5.66313H186.52V8.50513Z" fill="white"/>
<path d="M177.564 0.203125L182.772 9.42912V10.0031H181.078L179.776 7.63713H172.902L171.586 10.0031H169.934V9.42912L175.128 0.203125H177.564ZM173.756 6.09713H178.922L176.5 1.68713H176.192L173.756 6.09713Z" fill="white"/>
<path d="M157.385 10.0031V0.203125H165.883L168.193 2.13513V4.72513L166.009 6.54513L168.543 9.42912V10.0031H166.765L163.881 6.67113H159.149V10.0031H157.385ZM159.149 5.13113H165.085L166.429 4.02513V2.83513L165.085 1.74313H159.149V5.13113Z" fill="white"/>
<path d="M146.243 10.0031L143.639 7.80513V0.203125H145.403V7.09113L146.999 8.43513H151.031L152.613 7.09113V0.203125H154.377V7.80513L151.787 10.0031H146.243Z" fill="white"/>
<path d="M129.686 10.0031V0.203125H138.422L140.984 2.35913V7.84713L138.422 10.0031H129.686ZM131.45 8.46313H137.638L139.22 7.13313V3.07313L137.638 1.74313H131.45V8.46313Z" fill="white"/>
<path d="M110.973 10.0031L108.943 8.25313V6.18113L110.511 4.83713L109.293 3.84313V1.78513L111.211 0.203125H117.357V1.71513H112.037L111.057 2.51313V3.42313L112.037 4.22113H115.957V5.69113H111.813L110.707 6.64313V7.53913L111.813 8.49113H116.615L117.819 7.45513L117.833 2.23313H119.499V4.22113H121.837V5.69113H119.499V8.18313L117.371 10.0031H110.973Z" fill="white"/>
<path d="M95.8369 10.0031V6.39113L90.8809 0.777125V0.203125H92.6449L96.5649 4.72513H96.9569L100.877 0.203125H102.557V0.777125L97.6009 6.39113V10.0031H95.8369Z" fill="white"/>
<path d="M83.3365 10.0031V1.74313H78.4785V0.203125H89.9585V1.74313H85.1005V10.0031H83.3365Z" fill="white"/>
<path d="M70.5391 10.0031V8.53312H73.0311V1.65913H70.5391V0.203125H77.2871V1.65913H74.7951V8.53312H77.2871V10.0031H70.5391Z" fill="white"/>
<path d="M60.1777 10.0031V0.203125H61.9417V8.43513H69.2497V10.0031H60.1777Z" fill="white"/>
<path d="M50.8379 10.0031V8.53312H53.3299V1.65913H50.8379V0.203125H57.5859V1.65913H55.0939V8.53312H57.5859V10.0031H50.8379Z" fill="white"/>
<path d="M37.6055 10.0031V0.203125H46.3415L48.2455 1.77113V3.73113L47.2375 4.57113L48.8755 5.97113V8.26713L46.8315 10.0031H37.6055ZM39.3695 4.19313H45.5155L46.4815 3.39513V2.48513L45.5155 1.70112H39.3695V4.19313ZM39.3695 8.50513H45.9915L47.1115 7.55313V6.60113L45.9915 5.66313H39.3695V8.50513Z" fill="white"/>
<path d="M30.4132 0.203125L35.6212 9.42912V10.0031H33.9272L32.6252 7.63713H25.7512L24.4352 10.0031H22.7832V9.42912L27.9772 0.203125H30.4132ZM26.6052 6.09713H31.7712L29.3492 1.68713H29.0412L26.6052 6.09713Z" fill="white"/>
<path d="M17.1236 10.0031V1.74313H12.2656V0.203125H23.7456V1.74313H18.8876V10.0031H17.1236Z" fill="white"/>
<path d="M1.02347 10.0031V8.47713H8.90547L9.85747 7.67913V6.58713L8.90547 5.80313H2.80147L0.855469 4.17913V1.82713L2.80147 0.203125H11.0055V1.72913H3.58547L2.61947 2.51313V3.47913L3.58547 4.27713H9.67547L11.6215 5.90113V8.37913L9.67547 10.0031H1.02347Z" fill="white"/>
</svg>
