<svg width="77" height="17" viewBox="0 0 77 17" fill="none" xmlns="http://www.w3.org/2000/svg">
<path d="M11.1357 1L12.7969 16.4688L9.77344 16.4687L8.9209 6.7041L8.05078 16.4687L5.16797 16.4687L4.3418 6.7041L3.51562 16.4687L0.457031 16.4687L2.14453 0.999999L5.85352 0.999999L6.62695 8.44434L7.36524 1L11.1357 1Z" fill="white"/>
<path d="M17.4121 0.859375C18.6484 0.859375 19.5947 1.23145 20.251 1.97559C20.9014 2.72559 21.2266 3.80664 21.2266 5.21875L21.2266 12.5664C21.2266 13.8906 20.9043 14.8955 20.2598 15.5811C19.6094 16.2666 18.6602 16.6094 17.4121 16.6094C16.1641 16.6094 15.2178 16.2666 14.5732 15.5811C13.9229 14.8955 13.5977 13.8906 13.5977 12.5664L13.5977 5.21875C13.5977 3.80664 13.9258 2.72559 14.582 1.97559C15.2324 1.23144 16.1758 0.859375 17.4121 0.859375ZM17.3857 3.70703C16.917 3.70703 16.6826 4.16113 16.6826 5.06934L16.6826 12.6191C16.6826 13.3809 16.9111 13.7617 17.3682 13.7617C17.8838 13.7617 18.1416 13.3721 18.1416 12.5928L18.1416 5.05176C18.1416 4.57129 18.083 4.22559 17.9658 4.01465C17.8486 3.80957 17.6553 3.70703 17.3857 3.70703Z" fill="white"/>
<path d="M29.6797 1L29.6797 16.4688L24.9336 16.4687C24.1426 16.4687 23.5449 16.2871 23.1406 15.9238C22.7363 15.5664 22.4668 15.0625 22.332 14.4121C22.1914 13.7676 22.1211 13.0088 22.1211 12.1357C22.1211 11.292 22.2295 10.6182 22.4463 10.1143C22.6572 9.61035 23.0586 9.26172 23.6504 9.06836C23.1641 8.96875 22.8242 8.72559 22.6309 8.33887C22.4316 7.95801 22.332 7.46289 22.332 6.85351L22.332 0.999999L25.3818 1L25.3818 7.05566C25.3818 7.50684 25.4756 7.78516 25.6631 7.89062C25.8447 8.00195 26.1406 8.05762 26.5508 8.05762L26.5508 1L29.6797 1ZM26.5332 10.7383L25.7861 10.7383C25.3584 10.7383 25.1445 11.2041 25.1445 12.1357C25.1445 12.7393 25.1914 13.1348 25.2852 13.3223C25.3789 13.5098 25.5547 13.6035 25.8125 13.6035L26.5332 13.6035L26.5332 10.7383Z" fill="white"/>
<path d="M38.2578 1L38.2578 16.4688L33.5117 16.4687C32.7207 16.4687 32.123 16.2871 31.7188 15.9238C31.3145 15.5664 31.0449 15.0625 30.9102 14.4121C30.7695 13.7676 30.6992 13.0088 30.6992 12.1357C30.6992 11.292 30.8076 10.6182 31.0244 10.1143C31.2354 9.61035 31.6367 9.26172 32.2285 9.06836C31.7422 8.96875 31.4023 8.72559 31.209 8.33887C31.0098 7.95801 30.9102 7.46289 30.9102 6.85351L30.9102 0.999999L33.96 1L33.96 7.05566C33.96 7.50684 34.0537 7.78516 34.2412 7.89062C34.4229 8.00195 34.7188 8.05762 35.1289 8.05762L35.1289 1L38.2578 1ZM35.1113 10.7383L34.3643 10.7383C33.9365 10.7383 33.7227 11.2041 33.7227 12.1357C33.7227 12.7393 33.7695 13.1348 33.8633 13.3223C33.957 13.5098 34.1328 13.6035 34.3906 13.6035L35.1113 13.6035L35.1113 10.7383Z" fill="white"/>
<path d="M43.3184 0.859375C44.5547 0.859375 45.501 1.23145 46.1572 1.97559C46.8076 2.72559 47.1328 3.80664 47.1328 5.21875L47.1328 12.5664C47.1328 13.8906 46.8105 14.8955 46.166 15.5811C45.5156 16.2666 44.5664 16.6094 43.3184 16.6094C42.0703 16.6094 41.124 16.2666 40.4795 15.5811C39.8291 14.8955 39.5039 13.8906 39.5039 12.5664L39.5039 5.21875C39.5039 3.80664 39.832 2.72559 40.4883 1.97559C41.1387 1.23144 42.082 0.859375 43.3184 0.859375ZM43.292 3.70703C42.8232 3.70703 42.5889 4.16113 42.5889 5.06934L42.5889 12.6191C42.5889 13.3809 42.8174 13.7617 43.2744 13.7617C43.79 13.7617 44.0479 13.3721 44.0479 12.5928L44.0479 5.05176C44.0479 4.57129 43.9893 4.22559 43.8721 4.01465C43.7549 3.80957 43.5615 3.70703 43.292 3.70703Z" fill="white"/>
<path d="M60.4414 1L60.4414 16.4688L55.7305 16.4687L54.4297 7.03809L53.1377 16.4687L48.3828 16.4687L48.3828 0.999999L51.2129 0.999999L51.2129 12.1445L52.9883 0.999999L55.7656 1L57.6465 12.1445L57.6465 1L60.4414 1Z" fill="white"/>
<path d="M65.5059 0.859375C66.7422 0.859375 67.6885 1.23145 68.3447 1.97559C68.9951 2.72559 69.3203 3.80664 69.3203 5.21875L69.3203 12.5664C69.3203 13.8906 68.998 14.8955 68.3535 15.5811C67.7031 16.2666 66.7539 16.6094 65.5059 16.6094C64.2578 16.6094 63.3115 16.2666 62.667 15.5811C62.0166 14.8955 61.6914 13.8906 61.6914 12.5664L61.6914 5.21875C61.6914 3.80664 62.0195 2.72559 62.6758 1.97559C63.3262 1.23144 64.2695 0.859375 65.5059 0.859375ZM65.4795 3.70703C65.0107 3.70703 64.7764 4.16113 64.7764 5.06934L64.7764 12.6191C64.7764 13.3809 65.0049 13.7617 65.4619 13.7617C65.9775 13.7617 66.2354 13.3721 66.2354 12.5928L66.2354 5.05176C66.2354 4.57129 66.1768 4.22559 66.0596 4.01465C65.9424 3.80957 65.749 3.70703 65.4795 3.70703Z" fill="white"/>
<path d="M74.9873 1L74.9873 13.498L76.8242 13.498L76.8242 16.4688L70.0566 16.4687L70.0566 13.498L71.8936 13.498L71.8936 1L74.9873 1Z" fill="white"/>
</svg>
