<svg width="86" height="17" viewBox="0 0 86 17" fill="none" xmlns="http://www.w3.org/2000/svg">
<path d="M4.31445 0.859375C5.55078 0.859375 6.49707 1.23145 7.15332 1.97559C7.80371 2.72559 8.12891 3.80664 8.12891 5.21875L8.12891 12.5664C8.12891 13.8906 7.80664 14.8955 7.16211 15.5811C6.51172 16.2666 5.5625 16.6094 4.31445 16.6094C3.06641 16.6094 2.12012 16.2666 1.47559 15.5811C0.825195 14.8955 0.5 13.8906 0.5 12.5664L0.500001 5.21875C0.500001 3.80664 0.828126 2.72559 1.48438 1.97559C2.13477 1.23144 3.07813 0.859375 4.31445 0.859375ZM4.28809 3.70703C3.81934 3.70703 3.58496 4.16113 3.58496 5.06934L3.58496 12.6191C3.58496 13.3809 3.81348 13.7617 4.27051 13.7617C4.78613 13.7617 5.04395 13.3721 5.04395 12.5928L5.04395 5.05176C5.04395 4.57129 4.98535 4.22559 4.86817 4.01465C4.75098 3.80957 4.55762 3.70703 4.28809 3.70703Z" fill="white"/>
<path d="M16.8828 1L16.8828 16.4688L12.6289 16.4687C11.5156 16.4687 10.6777 16.1582 10.1152 15.5371C9.55273 14.9219 9.27148 14.0195 9.27148 12.8301L9.27149 5.58789C9.27149 4.12305 9.5293 2.99219 10.0449 2.19531C10.5547 1.39844 11.4512 1 12.7344 1L16.8828 1ZM13.7715 3.7334L13.2354 3.7334C12.667 3.7334 12.3828 4.00879 12.3828 4.55957L12.3828 12.54C12.3828 13.0557 12.4531 13.3867 12.5938 13.5332C12.7285 13.6855 13.0068 13.7617 13.4287 13.7617L13.7715 13.7617L13.7715 3.7334Z" fill="white"/>
<path d="M28.2578 1L28.2578 16.4688L25.1641 16.4687L25.1641 3.63672L21.9824 3.63672L21.9824 0.999999L28.2578 1Z" fill="white"/>
<path d="M35.4102 1L35.4102 16.4688L32.3164 16.4687L32.3164 3.63672L29.1348 3.63672L29.1348 0.999999L35.4102 1Z" fill="white"/>
<path d="M39.3037 11.9316L38.7236 14.0059L39.8398 14.0059L39.8398 16.625L36.5527 16.625L36.5527 14.085L37.4492 11.9316L39.3037 11.9316Z" fill="white"/>
<path d="M43.8125 1L43.8125 16.4688L40.8242 16.4687L40.8242 1L43.8125 1Z" fill="white"/>
<path d="M53.6826 1L53.6826 13.498L55.5195 13.498L55.5195 16.4688L48.752 16.4687L48.752 13.498L50.5889 13.498L50.5889 1L53.6826 1Z" fill="white"/>
<path d="M63.9375 1L62.4434 16.4687L57.1963 16.4687L55.7285 0.999999L58.6553 1L58.875 3.49609L60.7383 3.49609L60.9316 1L63.9375 1ZM60.5186 5.96582L59.1123 5.96582L59.7891 13.832L59.9297 13.832L60.5186 5.96582Z" fill="white"/>
<path d="M72.5 1L72.5 16.4688L69.4238 16.4687L69.4238 10.9404L67.9648 10.9404L67.9648 16.4687L64.8887 16.4687L64.8887 0.999999L67.9648 1L67.9648 8.01367L69.4238 8.01367L69.4238 1L72.5 1Z" fill="white"/>
<path d="M84.1006 1L85.7617 16.4688L82.7383 16.4687L81.8857 6.7041L81.0156 16.4687L78.1328 16.4687L77.3066 6.7041L76.4805 16.4687L73.4219 16.4687L75.1094 0.999999L78.8184 0.999999L79.5918 8.44434L80.3301 1L84.1006 1Z" fill="white"/>
</svg>
