<svg width="125" height="17" viewBox="0 0 125 17" fill="none" xmlns="http://www.w3.org/2000/svg">
<path d="M6.1084 1L6.1084 6.08887L8.57812 16.4688L5.51074 16.4687L4.64941 11.2305L3.78809 16.4687L0.729492 16.4687L3.19043 6.08887L3.19043 1L6.1084 1Z" fill="white"/>
<path d="M16.5938 1L16.5938 16.4688L12.4014 16.4687C11.2764 16.4687 10.459 16.1934 9.94922 15.6426C9.43359 15.0977 9.17578 14.1953 9.17578 12.9355L9.17578 12.2588C9.17578 11.5322 9.30762 10.9434 9.57129 10.4922C9.8291 10.041 10.2246 9.74512 10.7578 9.60449C10.0605 9.42871 9.59473 9.01562 9.36035 8.36523C9.12012 7.7207 9 6.93262 9 6.00098C9 4.99902 9.09375 4.12305 9.28125 3.37305C9.46875 2.62305 9.8086 2.04004 10.3008 1.62402C10.793 1.20801 11.4932 1 12.4014 1L16.5938 1ZM13.5703 10.6416L12.9375 10.6416C12.6504 10.6416 12.4658 10.7529 12.3838 10.9756C12.3018 11.1982 12.2607 11.4648 12.2607 11.7754L12.2607 13.3311C12.2607 13.8291 12.4805 14.0781 12.9199 14.0781L13.5703 14.0781L13.5703 10.6416ZM13.2627 3.72461C12.46 3.72461 12.0586 4.10547 12.0586 4.86719L12.0586 6.80078C12.0586 7.24023 12.126 7.58594 12.2607 7.83789C12.3896 8.0957 12.6357 8.22461 12.999 8.22461L13.5703 8.22461L13.5703 3.74219C13.4414 3.73047 13.3389 3.72461 13.2627 3.72461Z" fill="white"/>
<path d="M29.6914 1L29.6914 16.4688L25.4375 16.4687C24.3242 16.4687 23.4863 16.1582 22.9238 15.5371C22.3613 14.9219 22.0801 14.0195 22.0801 12.8301L22.0801 5.58789C22.0801 4.12305 22.3379 2.99219 22.8535 2.19531C23.3633 1.39844 24.2598 1 25.543 1L29.6914 1ZM26.5801 3.7334L26.0439 3.7334C25.4756 3.7334 25.1914 4.00879 25.1914 4.55957L25.1914 12.54C25.1914 13.0557 25.2617 13.3867 25.4023 13.5332C25.5371 13.6855 25.8154 13.7617 26.2373 13.7617L26.5801 13.7617L26.5801 3.7334Z" fill="white"/>
<path d="M37.1094 1L37.1094 16.4688L30.9219 16.4687L30.9219 13.4805L33.9629 13.4805L33.9629 10.4658L31.0449 10.4658L31.0449 7.55664L33.9629 7.55664L33.9629 4.01465L30.7197 4.01465L30.7197 0.999999L37.1094 1Z" fill="white"/>
<path d="M42.9014 1L42.9014 13.498L44.7383 13.498L44.7383 16.4688L37.9707 16.4687L37.9707 13.498L39.8076 13.498L39.8076 1L42.9014 1Z" fill="white"/>
<path d="M53.1563 1L51.6621 16.4687L46.415 16.4687L44.9473 0.999999L47.874 1L48.0938 3.49609L49.957 3.49609L50.1504 1L53.1563 1ZM49.7373 5.96582L48.3311 5.96582L49.0078 13.832L49.1484 13.832L49.7373 5.96582Z" fill="white"/>
<path d="M61.6992 1L61.6992 16.4688L58.5176 16.4687L57.0938 9.05957L57.0938 16.4687L54.1055 16.4687L54.1055 0.999999L57.1289 1L58.6758 8.73437L58.6758 1L61.6992 1Z" fill="white"/>
<path d="M65.918 1L65.918 16.4688L62.9297 16.4687L62.9297 1L65.918 1Z" fill="white"/>
<path d="M70.7188 0.859375C71.8379 0.859375 72.7402 1.20801 73.4258 1.90527C74.1055 2.60254 74.4453 3.57812 74.4453 4.83203L74.4453 11.9688C74.4453 13.4688 74.1494 14.6172 73.5576 15.4141C72.96 16.2109 71.9902 16.6094 70.6484 16.6094C69.916 16.6094 69.2656 16.4746 68.6973 16.2051C68.123 15.9355 67.6719 15.5312 67.3438 14.9922C67.0156 14.459 66.8516 13.7852 66.8516 12.9707L66.8516 10.2988L69.9277 10.2988L69.9277 12.584C69.9277 13.0469 69.9863 13.3574 70.1035 13.5156C70.2207 13.6797 70.4023 13.7617 70.6484 13.7617C70.9355 13.7617 71.1289 13.6562 71.2285 13.4453C71.3281 13.2402 71.3779 12.9648 71.3779 12.6191L71.3779 4.87598C71.3779 4.44824 71.3164 4.14648 71.1934 3.9707C71.0645 3.79492 70.8828 3.70703 70.6484 3.70703C70.3848 3.70703 70.2002 3.81543 70.0947 4.03223C69.9834 4.24902 69.9277 4.53027 69.9277 4.87598L69.9277 7.66211L66.8164 7.66211L66.8164 4.73535C66.8164 3.37598 67.1592 2.38867 67.8447 1.77344C68.5303 1.16406 69.4883 0.859375 70.7188 0.859375Z" fill="white"/>
<path d="M78.9629 0.859375C80.375 0.859375 81.3945 1.21094 82.0215 1.91406C82.6426 2.61719 82.9531 3.73633 82.9531 5.27148L82.9531 6.7832L79.8945 6.7832L79.8945 4.84961C79.8945 4.49219 79.8418 4.21094 79.7363 4.00586C79.625 3.80664 79.4346 3.70703 79.165 3.70703C78.8838 3.70703 78.6904 3.78906 78.585 3.95312C78.4736 4.11719 78.418 4.38672 78.418 4.76172C78.418 5.23633 78.4648 5.63184 78.5586 5.94824C78.6523 6.27051 78.8164 6.57519 79.0508 6.8623C79.2793 7.15527 79.5986 7.49512 80.0088 7.88184L81.3975 9.2002C82.4346 10.1787 82.9531 11.2979 82.9531 12.5576C82.9531 13.876 82.6484 14.8809 82.0391 15.5723C81.4238 16.2637 80.5361 16.6094 79.376 16.6094C77.958 16.6094 76.9531 16.2314 76.3613 15.4756C75.7637 14.7197 75.4648 13.5713 75.4648 12.0303L78.6113 12.0303L78.6113 13.0937C78.6113 13.3047 78.6729 13.4687 78.7959 13.5859C78.9131 13.7031 79.0742 13.7617 79.2793 13.7617C79.5254 13.7617 79.707 13.6914 79.8242 13.5508C79.9355 13.416 79.9912 13.2402 79.9912 13.0234C79.9912 12.8066 79.9326 12.5723 79.8154 12.3203C79.6982 12.0684 79.4668 11.7783 79.1211 11.4502L77.3369 9.73633C76.9795 9.39648 76.6514 9.03613 76.3525 8.65527C76.0537 8.28027 75.8135 7.84082 75.6318 7.33691C75.4502 6.83887 75.3594 6.22949 75.3594 5.50879C75.3594 4.05566 75.6289 2.91601 76.168 2.08984C76.7012 1.26953 77.6328 0.859375 78.9629 0.859375Z" fill="white"/>
<path d="M91.793 1L90.2988 16.4687L85.0518 16.4687L83.584 0.999999L86.5107 1L86.7305 3.49609L88.5938 3.49609L88.7871 1L91.793 1ZM88.374 5.96582L86.9678 5.96582L87.6445 13.832L87.7852 13.832L88.374 5.96582Z" fill="white"/>
<path d="M98.4023 1L98.4023 16.4688L92.2148 16.4687L92.2148 13.4541L95.291 13.4541L95.291 10.9932L92.373 10.9932L92.373 8.01367L95.291 8.01367L95.291 1L98.4023 1Z" fill="white"/>
<path d="M116.051 1L116.051 16.4688L111.34 16.4687L110.039 7.03809L108.747 16.4687L103.992 16.4687L103.992 0.999999L106.822 0.999999L106.822 12.1445L108.598 0.999999L111.375 1L113.256 12.1445L113.256 1L116.051 1Z" fill="white"/>
<path d="M119.944 11.9316L119.364 14.0059L120.48 14.0059L120.48 16.625L117.193 16.625L117.193 14.085L118.09 11.9316L119.944 11.9316Z" fill="white"/>
<path d="M124.453 1L124.453 16.4688L121.465 16.4687L121.465 1L124.453 1Z" fill="white"/>
</svg>
