<svg width="426" height="88" viewBox="0 0 426 88" fill="none" xmlns="http://www.w3.org/2000/svg">
<path d="M365.916 87L356.688 1.0625H373.484L378.221 55.3105L383.055 1.0625H399.07L403.66 55.3105L408.25 1.0625H425.242L415.867 87H395.262L390.965 45.6426L386.863 87H365.916Z" fill="white"/>
<path d="M331.055 87.7812C324.186 87.7812 318.929 85.7142 315.283 81.5801C311.67 77.4134 309.863 71.4076 309.863 63.5625V22.7422C309.863 15.3854 311.654 9.80273 315.234 5.99414C318.848 2.18555 324.121 0.28125 331.055 0.28125C337.988 0.28125 343.245 2.18555 346.826 5.99414C350.439 9.80273 352.246 15.3854 352.246 22.7422V63.5625C352.246 71.4076 350.423 77.4134 346.777 81.5801C343.164 85.7142 337.923 87.7812 331.055 87.7812ZM331.201 71.9609C333.805 71.9609 335.107 69.4382 335.107 64.3926V22.4492C335.107 18.2174 333.838 16.1016 331.299 16.1016C328.434 16.1016 327.002 18.2663 327.002 22.5957V64.4902C327.002 67.1595 327.327 69.0801 327.979 70.252C328.63 71.3913 329.704 71.9609 331.201 71.9609Z" fill="white"/>
<path d="M262.891 87V1.0625H289.258C293.652 1.0625 296.973 2.07161 299.219 4.08984C301.465 6.07552 302.962 8.875 303.711 12.4883C304.492 16.069 304.883 20.2845 304.883 25.1348C304.883 29.8223 304.281 33.5658 303.076 36.3652C301.904 39.1647 299.674 41.1016 296.387 42.1758C299.089 42.7292 300.977 44.0801 302.051 46.2285C303.158 48.3444 303.711 51.0951 303.711 54.4805V87H286.768V53.3574C286.768 50.8509 286.247 49.3047 285.205 48.7188C284.196 48.1003 282.552 47.791 280.273 47.791V87H262.891ZM280.371 32.8984H284.521C286.898 32.8984 288.086 30.3105 288.086 25.1348C288.086 21.7819 287.826 19.5846 287.305 18.543C286.784 17.5013 285.807 16.9805 284.375 16.9805H280.371V32.8984Z" fill="white"/>
<path d="M215.234 87V1.0625H241.602C245.996 1.0625 249.316 2.07161 251.562 4.08984C253.809 6.07552 255.306 8.875 256.055 12.4883C256.836 16.069 257.227 20.2845 257.227 25.1348C257.227 29.8223 256.624 33.5658 255.42 36.3652C254.248 39.1647 252.018 41.1016 248.73 42.1758C251.432 42.7292 253.32 44.0801 254.395 46.2285C255.501 48.3444 256.055 51.0951 256.055 54.4805V87H239.111V53.3574C239.111 50.8509 238.59 49.3047 237.549 48.7188C236.54 48.1003 234.896 47.791 232.617 47.791V87H215.234ZM232.715 32.8984H236.865C239.242 32.8984 240.43 30.3105 240.43 25.1348C240.43 21.7819 240.169 19.5846 239.648 18.543C239.128 17.5013 238.151 16.9805 236.719 16.9805H232.715V32.8984Z" fill="white"/>
<path d="M187.109 87.7812C180.241 87.7812 174.984 85.7142 171.338 81.5801C167.725 77.4134 165.918 71.4076 165.918 63.5625V22.7422C165.918 15.3854 167.708 9.80273 171.289 5.99414C174.902 2.18555 180.176 0.28125 187.109 0.28125C194.043 0.28125 199.3 2.18555 202.881 5.99414C206.494 9.80273 208.301 15.3854 208.301 22.7422V63.5625C208.301 71.4076 206.478 77.4134 202.832 81.5801C199.219 85.7142 193.978 87.7812 187.109 87.7812ZM187.256 71.9609C189.86 71.9609 191.162 69.4382 191.162 64.3926V22.4492C191.162 18.2174 189.893 16.1016 187.354 16.1016C184.489 16.1016 183.057 18.2663 183.057 22.5957V64.4902C183.057 67.1595 183.382 69.0801 184.033 70.252C184.684 71.3913 185.758 71.9609 187.256 71.9609Z" fill="white"/>
<path d="M91.9922 87V1.0625H118.164L125.391 53.4551L132.568 1.0625H158.984V87H143.262V25.0859L133.398 87H117.969L107.52 25.0859V87H91.9922Z" fill="white"/>
<path d="M63.8672 87.7812C56.9987 87.7812 51.7415 85.7142 48.0957 81.5801C44.4824 77.4134 42.6758 71.4076 42.6758 63.5625V22.7422C42.6758 15.3854 44.4661 9.80273 48.0469 5.99414C51.6602 2.18555 56.9336 0.28125 63.8672 0.28125C70.8008 0.28125 76.0579 2.18555 79.6387 5.99414C83.252 9.80273 85.0586 15.3854 85.0586 22.7422V63.5625C85.0586 71.4076 83.2357 77.4134 79.5898 81.5801C75.9766 85.7142 70.7357 87.7812 63.8672 87.7812ZM64.0137 71.9609C66.6178 71.9609 67.9199 69.4382 67.9199 64.3926V22.4492C67.9199 18.2174 66.6504 16.1016 64.1113 16.1016C61.2467 16.1016 59.8145 18.2663 59.8145 22.5957V64.4902C59.8145 67.1595 60.14 69.0801 60.791 70.252C61.4421 71.3913 62.5163 71.9609 64.0137 71.9609Z" fill="white"/>
<path d="M11.1816 87V17.5664H0.976562V1.0625H38.5742V17.5664H28.3691V87H11.1816Z" fill="white"/>
</svg>
