<svg width="255" height="88" viewBox="0 0 255 88" fill="none" xmlns="http://www.w3.org/2000/svg">
<path d="M237.156 86.9492V72.3984H254.637V86.9492H237.156Z" fill="#C4F56A"/>
<path d="M212.5 87.7812C204.655 87.7812 198.991 85.8281 195.508 81.9219C192.057 78.0156 190.332 71.7982 190.332 63.2695V54.8711H207.324V65.6133C207.324 67.599 207.617 69.1615 208.203 70.3008C208.822 71.4076 209.88 71.9609 211.377 71.9609C212.939 71.9609 214.014 71.5052 214.6 70.5938C215.218 69.6823 215.527 68.1849 215.527 66.1016C215.527 63.4648 215.267 61.2676 214.746 59.5098C214.225 57.7194 213.314 56.0267 212.012 54.4316C210.742 52.804 208.968 50.916 206.689 48.7676L198.975 41.4434C193.213 36.0072 190.332 29.7897 190.332 22.791C190.332 15.4668 192.025 9.88411 195.41 6.04297C198.828 2.20182 203.76 0.28125 210.205 0.28125C218.083 0.28125 223.665 2.38086 226.953 6.58008C230.273 10.7793 231.934 17.1595 231.934 25.7207H214.453V19.8125C214.453 18.6406 214.111 17.7292 213.428 17.0781C212.777 16.4271 211.882 16.1016 210.742 16.1016C209.375 16.1016 208.366 16.4922 207.715 17.2734C207.096 18.0221 206.787 18.9987 206.787 20.2031C206.787 21.4076 207.113 22.7096 207.764 24.1094C208.415 25.5091 209.701 27.1204 211.621 28.9434L221.533 38.4648C223.519 40.3529 225.342 42.3548 227.002 44.4707C228.662 46.554 229.997 48.9954 231.006 51.7949C232.015 54.5618 232.52 57.9473 232.52 61.9512C232.52 70.0241 231.022 76.3555 228.027 80.9453C225.065 85.5026 219.889 87.7812 212.5 87.7812Z" fill="#C4F56A"/>
<path d="M144.434 87V1.0625H170.801C175.195 1.0625 178.516 2.07161 180.762 4.08984C183.008 6.07552 184.505 8.875 185.254 12.4883C186.035 16.069 186.426 20.2845 186.426 25.1348C186.426 29.8223 185.824 33.5658 184.619 36.3652C183.447 39.1647 181.217 41.1016 177.93 42.1758C180.632 42.7292 182.52 44.0801 183.594 46.2285C184.701 48.3444 185.254 51.0951 185.254 54.4805V87H168.311V53.3574C168.311 50.8509 167.79 49.3047 166.748 48.7188C165.739 48.1003 164.095 47.791 161.816 47.791V87H144.434ZM161.914 32.8984H166.064C168.441 32.8984 169.629 30.3105 169.629 25.1348C169.629 21.7819 169.368 19.5846 168.848 18.543C168.327 17.5013 167.35 16.9805 165.918 16.9805H161.914V32.8984Z" fill="#C4F56A"/>
<path d="M116.945 87.7812C109.784 87.7812 104.51 85.7793 101.125 81.7754C97.7396 77.7389 96.0469 71.8145 96.0469 64.002V1.0625H112.746V63.3184C112.746 64.7507 112.827 66.1341 112.99 67.4688C113.153 68.7708 113.527 69.8451 114.113 70.6914C114.699 71.5378 115.643 71.9609 116.945 71.9609C118.28 71.9609 119.24 71.554 119.826 70.7402C120.412 69.8939 120.77 68.8034 120.9 67.4688C121.063 66.1341 121.145 64.7507 121.145 63.3184V1.0625H137.844V64.002C137.844 71.8145 136.151 77.7389 132.766 81.7754C129.38 85.7793 124.107 87.7812 116.945 87.7812Z" fill="#C4F56A"/>
<path d="M68.9453 87.7812C62.0768 87.7812 56.8197 85.7142 53.1738 81.5801C49.5605 77.4134 47.7539 71.4076 47.7539 63.5625V22.7422C47.7539 15.3854 49.5443 9.80273 53.125 5.99414C56.7383 2.18555 62.0117 0.28125 68.9453 0.28125C75.8789 0.28125 81.1361 2.18555 84.7168 5.99414C88.3301 9.80273 90.1367 15.3854 90.1367 22.7422V63.5625C90.1367 71.4076 88.3138 77.4134 84.668 81.5801C81.0547 85.7142 75.8138 87.7812 68.9453 87.7812ZM69.0918 71.9609C71.696 71.9609 72.998 69.4382 72.998 64.3926V22.4492C72.998 18.2174 71.7285 16.1016 69.1895 16.1016C66.3249 16.1016 64.8926 18.2663 64.8926 22.5957V64.4902C64.8926 67.1595 65.2181 69.0801 65.8691 70.252C66.5202 71.3913 67.5944 71.9609 69.0918 71.9609Z" fill="#C4F56A"/>
<path d="M14.209 87V58.7285L0.488281 1.0625H17.5293L22.3145 30.1641L27.0996 1.0625H44.0918L30.4199 58.7285V87H14.209Z" fill="#C4F56A"/>
</svg>
