<svg width="64" height="88" viewBox="0 0 64 88" fill="none" xmlns="http://www.w3.org/2000/svg">
<path d="M43.875 87.7812C36.0299 87.7812 30.3659 85.8281 26.8828 81.9219C23.4323 78.0156 21.707 71.7982 21.707 63.2695V54.8711H38.6992V65.6133C38.6992 67.599 38.9922 69.1615 39.5781 70.3008C40.1966 71.4076 41.2546 71.9609 42.752 71.9609C44.3145 71.9609 45.3887 71.5052 45.9746 70.5938C46.5931 69.6823 46.9023 68.1849 46.9023 66.1016C46.9023 63.4648 46.6419 61.2676 46.1211 59.5098C45.6003 57.7194 44.6888 56.0267 43.3867 54.4316C42.1172 52.804 40.3431 50.916 38.0645 48.7676L30.3496 41.4434C24.5879 36.0072 21.707 29.7897 21.707 22.791C21.707 15.4668 23.3997 9.88411 26.7852 6.04297C30.2031 2.20182 35.1348 0.28125 41.5801 0.28125C49.4577 0.28125 55.0404 2.38086 58.3281 6.58008C61.6484 10.7793 63.3086 17.1595 63.3086 25.7207H45.8281V19.8125C45.8281 18.6406 45.4863 17.7292 44.8027 17.0781C44.1517 16.4271 43.2565 16.1016 42.1172 16.1016C40.75 16.1016 39.7409 16.4922 39.0898 17.2734C38.4714 18.0221 38.1621 18.9987 38.1621 20.2031C38.1621 21.4076 38.4876 22.7096 39.1387 24.1094C39.7897 25.5091 41.0755 27.1204 42.9961 28.9434L52.9082 38.4648C54.8939 40.3529 56.7168 42.3548 58.377 44.4707C60.0371 46.554 61.3717 48.9954 62.3809 51.7949C63.39 54.5618 63.8945 57.9473 63.8945 61.9512C63.8945 70.0241 62.3971 76.3555 59.4023 80.9453C56.4401 85.5026 51.2643 87.7812 43.875 87.7812Z" fill="white"/>
<path d="M0.0273438 87V1.0625H16.6289V87H0.0273438Z" fill="white"/>
</svg>
