<svg width="136" height="49" viewBox="0 0 136 49" fill="none" xmlns="http://www.w3.org/2000/svg">
<path d="M125.271 48.9016V39.1016H126.951L134.287 48.0196H134.525V39.1016H135.477V48.9016H133.797L126.461 39.9836H126.223V48.9016H125.271Z" fill="#C4F56A"/>
<path d="M110.831 48.9016L106.812 39.4516V39.1016H107.723L111.503 48.0196H111.797L114.485 41.3556L113.673 39.4516V39.1016H114.583L118.181 48.0196H118.461L122.185 39.1016H123.053V39.4516L119.09 48.9016H117.578L115.059 42.6996H114.905L112.385 48.9016H110.831Z" fill="#C4F56A"/>
<path d="M96.3364 48.9016L93.9004 46.8296V41.1736L96.3364 39.1016H102.79L105.226 41.1736V46.8296L102.79 48.9016H96.3364ZM96.7704 48.0196H102.356L104.246 46.4096V41.5936L102.356 39.9836H96.7704L94.8804 41.5936V46.4096L96.7704 48.0196Z" fill="#C4F56A"/>
<path d="M80.3867 48.9016V39.1016H88.7167L91.1527 41.1736V46.8296L88.7167 48.9016H80.3867ZM81.3667 48.0196H88.2827L90.1727 46.4096V41.5936L88.2827 39.9836H81.3667V48.0196Z" fill="#C4F56A"/>
<path d="M64.5684 48.9016V39.1016H65.5484V48.0196H73.1644V48.9016H64.5684Z" fill="#C4F56A"/>
<path d="M53.8633 48.9016V39.1016H54.8433V48.0196H62.4593V48.9016H53.8633Z" fill="#C4F56A"/>
<path d="M41.8813 48.9016L39.4453 46.8296V41.1736L41.8813 39.1016H48.3353L50.7713 41.1736V46.8296L48.3353 48.9016H41.8813ZM42.3153 48.0196H47.9013L49.7913 46.4096V41.5936L47.9013 39.9836H42.3153L40.4253 41.5936V46.4096L42.3153 48.0196Z" fill="#C4F56A"/>
<path d="M26.123 48.9016V39.1016H34.285L36.455 40.9076V43.3576L34.215 45.2056L36.973 48.5516V48.9016H36.007L32.983 45.2196H27.103V48.9016H26.123ZM27.103 44.3236H33.767L35.475 42.9236V41.3416L33.851 39.9836H27.103V44.3236Z" fill="#C4F56A"/>
<path d="M15.8501 48.9016L13.4141 46.8296V41.1736L15.8501 39.1016H23.5921V39.9836H16.2841L14.3941 41.5936V46.4096L16.2841 48.0196H23.5921V48.9016H15.8501Z" fill="#C4F56A"/>
<path d="M1.12277 48.9016V48.0196H8.83677L10.1108 46.9696V45.3316L8.83677 44.2816H2.69077L0.884766 42.7836V40.5996L2.69077 39.1016H10.4048V39.9836H3.13877L1.86477 41.0336V42.3496L3.13877 43.3996H9.28477L11.0908 44.8976V47.4036L9.28477 48.9016H1.12277Z" fill="#C4F56A"/>
<path fill-rule="evenodd" clip-rule="evenodd" d="M111.543 0.296902C111.696 0.295321 111.842 0.363921 111.938 0.483075L135.388 29.5734C135.46 29.6622 135.499 29.773 135.499 29.8872V48.8121H134.499V30.0636L120.112 12.2165L116.303 17.4652C116.211 17.5909 116.067 17.667 115.912 17.6713C115.757 17.6756 115.608 17.6075 115.51 17.4871L111.554 12.6246L107.29 18.0085C107.196 18.1275 107.053 18.1972 106.901 18.1981C106.749 18.199 106.605 18.1309 106.51 18.0131L102.602 13.1947L95.4996 22.387L103.566 32.6254L102.781 33.2442L97.6271 26.7031L95.2065 28.9616C95.0355 29.1212 94.7768 29.1409 94.5836 29.0091L90.5595 26.2631L87.0133 28.9923C86.8092 29.1494 86.519 29.1257 86.3431 28.9374L84.4359 26.8967L81.7881 30.1999L81.0078 29.5744L90.7787 17.3854C90.874 17.2664 91.0184 17.1975 91.1709 17.1981C91.3234 17.1987 91.4672 17.2689 91.5615 17.3887L94.8616 21.5772L111.153 0.49118C111.246 0.370068 111.39 0.298482 111.543 0.296902ZM85.0679 26.1084L86.7635 27.9227L90.2369 25.2495C90.4083 25.1176 90.6451 25.1108 90.8237 25.2327L94.8168 27.9576L97.006 25.9149L91.1654 18.5017L85.0679 26.1084ZM103.23 12.3817L106.893 16.8986L111.157 11.5155C111.251 11.3966 111.394 11.3269 111.545 11.3259C111.697 11.3249 111.841 11.3927 111.936 11.5103L115.875 16.3515L119.462 11.4099L111.557 1.6039L103.23 12.3817Z" fill="#C4F56A"/>
</svg>
