<svg width="110" height="13" viewBox="0 0 110 13" fill="none" xmlns="http://www.w3.org/2000/svg">
<path fill-rule="evenodd" clip-rule="evenodd" d="M20.0166 0.112236L13.5761 12.1322H17.881L18.9103 9.93369H23.6953L24.1055 12.1329H28.4096L25.922 0.112995H20.0166V0.112236ZM19.9805 7.6336L22.6315 2.58675H22.6676L23.4667 7.6336H19.9805ZM35.5282 0.112236H31.382L29.5135 12.1314H39.7978L40.2244 9.24662H34.0864L35.5282 0.112236ZM70.4312 0.112236L66.4476 9.12756H66.4115L65.3083 0.112236H60.0236L55.4178 12.1314H59.4728L62.4963 3.4581H62.5324L63.4926 12.1306H68.4033L72.1401 3.66513H72.1739L72.797 12.1306H76.9416L75.8573 0.112236H70.4312ZM106.264 0.112236L104.859 8.92053H104.824L100.875 0.112236H95.27L93.4031 12.1314H97.3513L98.5606 3.51118H98.5967L102.334 12.1306H108.132L110.001 0.112236H106.264ZM56.1791 4.3795C56.5343 2.52532 56.0078 1.40902 54.8803 0.756838C53.7536 0.104653 52.0156 0.00151671 49.9343 0.00151671C47.8529 0.00151671 46.074 0.104653 44.6857 0.756838C43.2981 1.40902 42.3395 2.53139 41.9828 4.3795L41.3228 7.85731C40.9685 9.70997 41.4957 10.8096 42.6413 11.4618C43.7868 12.114 45.5044 12.2353 47.5858 12.2353C49.6663 12.2353 51.4821 12.114 52.8524 11.4618C54.2235 10.8096 55.1656 9.70997 55.5207 7.85731L56.1791 4.3795ZM51.9622 4.7109L51.3753 7.61388C50.984 9.51963 50.1488 9.70694 47.9959 9.70694C45.843 9.70694 45.0605 9.54162 45.451 7.61388L46.0465 4.7109C46.4394 2.80515 47.3453 2.63301 49.4267 2.63301C51.6243 2.63452 52.3362 2.8226 51.9622 4.7109ZM91.7476 0.763663C90.6083 0.111478 88.8829 0.0083419 86.8016 0.0083419C84.721 0.0083419 82.9413 0.11072 81.5538 0.763663C80.1654 1.41585 79.2045 2.53215 78.8493 4.3795L78.1909 7.85731C77.8358 9.70997 78.3622 10.8096 79.5086 11.4618C80.6549 12.114 82.3717 12.2353 84.4531 12.2353C86.5344 12.2353 88.3494 12.114 89.7181 11.4618C91.0876 10.8096 92.0258 9.70846 92.388 7.85731L93.0448 4.3795C93.3984 2.53215 92.868 1.41585 91.7476 0.763663ZM88.831 4.71242L88.2512 7.6154C87.8599 9.52114 87.0231 9.70846 84.8718 9.70846C82.7205 9.70846 81.9364 9.54313 82.3269 7.6154L82.9052 4.7109C83.2965 2.80515 84.204 2.63301 86.2853 2.63301C88.4916 2.63452 89.2035 2.82335 88.8295 4.7109L88.831 4.71242ZM12.4753 6.72281L6.43555 3.85244C5.45655 3.38909 5.38426 3.20026 5.47384 2.76951C5.52648 2.51167 5.68755 2.37365 6.34598 2.3054C6.75691 2.27127 7.52219 2.25231 8.27019 2.25231C8.73376 2.25231 9.32148 2.27127 9.62398 2.28947C10.7114 2.35772 10.8348 2.51091 10.6925 3.1995L10.4804 4.23162H14.3453L14.7358 2.33877C15.0572 0.775039 14.4875 0 12.3858 0H5.42041C2.85505 0 2.17698 0.447429 1.78648 2.33801L1.55469 3.45582C1.32369 4.59184 1.64426 5.24402 3.40819 6.08731L7.87891 8.20161C9.17926 8.82118 9.28534 8.97513 9.19655 9.38919C9.12584 9.75017 8.98362 9.85254 8.33855 9.90411C7.70389 9.94062 7.06819 9.95757 6.43241 9.95492C5.41648 9.95492 4.88848 9.939 4.45398 9.86923C3.93934 9.78278 3.81441 9.55982 3.88512 9.21704L4.13341 8.01278H0.432692L0.0759782 9.73197C-0.280736 11.4519 0.610264 12.2254 2.92576 12.2254H9.91076C12.403 12.2254 12.9986 11.5368 13.3828 9.69708L13.6311 8.5277C13.8095 7.6518 13.6673 7.29158 12.4753 6.72281Z" fill="white"/>
</svg>
